<svg xmlns="http://www.w3.org/2000/svg" viewBox="0 0 24.571 20.452"><path data-name="Union 7" d="M4.607 18.4a2.054 2.054 0 0 1 2.047-2.047A2.053 2.053 0 0 1 8.701 18.4a2.053 2.053 0 0 1-2.047 2.047A2.054 2.054 0 0 1 4.607 18.4zm1.024 0a1.026 1.026 0 0 0 1.023 1.023A1.026 1.026 0 0 0 7.678 18.4a1.027 1.027 0 0 0-1.024-1.024A1.027 1.027 0 0 0 5.631 18.4zm3.583.512v-1.024h15.357v1.024zm-9.214 0v-1.024h4.1v1.024zm.512-4.072A.484.484 0 0 1 0 14.328V.508a.484.484 0 0 1 .512-.512h23.547a.484.484 0 0 1 .512.512v13.82a.484.484 0 0 1-.512.512zm.512-1.024h22.522v-12.8H1.024zm8.958-2.61a.538.538 0 0 1-.256-.461V4.603a.54.54 0 0 1 .256-.461.465.465 0 0 1 .512 0l5.119 3.072a.537.537 0 0 1 .256.461.537.537 0 0 1-.256.46l-5.119 3.072a.382.382 0 0 1-.256.051.462.462 0 0 1-.257-.048zm.769-1.331l3.634-2.15-3.634-2.2z" fill="#4b2e83"/></svg>