<svg xmlns="http://www.w3.org/2000/svg" viewBox="0 0 368.33 191"><defs><clipPath id="a" transform="translate(.33)"><path transform="rotate(-67.99 256.362 29.56)" fill="none" d="M250.03 9.07h12.67v40.97h-12.67z"/></clipPath></defs><path fill="#ccc" d="M.33 0h368v191H.33z"/><path d="M97.33 81.59v100.88L0 190V38zM.33 67l32.55 11.14V61.85L.33 48zm0 38l32.55 7V95.37L.33 86zm0 38l32.55 2.5v-16.92L.33 124zm0 38l32.55-1v-17.58L.33 162zm91.34-17.33L54.26 163v16l37.41-1.56zm0-26L54.26 132v15.35l37.41 3.13zm0-25.69l-37.41-10.66v15.36l37.41 8.14zm0-25.7L54.26 70.62v15l37.41 13.51z" fill="#666"/><path d="M134.75 78.65l17.58 1.56v106.84l-17.55-1.57-37.91-3.13v-6.89l37.91 1.88V161l-37.91.63v-13.75l37.91-3.44v-16l-37.94 5.66V120l37.91-8.46V95.25l-37.91 11V92.43zM367.33 71v111l-137 8-78-3v-9.35l72.69 3.44v-22.55l-72.69 1.88v-17.55l72.37-6.58v-22.55L152.33 125v-17.53l72.37-16.29V68.62l-72.37 21.3V72.38l72.37-26.32V23.5l-72.37 31.02v-8.77l78.29-36.34zm-85.64-9.27l40.41 14.41V59.85l-40.41-16.92zm0 39.47l40.41 8.8V93.37l-40.41-11.59zm0 38.85l40.41 3.45v-16.92l-40.41-6.27zm0 39.48L322.1 178v-17.58l-40.41-.63zM367.33 161h-23.92v16l23.92-1zm0-27l-23.92-4v15.35l23.92 1.65zm0-28l-23.92-6.68v15.36l23.92 5.32zm0-27l-23.92-10.38v15L367.33 92z" fill="gray"/><g clip-path="url(#a)" fill="#231f20"><path d="M256.66 27.26v.06c-.15 0-.34-.06-.44.19 0 0-.05.13-.1.3l-.79 2.67c-.1.36-.12.49.13.7v.07l-1.13-.46v-.06c.18 0 .35 0 .45-.23 0-.05 0-.05.09-.28l.81-2.7-2.71 2.74-.09-3.82-1.28 2.5a.91.91 0 0 0-.11.22c-.1.24 0 .36.16.48v.07l-.93-.38v-.07c.3.05.37 0 .57-.4l1.28-2.46.13-.27c.11-.26 0-.35-.16-.47v-.07l.8.33.08 3.48 2.47-2.45zm1.46 4.36a1 1 0 0 1-.29.2 1.15 1.15 0 0 1-1.07.08 1.3 1.3 0 0 1-.68-1.79 1.38 1.38 0 0 1 1.8-.86 1.16 1.16 0 0 1 .62 1.64l-1.93-.78a1.06 1.06 0 0 0-.1.28 1 1 0 0 0 .56 1.21 1.25 1.25 0 0 0 1-.07zm0-1.15a.73.73 0 0 0-.36-1 .89.89 0 0 0-1.09.43zm4.12-1.01l-1.25 3.09c-.15.38-.12.48 0 .62v.06l-.53.19a.81.81 0 0 1-.11-.5 1.35 1.35 0 0 1-1 0 1.23 1.23 0 0 1-.64-1.7 1.42 1.42 0 0 1 1.85-.92 1.39 1.39 0 0 1 .63.47l.3-.73c.06-.17.13-.36-.18-.45v-.06zm-1.38 2.2a1.3 1.3 0 0 0 .1-.43.71.71 0 0 0-.48-.66c-.55-.22-1 .13-1.3.74a1 1 0 0 0 .43 1.37.86.86 0 0 0 .34.07 1 1 0 0 0 .53-.15zm1.29.16c.08-.18.12-.3-.15-.41v-.06l.9-.12-.83 2.05c-.12.31-.16.42.11.62v.07l-1-.41v-.07c.3 0 .35-.08.48-.4zm1.18-1.53a.31.31 0 0 1-.4.17.28.28 0 0 1-.16-.37.3.3 0 1 1 .56.2m1.4 4.01a1.19 1.19 0 0 1-1.31.3 1.05 1.05 0 0 1-.65-.72 1.58 1.58 0 0 1 .07-1 1.76 1.76 0 0 1 .72-.85 1.19 1.19 0 0 1 1.06-.07 1.29 1.29 0 0 1 .68.61l-.29.46h-.06a.78.78 0 0 0-.47-.83c-.57-.23-1 .3-1.17.72a1 1 0 0 0 .42 1.41 1.26 1.26 0 0 0 1-.11zm.95-1.06c.07-.18.12-.29-.15-.4v-.06l.9-.13-.83 2.06c-.12.31-.16.41.11.62v.06l-1-.4v-.07c.3 0 .35-.09.47-.4zm1.19-1.53a.29.29 0 0 1-.4.17.28.28 0 0 1-.16-.37.29.29 0 0 1 .4-.17.28.28 0 0 1 .16.37m.77 1.44l-.17.43a1.14 1.14 0 0 1 1 0 .93.93 0 0 1 .57.59 1.15 1.15 0 0 1-.13.77l-.39 1c-.14.34-.17.48.09.65v.06l-1-.41v-.06a.34.34 0 0 0 .31-.06c.05 0 .08-.07.18-.34l.42-1a.67.67 0 0 0 0-.59.73.73 0 0 0-.37-.31.82.82 0 0 0-.53 0 .61.61 0 0 0-.4.44l-.41 1c-.14.36-.14.45.09.63v.06l-1-.41v-.06c.3.07.38-.13.49-.4l.44-1.08c.13-.34.18-.47-.1-.59v-.06zm3.55 3.76c-.06 0-.14.11-.29.2a1.2 1.2 0 0 1-1.08.07 1.28 1.28 0 0 1-.67-1.78 1.37 1.37 0 0 1 1.8-.87 1.17 1.17 0 0 1 .62 1.64l-1.93-.78a1.2 1.2 0 0 0-.1.28 1 1 0 0 0 .56 1.22 1.29 1.29 0 0 0 1-.08zm0-1.15a.74.74 0 0 0-.36-1 .9.9 0 0 0-1.08.43zm-19.73-10.62c0-.06-.15-.09-.28-.13l-.19-.06-.18-.09c-.15-.09-.31-.17-.39-.14s0 .09.07.13a.26.26 0 0 1 .1.27v.11a15.5 15.5 0 0 1-1.84 2.11c0-.53.23-2.77.23-2.79l.05-.17c.06-.12.11-.1.17-.09s.08 0 .11 0v-.05c0-.06-.19-.11-.42-.18l-.21-.07-.21-.1a.8.8 0 0 0-.4-.15v.05c0 .06 0 .09.07.12a.42.42 0 0 1 .2.29v.94l-1.41 1.48c0-.29.06-1.94.09-2.84v-.13c.06-.12.12-.11.18-.1s.08 0 .11 0c0-.06-.19-.11-.42-.18l-.21-.07-.21-.1a1 1 0 0 0-.31-.14h-.07l-.19-.05-.2-.1c-.14-.08-.25-.14-.32-.12 0 .08.05.13.11.16.15.08.35.19-.08 1.25l-.52 1.29a1.12 1.12 0 0 1-1.6.62 1.22 1.22 0 0 1-.77-.65 2 2 0 0 1 .18-1.49l.64-1.6a.25.25 0 0 1 .3-.19c.05 0 .11 0 .13-.06v-.06c0-.06-.17-.09-.32-.11l-.27-.07-.25-.14c-.17-.1-.33-.19-.41-.17a.12.12 0 0 0-.05.05c0 .07 0 .11.09.15s.27.2.1.63l-.75 1.86a1.29 1.29 0 0 0 0 1 2.06 2.06 0 0 0 1.19 1 1.45 1.45 0 0 0 2.08-.86l.81-2c.07-.16.14-.19.2-.2a.53.53 0 0 1 .16.45v2.77l-.06 1.1a.11.11 0 0 0 0 .06h.07c.32-.41 1.7-1.85 1.94-2.1 0 .34-.07 2.4-.14 2.81a.09.09 0 0 0 0 .08h.08l.24-.28.39-.44.36-.39 1.58-1.73c.31-.31.46-.26.55-.23a.08.08 0 0 0 .12 0 .11.11 0 0 0 0-.05"/></g></svg>