<svg xmlns="http://www.w3.org/2000/svg" viewBox="0 0 17.58 17.58"><defs><style>.cls-1{fill:#008995;stroke:#008995;stroke-miterlimit:10;stroke-width:0.58px;}</style></defs><title>Accepting Patients</title><g id="Layer_2" data-name="Layer 2"><g id="Layer_1-2" data-name="Layer 1"><path class="cls-1" d="M17,6.64a.56.56,0,1,0-1.09.29,7.7,7.7,0,0,1,.23,1.86,7.37,7.37,0,1,1-3.7-6.39.57.57,0,0,0,.57-1,8.5,8.5,0,1,0,4.27,7.38A8.19,8.19,0,0,0,17,6.64Z"/><path class="cls-1" d="M8.73,11.3a.27.27,0,0,1-.23-.09L5.82,7.47A.55.55,0,0,0,5,7.34a.57.57,0,0,0-.13.79L7.6,11.9a1.45,1.45,0,0,0,1.13.53h0a1.42,1.42,0,0,0,1.13-.56l6.81-9.11a.57.57,0,1,0-.91-.68L9,11.18A.31.31,0,0,1,8.73,11.3Z"/></g></g></svg>