<svg width="24" height="24" xmlns="http://www.w3.org/2000/svg"><g fill="none" fill-rule="evenodd"><path fill="#FFF" d="M0 0h24v24H0z"/><g fill="#000"><path d="M12.145 19.332a7.27 7.27 0 1 1 0-14.54 7.27 7.27 0 0 1 0 14.54m8.636-7.296c-.001-.17-.098-.336-.2-.512-.09-.156-.184-.318-.205-.487-.021-.174.03-.358.082-.534.055-.192.106-.374.066-.533-.04-.164-.173-.302-.313-.448-.126-.13-.256-.266-.318-.425-.062-.163-.056-.352-.048-.535.006-.2.012-.39-.064-.536-.079-.149-.241-.25-.411-.358-.155-.096-.314-.197-.412-.338-.1-.143-.138-.328-.177-.507-.041-.197-.08-.382-.19-.506-.112-.125-.291-.185-.482-.248-.174-.058-.353-.118-.484-.232-.128-.114-.211-.284-.29-.449-.086-.182-.168-.352-.306-.447-.138-.095-.327-.11-.526-.126-.184-.014-.372-.03-.525-.11-.153-.08-.272-.225-.388-.366-.129-.155-.25-.302-.407-.362-.135-.05-.333-.029-.539.005-.186.03-.387.057-.538.02-.166-.04-.317-.153-.462-.26-.162-.121-.317-.235-.484-.255-.163-.019-.336.055-.52.133-.169.073-.344.148-.52.148-.177.001-.353-.073-.523-.145-.184-.077-.356-.15-.52-.13-.167.02-.32.136-.482.257-.145.109-.295.222-.46.263-.15.039-.354.014-.538-.016-.207-.033-.405-.053-.54-.002-.157.061-.277.209-.404.366-.116.142-.233.287-.386.367-.153.081-.342.098-.524.114-.2.017-.388.033-.526.128-.136.096-.217.268-.304.45-.077.165-.158.335-.287.451-.13.116-.308.175-.481.234-.19.065-.37.127-.481.251-.11.125-.149.312-.188.508-.036.18-.074.365-.172.508-.098.142-.257.243-.41.342-.171.107-.332.21-.41.358-.075.147-.068.336-.06.537.008.183.016.372-.046.536-.06.16-.19.296-.315.428-.138.146-.27.285-.311.448-.038.16.014.342.07.533.052.176.105.36.084.534-.018.168-.11.332-.201.489-.1.176-.196.342-.196.512.001.17.097.336.199.512.09.157.185.32.205.487.022.174-.03.357-.08.534-.056.192-.108.374-.068.533.041.165.173.301.314.448.126.13.256.266.317.426.063.162.057.352.05.535-.006.2-.014.39.064.536.078.148.24.249.41.356.154.098.314.197.412.34.1.142.138.327.177.506.04.197.079.382.19.507.112.124.291.185.482.248.174.057.353.116.483.23.13.115.212.285.29.45.087.181.17.354.307.447.138.094.327.11.526.126.183.015.371.03.525.11.152.08.273.224.388.365.129.157.249.304.407.363.135.05.331.029.539-.005.186-.03.387-.056.538-.02.166.04.316.153.463.26.162.122.315.236.483.256.165.018.335-.055.519-.134.17-.073.345-.148.522-.149.177 0 .352.074.522.145.184.078.356.151.52.13.167-.02.32-.134.483-.257.144-.109.294-.221.46-.263.15-.038.353-.012.538.017.206.032.404.052.539.001.157-.06.277-.208.404-.365.115-.142.234-.287.386-.368.154-.081.342-.097.524-.113.201-.017.39-.034.526-.128.137-.096.219-.269.303-.45.079-.165.159-.336.288-.451.129-.116.309-.176.482-.235.19-.065.37-.125.48-.25.11-.125.147-.311.188-.508.036-.18.074-.366.173-.508.097-.142.256-.243.41-.342.17-.108.33-.21.408-.359.077-.146.069-.337.061-.536-.008-.184-.015-.373.046-.536.06-.16.19-.296.315-.427.138-.148.271-.285.311-.45.038-.16-.014-.34-.07-.533-.052-.176-.106-.358-.085-.533.02-.169.112-.331.202-.489.1-.176.196-.342.196-.512"/><path d="M16.008 10.526l-2.081-.302a.515.515 0 0 1-.388-.283l-.931-1.885a.516.516 0 0 0-.925 0l-.931 1.885a.515.515 0 0 1-.389.283l-2.08.302a.516.516 0 0 0-.287.88l1.507 1.468c.12.119.176.29.148.457l-.356 2.073a.516.516 0 0 0 .748.544l1.862-.979a.51.51 0 0 1 .48 0l1.862.979a.516.516 0 0 0 .748-.544l-.355-2.073a.517.517 0 0 1 .148-.457l1.507-1.468a.516.516 0 0 0-.287-.88"/></g></g></svg>