<svg width="32" height="32" xmlns="http://www.w3.org/2000/svg"><g fill="none" fill-rule="evenodd"><path d="M4 4h24v24H4z"/><path d="M22.88 18.183c0 .18-.158.337-.339.337h-1.398a1.24 1.24 0 0 0-1.24-1.26c-.7 0-1.264.563-1.264 1.26h-2.391v-8.325h6.293c.18 0 .339.157.339.36v7.628zm-2.076 3.6a.736.736 0 0 1-.744-.743c0-.405.316-.742.744-.742a.73.73 0 0 1 .722.742.73.73 0 0 1-.722.743zM19 18.52c0-.495.406-.877.902-.877s.88.382.88.877H19zm-3.225 0H9.48c-.203 0-.36-.157-.36-.337v-7.628c0-.203.157-.36.36-.36h6.294v8.325zm-4.557 3.263a.75.75 0 0 1-.745-.743.75.75 0 0 1 .745-.742.75.75 0 0 1 .744.742.75.75 0 0 1-.744.743zm1.714-13.77c0-.09.068-.158.158-.158h5.82c.09 0 .18.068.18.157v1.08c0 .09-.09.18-.18.18h-5.82c-.09 0-.158-.09-.158-.18v-1.08zm11.346 2.474V7.675A.664.664 0 0 0 23.602 7H8.398a.678.678 0 0 0-.676.675v2.812A.745.745 0 0 0 7 11.23v1.8c0 .405.316.742.722.765V22.3c0 .36.316.675.676.675h1.218v1.103c0 .517.406.922.925.922h1.489a.928.928 0 0 0 .925-.922v-1.103h6.113v1.103c0 .517.406.922.924.922h1.467a.933.933 0 0 0 .947-.922v-1.103h1.196a.678.678 0 0 0 .676-.675v-8.505A.765.765 0 0 0 25 13.03v-1.8a.745.745 0 0 0-.722-.743z" fill="#23B775"/><path stroke="#23B774" stroke-width="1.5" d="M.75.75h30.5v30.5H.75z"/></g></svg>