<?xml version="1.0" encoding="UTF-8"?>
<svg width="24px" height="24px" viewBox="0 0 24 24" version="1.1" xmlns="http://www.w3.org/2000/svg" xmlns:xlink="http://www.w3.org/1999/xlink">
    <!-- Generator: Sketch 48.2 (47327) - http://www.bohemiancoding.com/sketch -->
    <title>icon_request_translation</title>
    <desc>Created with Sketch.</desc>
    <defs></defs>
    <g id="Icons" stroke="none" stroke-width="1" fill="none" fill-rule="evenodd">
        <g id="icon_request_translation">
            <rect id="Rectangle" fill="#FFFFFF" x="0" y="0" width="24" height="24"></rect>
            <g id="Group-11" transform="translate(3.000000, 4.000000)" fill="#000000">
                <path d="M12.20976,8.23189091 C11.8854,8.23189091 11.62188,8.49770909 11.62188,8.82607273 C11.62188,9.15407273 11.8854,9.41989091 12.20976,9.41989091 C12.53448,9.41989091 12.798,9.15407273 12.798,8.82607273 C12.798,8.49770909 12.53448,8.23189091 12.20976,8.23189091" id="Fill-67"></path>
                <path d="M17.067312,9.73294545 C17.067312,10.6656727 16.315992,11.4245818 15.392232,11.4245818 L14.498352,11.4245818 C13.397472,11.4245818 12.323592,11.8144 11.475072,12.5220364 L8.537832,14.9718545 C8.450712,15.0442182 8.361432,15.0147636 8.327232,14.9984 C8.292672,14.9824 8.213112,14.9322182 8.213112,14.8176727 L8.213112,13.5307636 C8.213112,12.3693091 7.278192,11.4245818 6.128712,11.4245818 L2.500632,11.4245818 C1.576872,11.4245818 0.825552,10.6656727 0.825552,9.73294545 L0.825552,2.68094545 C0.825552,1.74821818 1.576872,0.989309091 2.500632,0.989309091 L15.392232,0.989309091 C16.315992,0.989309091 17.067312,1.74821818 17.067312,2.68094545 L17.067312,9.73294545 Z M15.392232,0.184218182 L2.500632,0.184218182 C1.137312,0.184218182 0.028152,1.30421818 0.028152,2.68094545 L0.028152,9.73294545 C0.028152,11.1096727 1.137312,12.2300364 2.500632,12.2300364 L6.128712,12.2300364 C6.838272,12.2300364 7.415712,12.8133091 7.415712,13.5307636 L7.415712,14.8176727 C7.415712,15.2107636 7.634952,15.5591273 7.987032,15.7267636 C8.124192,15.7925818 8.269992,15.8242182 8.413632,15.8242182 C8.639352,15.8242182 8.861832,15.7456727 9.045072,15.5929455 L11.982672,13.1431273 C12.688992,12.5544 13.582152,12.2300364 14.498352,12.2300364 L15.392232,12.2300364 C16.755552,12.2300364 17.864352,11.1096727 17.864352,9.73294545 L17.864352,2.68094545 C17.864352,1.30421818 16.755552,0.184218182 15.392232,0.184218182 Z" id="Fill-69"></path>
                <path d="M5.588784,7.24112727 L6.767064,4.41603636 L7.945704,7.24112727 L5.588784,7.24112727 Z M7.145424,3.24803636 C7.079904,3.09058182 6.926544,3.00076364 6.767064,3.00476364 C6.607944,3.00076364 6.454584,3.09058182 6.389064,3.24803636 L4.051224,8.85130909 C3.966264,9.05676364 4.061304,9.29276364 4.263984,9.37894545 C4.314744,9.4004 4.366944,9.41058182 4.418784,9.41058182 C4.574304,9.41058182 4.722264,9.31821818 4.786344,9.1644 L5.252544,8.04658182 L8.281584,8.04658182 L8.748144,9.1644 C8.812224,9.31821818 8.960184,9.41058182 9.115704,9.41058182 C9.167184,9.41058182 9.220104,9.4004 9.270864,9.37894545 C9.473544,9.29276364 9.568584,9.05676364 9.482904,8.85130909 L7.145424,3.24803636 Z" id="Fill-71"></path>
                <path d="M12.485736,3.00530909 C11.766456,2.87876364 11.050776,3.19512727 10.661976,3.81221818 C10.543176,3.99949091 10.598256,4.24821818 10.783656,4.36785455 C10.969056,4.48785455 11.216016,4.43294545 11.333736,4.24494545 C11.549736,3.90312727 11.947896,3.72712727 12.348936,3.79912727 C12.737376,3.86712727 13.061016,4.18712727 13.136256,4.57621818 C13.243896,5.13803636 12.898296,5.57730909 12.499776,5.72094545 C12.062376,5.87876364 11.768976,6.29585455 11.768976,6.75912727 L11.768976,7.45003636 C11.768976,7.67258182 11.947176,7.85258182 12.167496,7.85258182 C12.388176,7.85258182 12.566376,7.67258182 12.566376,7.45003636 L12.566376,6.75912727 C12.566376,6.63512727 12.647736,6.52276364 12.767976,6.47912727 C13.605696,6.17730909 14.089536,5.31258182 13.918536,4.42276364 C13.780296,3.70130909 13.203936,3.13149091 12.485736,3.00530909" id="Fill-73"></path>
            </g>
        </g>
    </g>
</svg>