<svg width="24" height="24" xmlns="http://www.w3.org/2000/svg"><g fill="none" fill-rule="evenodd"><path fill="#FFF" d="M0 0h24v24H0z"/><g fill="#000"><path d="M19.781 12.757l-6.92 6.92a1.165 1.165 0 0 1-1.645 0l-6.921-6.92a1.165 1.165 0 0 1 0-1.646l6.92-6.92a1.162 1.162 0 0 1 1.646 0l6.92 6.92a1.165 1.165 0 0 1 0 1.646m.564-2.21l-6.92-6.92a1.964 1.964 0 0 0-2.773 0l-6.92 6.92a1.962 1.962 0 0 0 0 2.773l6.92 6.92c.382.383.884.574 1.387.574.501 0 1.004-.19 1.386-.573l6.92-6.92a1.963 1.963 0 0 0 0-2.773"/><path d="M15.845 11.778c-.004-.014-.004-.03-.01-.043-.005-.014-.018-.025-.026-.04-.018-.03-.036-.063-.062-.088l-.003-.004-2.512-2.393a.4.4 0 0 0-.55.578l1.79 1.705H8.11a.398.398 0 1 0 0 .797h6.45l-1.878 1.79a.398.398 0 1 0 .55.577l2.512-2.392a.393.393 0 0 0 .115-.33c.002-.015.01-.028.01-.043l-.002-.004c0-.038-.011-.074-.022-.11"/></g></g></svg>