<svg width="24" height="24" xmlns="http://www.w3.org/2000/svg"><g fill="none" fill-rule="evenodd"><path fill="#FFF" d="M0 0h24v24H0z"/><g fill="#000"><path d="M15.346 18.808H4.72c-.467 0-.901-.214-1.192-.586a1.565 1.565 0 0 1-.289-1.323c.545-2.336 2.276-4.274 4.517-5.058a.27.27 0 0 1 .343.17.275.275 0 0 1-.167.347c-2.068.723-3.665 2.512-4.168 4.667-.07.302-.002.615.188.858a.97.97 0 0 0 .768.377h10.627a.97.97 0 0 0 .768-.377c.19-.243.258-.557.188-.86a6.566 6.566 0 0 0-.591-1.577.276.276 0 0 1 .11-.37.268.268 0 0 1 .365.111 7.11 7.11 0 0 1 .64 1.71c.11.467.004.95-.288 1.326-.29.371-.724.585-1.192.585M7.603 9.347a.272.272 0 0 1-.27-.273c0-1.51 1.211-2.738 2.7-2.738.149 0 .27.123.27.274 0 .15-.121.274-.27.274-1.192 0-2.16.982-2.16 2.19a.271.271 0 0 1-.27.273"/><path d="M7.764 14.733a.272.272 0 0 1-.27-.273v-2.01c0-.151.121-.274.27-.274.15 0 .27.123.27.274v2.01a.27.27 0 0 1-.27.273"/><path d="M12.24 16.139a.272.272 0 0 1-.27-.274v-3.273a4.14 4.14 0 0 1-1.937.488c-2.179 0-3.951-1.797-3.951-4.006 0-2.21 1.772-4.006 3.95-4.006 1.752 0 3.313 1.19 3.798 2.895a.274.274 0 0 1-.185.338.269.269 0 0 1-.334-.187c-.418-1.471-1.766-2.499-3.278-2.499-1.881 0-3.411 1.552-3.411 3.459s1.53 3.458 3.41 3.458a3.53 3.53 0 0 0 2.049-.654.268.268 0 0 1 .281-.022c.09.047.147.141.147.244v3.765c0 .151-.12.274-.27.274"/><path d="M12.907 16.177a.672.672 0 0 1-.668.677.672.672 0 0 1-.667-.677c0-.373.298-.676.667-.676.369 0 .668.303.668.676m-4.229 1.191h-.346a.272.272 0 0 1-.27-.273c0-.151.121-.274.27-.274h.346a.05.05 0 0 0 .05-.05v-.887a.972.972 0 0 0-.964-.977.972.972 0 0 0-.963.977v.886a.05.05 0 0 0 .05.051h.346c.149 0 .27.123.27.274 0 .15-.121.273-.27.273H6.85a.594.594 0 0 1-.59-.598v-.886c0-.84.674-1.524 1.503-1.524.83 0 1.504.683 1.504 1.524v.886c0 .33-.265.598-.59.598m6.523-3.369c.506 0 1.01.08 1.491.243l.175.059a.31.31 0 0 0 .2 0l.174-.059a4.67 4.67 0 0 1 2.973 0l.005-4.867-.175-.062a4.13 4.13 0 0 0-2.632 0l-.174.059a.851.851 0 0 1-.542 0l-.174-.059a4.126 4.126 0 0 0-2.632 0l-.173.059-.002 4.867c.48-.16.984-.24 1.486-.24m1.766.866a.852.852 0 0 1-.27-.045l-.175-.059a4.128 4.128 0 0 0-2.632 0 .54.54 0 0 1-.49-.075.555.555 0 0 1-.225-.447V9.375a.55.55 0 0 1 .372-.522l.173-.059a4.666 4.666 0 0 1 2.972 0l.175.059a.31.31 0 0 0 .2 0l.174-.059a4.67 4.67 0 0 1 2.973 0l.173.059a.55.55 0 0 1 .371.522v4.864a.555.555 0 0 1-.225.447.539.539 0 0 1-.49.075 4.133 4.133 0 0 0-2.631 0l-.174.06a.855.855 0 0 1-.271.044"/><path d="M16.966 14.659a.272.272 0 0 1-.27-.274V9.41c0-.151.12-.274.27-.274.149 0 .27.123.27.274v4.975a.272.272 0 0 1-.27.274"/></g></g></svg>