<svg width="24" height="24" xmlns="http://www.w3.org/2000/svg"><g fill="none" fill-rule="evenodd"><path fill="#FFF" d="M0 0h24v24H0z"/><g fill="#000"><path d="M17.755 17.071H16.1v.81c0 .226.028.383.085.47.057.088.155.131.293.131.144 0 .244-.037.301-.111.057-.075.087-.237.087-.49v-.195h.89v.22c0 .44-.107.772-.326.995-.216.222-.54.333-.972.333-.388 0-.694-.119-.916-.355-.222-.234-.334-.56-.334-.974v-1.929c0-.371.122-.676.368-.91.245-.235.56-.352.948-.352.396 0 .7.108.913.325.213.218.32.53.32.937v1.095zm-3.002 1.158c0 .303-.068.536-.204.7-.134.162-.332.243-.588.243-.17 0-.32-.031-.453-.095a1.097 1.097 0 0 1-.37-.29v.328h-.875v-5.821h.875v1.875c.117-.13.241-.23.37-.298a.853.853 0 0 1 .4-.102c.275 0 .484.09.628.273.145.183.217.452.217.804v2.383zm-3.14.886h-.867v-.47a1.84 1.84 0 0 1-.5.397 1.05 1.05 0 0 1-.503.137c-.2 0-.35-.064-.452-.192-.1-.128-.152-.319-.152-.575V14.82h.866v3.296c0 .102.018.175.054.22.037.047.097.068.177.068.063 0 .144-.03.242-.09s.187-.137.268-.231V14.82h.866v4.295zM8.758 14.14h-1.01v4.975h-.976V14.14H5.765v-.846h2.994v.846zm8.58-1.94H6.477c-1.726 0-3.126 1.39-3.126 3.102v2.492c0 1.71 1.4 3.1 3.126 3.1h10.862c1.726 0 3.126-1.39 3.126-3.1v-2.492c0-1.712-1.4-3.101-3.126-3.101z"/><path d="M16.485 15.465c-.139 0-.236.04-.296.12-.061.075-.09.204-.09.384v.434h.765v-.434c0-.18-.03-.31-.09-.385-.059-.08-.157-.119-.289-.119M13.5 15.45a.43.43 0 0 0-.183.043.61.61 0 0 0-.179.13V18.3c.07.069.138.122.205.152.067.03.136.047.21.047.106 0 .183-.03.232-.092.05-.061.076-.159.076-.296v-2.218c0-.146-.03-.255-.091-.33a.337.337 0 0 0-.27-.112m-5.6-4.742h1.096V8.047l1.278-3.753H9.158L8.48 6.858h-.07l-.712-2.564H6.593l1.306 3.873zm3.456-3.687a.32.32 0 0 1 .11-.25.436.436 0 0 1 .291-.095c.129 0 .234.03.313.095a.309.309 0 0 1 .119.25V9.6a.386.386 0 0 1-.118.3.437.437 0 0 1-.314.108c-.129 0-.228-.034-.297-.107a.416.416 0 0 1-.104-.3v-2.58zm.404 3.806c.443 0 .791-.115 1.044-.346.252-.231.378-.547.378-.952V7.085c0-.36-.13-.656-.385-.885-.259-.227-.589-.343-.993-.343-.443 0-.796.109-1.058.326-.262.217-.393.507-.393.876V9.51c0 .402.128.72.384.96.255.238.597.357 1.023.357zm2.893-.05c.183 0 .371-.053.565-.153.195-.1.383-.248.561-.44v.524h.975V5.978h-.975v3.59c-.09.103-.19.188-.3.255a.571.571 0 0 1-.272.1c-.091 0-.159-.025-.198-.077-.04-.05-.063-.13-.063-.241V5.978h-.973v3.954c0 .281.057.492.17.632.116.141.284.214.51.214"/></g></g></svg>