<svg width="24" height="24" xmlns="http://www.w3.org/2000/svg"><g fill="none" fill-rule="evenodd"><path fill="#FFF" d="M0 0h24v24H0z"/><path d="M20.086 18.708c0 .75-.598 1.36-1.334 1.36H5.247c-.735 0-1.333-.61-1.333-1.36v-9.03c0-.645.444-1.184 1.037-1.323v5.436c0 .964.77 1.749 1.714 1.749H8.1v.889c0 .257.204.466.457.466a.461.461 0 0 0 .457-.466v-.89h5.972v.89c0 .257.204.466.457.466a.462.462 0 0 0 .457-.466v-.89h1.434c.946 0 1.715-.784 1.715-1.748V8.355a1.354 1.354 0 0 1 1.037 1.323v9.03zM8.514 6.56c0-.897.613-1.627 1.365-1.627h4.242c.752 0 1.364.73 1.364 1.627v.827h-6.97V6.56zm6.929 6.622a.462.462 0 0 0-.457.467v.96H9.014v-.96a.461.461 0 0 0-.457-.467.461.461 0 0 0-.457.467v.96H6.665a.81.81 0 0 1-.8-.817V8.319h12.27v5.472a.81.81 0 0 1-.8.817H15.9v-.96a.462.462 0 0 0-.457-.467zm3.31-5.795H16.4V6.56C16.4 5.15 15.377 4 14.12 4H9.88C8.622 4 7.6 5.148 7.6 6.56v.826H5.247C4.008 7.386 3 8.415 3 9.678v9.03C3 19.972 4.008 21 5.247 21h13.505C19.992 21 21 19.972 21 18.708v-9.03c0-1.263-1.008-2.292-2.248-2.292z" fill="#000"/></g></svg>