<svg width="24" height="24" xmlns="http://www.w3.org/2000/svg"><g fill="none" fill-rule="evenodd"><path fill="#FFF" d="M0 0h24v24H0z"/><g fill="#000"><path d="M12.09 10.959c-1.694 0-3.068-1.35-3.068-3.013 0-1.664 1.374-3.013 3.069-3.013 1.694 0 3.068 1.349 3.068 3.013s-1.374 3.013-3.068 3.013m0-7.684c-3.097 0-5.339 2.902-4.503 5.83l3.034 10.623c.429 1.505 2.604 1.497 3.022-.01l2.958-10.645c.81-2.92-1.428-5.798-4.511-5.798"/><path d="M13.274 7.44h-.71v-.696a.457.457 0 0 0-.461-.453.457.457 0 0 0-.462.453v.697h-.71a.457.457 0 0 0-.46.453c0 .25.206.452.46.452h.71v.698c0 .25.207.453.462.453a.457.457 0 0 0 .461-.453v-.698h.71a.457.457 0 0 0 .462-.452.457.457 0 0 0-.462-.453"/></g></g></svg>