<?xml version="1.0" encoding="UTF-8"?>
<svg width="24px" height="24px" viewBox="0 0 24 24" version="1.1" xmlns="http://www.w3.org/2000/svg" xmlns:xlink="http://www.w3.org/1999/xlink">
    <!-- Generator: Sketch 48.2 (47327) - http://www.bohemiancoding.com/sketch -->
    <title>icon_appointment</title>
    <desc>Created with Sketch.</desc>
    <defs></defs>
    <g id="Icons" stroke="none" stroke-width="1" fill="none" fill-rule="evenodd">
        <g id="icon_appointment">
            <rect id="Rectangle" fill="#FFFFFF" x="0" y="0" width="24" height="24"></rect>
            <g id="Group-15" transform="translate(2.000000, 5.000000)" fill="#000000">
                <path d="M12.5522769,0.0270468085 C11.6085846,0.0270468085 10.6913538,0.2016 9.8252,0.545940426 C9.66027692,0.611174468 9.58150769,0.794068085 9.6492,0.953429787 C9.71689231,1.11308936 9.90612308,1.1902383 10.0704308,1.12381277 C10.7735077,0.844408511 11.5153538,0.695174468 12.2768923,0.664791489 L12.2768923,1.7243234 C12.2768923,1.89708936 12.4215077,2.03679149 12.5996615,2.03679149 C12.7781231,2.03679149 12.9227385,1.89708936 12.9227385,1.7243234 L12.9227385,0.670153191 C16.2492,0.851855319 18.9125846,3.44513191 19.0762769,6.67138723 L17.7273538,6.67138723 C17.5488923,6.67138723 17.4045846,6.81108936 17.4045846,6.98355745 C17.4045846,7.15662128 17.5488923,7.2963234 17.7273538,7.2963234 L19.0762769,7.2963234 C18.9125846,10.5225787 16.2492,13.1155574 12.9227385,13.2972596 L12.9227385,12.2147915 C12.9227385,12.0420255 12.7781231,11.9023234 12.5996615,11.9023234 C12.4215077,11.9023234 12.2768923,12.0420255 12.2768923,12.2147915 L12.2768923,13.3044085 C11.6292,13.2784936 10.9932,13.1664936 10.3842769,12.9597702 C10.2162769,12.9016851 10.0319692,12.9877702 9.97289231,13.1510043 C9.91381538,13.3136426 10.0024308,13.492366 10.1707385,13.5492596 C10.9344308,13.8090043 11.7356615,13.940366 12.5522769,13.940366 C16.5147385,13.940366 19.7381231,10.8195574 19.7381231,6.98355745 C19.7381231,3.14785532 16.5147385,0.0270468085 12.5522769,0.0270468085" id="Fill-49"></path>
                <path d="M12.5898462,3.3030766 C12.4113846,3.3030766 12.2670769,3.44277872 12.2670769,3.61554468 L12.2670769,6.2311617 C11.9455385,6.35686383 11.7181538,6.66069362 11.7181538,7.01724681 C11.7181538,7.4858 12.1107692,7.86558723 12.5950769,7.86558723 C12.9535385,7.86558723 13.2609231,7.65677872 13.3966154,7.35831064 L14.952,7.35831064 C15.1304615,7.35831064 15.2747692,7.21860851 15.2747692,7.04554468 C15.2747692,6.8730766 15.1304615,6.73337447 14.952,6.73337447 L13.4175385,6.73337447 C13.3323077,6.50192766 13.1483077,6.31724681 12.9126154,6.22818298 L12.9126154,3.61554468 C12.9126154,3.44277872 12.7683077,3.3030766 12.5898462,3.3030766" id="Fill-51"></path>
                <path d="M1.02193846,11.3696085 C0.881323077,11.1977362 0.830861538,10.9758213 0.883476923,10.7616511 C1.2564,9.2341617 2.36224615,7.94318298 3.82316923,7.28577872 L3.82316923,8.55322553 C3.23086154,8.69441702 2.78870769,9.20973617 2.78870769,9.82603404 L2.78870769,10.5361617 C2.78870769,10.8519064 3.05393846,11.1086723 3.38009231,11.1086723 L3.66993846,11.1086723 C3.8484,11.1086723 3.99270769,10.9689702 3.99270769,10.7962043 C3.99270769,10.6234383 3.8484,10.4837362 3.66993846,10.4837362 L3.43424615,10.4837362 L3.43424615,9.82603404 C3.43424615,9.44594894 3.75332308,9.13645957 4.14624615,9.13645957 C4.53886154,9.13645957 4.85824615,9.44594894 4.85824615,9.82603404 L4.85824615,10.4837362 L4.62255385,10.4837362 C4.44409231,10.4837362 4.29947692,10.6234383 4.29947692,10.7962043 C4.29947692,10.9689702 4.44409231,11.1086723 4.62255385,11.1086723 L4.9124,11.1086723 C5.23824615,11.1086723 5.50378462,10.8519064 5.50378462,10.5361617 L5.50378462,9.82603404 C5.50378462,9.20973617 5.06132308,8.69441702 4.46901538,8.55322553 L4.46901538,7.29441702 C4.94193846,7.53509787 5.47886154,7.67301277 6.04932308,7.67301277 C6.59916923,7.67301277 7.11763077,7.5434383 7.57824615,7.31884255 L7.57824615,9.61931064 C7.43486154,9.71760851 7.34070769,9.87845957 7.34070769,10.0613532 C7.34070769,10.3607149 7.59147692,10.6034809 7.90070769,10.6034809 C8.21024615,10.6034809 8.46101538,10.3607149 8.46101538,10.0613532 C8.46101538,9.87845957 8.36686154,9.71760851 8.22347692,9.61931064 L8.22347692,7.26254468 C9.71055385,7.9128 10.8367077,9.21301277 11.2154769,10.7604596 C11.2677846,10.9752255 11.2176308,11.1974383 11.0767077,11.3699064 C10.9382462,11.5390979 10.7305538,11.6365021 10.5071692,11.6365021 L1.59147692,11.6365021 C1.36809231,11.6365021 1.16070769,11.5390979 1.02193846,11.3696085 M6.04932308,1.69322553 C7.57455385,1.69322553 8.81516923,2.89424681 8.81516923,4.37050213 C8.81516923,5.23760851 8.38563077,6.00760851 7.72347692,6.49701277 C7.67609231,6.51667234 7.63455385,6.5461617 7.60132308,6.58548085 C7.15855385,6.87709787 6.6244,7.0480766 6.04932308,7.0480766 C4.5244,7.0480766 3.28378462,5.84705532 3.28378462,4.37050213 C3.28378462,2.89424681 4.5244,1.69322553 6.04932308,1.69322553 M11.5825538,11.7577362 C11.8468615,11.4345447 11.9416308,11.0187149 11.8434769,10.6165872 C11.4179385,8.87671489 10.1496308,7.41505532 8.4764,6.68794894 C9.0844,6.09131064 9.46070769,5.27305532 9.46070769,4.37050213 C9.46070769,2.54960851 7.93055385,1.06828936 6.04932308,1.06828936 C4.16870769,1.06828936 2.63824615,2.54960851 2.63824615,4.37050213 C2.63824615,5.27275745 3.01486154,6.09101277 3.62255385,6.68765106 C1.94932308,7.41505532 0.679476923,8.87999149 0.255169231,10.6177787 C0.157015385,11.0193106 0.251784615,11.4345447 0.515476923,11.7574383 C0.777323077,12.0776511 1.16932308,12.2614383 1.59147692,12.2614383 L10.5071692,12.2614383 C10.9290154,12.2614383 11.3213231,12.0776511 11.5825538,11.7577362" id="Fill-53"></path>
                <path d="M4.33338462,4.37050213 C4.33338462,3.45454468 5.10292308,2.70926809 6.04938462,2.70926809 C6.22784615,2.70926809 6.37215385,2.56956596 6.37215385,2.3968 C6.37215385,2.22403404 6.22784615,2.08433191 6.04938462,2.08433191 C4.74723077,2.08433191 3.68784615,3.10990638 3.68784615,4.37050213 C3.68784615,4.54326809 3.83215385,4.68297021 4.01061538,4.68297021 C4.18907692,4.68297021 4.33338462,4.54326809 4.33338462,4.37050213" id="Fill-55"></path>
            </g>
        </g>
    </g>
</svg>