<svg width="24" height="24" xmlns="http://www.w3.org/2000/svg"><g fill="none" fill-rule="evenodd"><path fill="#FFF" d="M0 0h24v24H0z"/><path d="M17.074 20.3H6.927c-.687 0-1.245-.572-1.245-1.276v-.644a1.445 1.445 0 0 0 2.167.111.475.475 0 0 0 .027-.023c.537-.657 1.17-1.85 1.734-2.94 1.3-.524 2.662-1.058 3.976-1.378.96.793 2.348 1.317 3.49 1.317a1.46 1.46 0 0 0 1.242-.715v4.272c0 .704-.558 1.277-1.244 1.277m-8.758-4.246c-.412.755-.823 1.46-1.11 1.816a.552.552 0 0 1-.403.155.588.588 0 0 1-.587-.602c0-.16.066-.317.156-.419.344-.273 1.093-.6 1.944-.95m2.821-6.99c-.365-.869-.665-1.704-.665-2.177 0-.338.258-.602.587-.602.33 0 .587.264.587.602 0 .452-.236 1.284-.509 2.178m.174 2.37c.442.72.959 1.39 1.523 1.985-.87.244-1.72.557-2.56.884.406-.937.73-1.91 1.037-2.869m6.352 2.526a.588.588 0 0 1-.587.602c-.66 0-1.6-.306-2.352-.734.862-.25 1.803-.47 2.352-.47.33 0 .587.264.587.602M6.927 3.7h7.23c.055 0 .11.011.165.017V5.75c0 1.09.865 1.976 1.927 1.976h2.04c.018.102.029.205.029.31v5.135a1.461 1.461 0 0 0-1.242-.714c-.916 0-2.247.335-3.265.687a11.116 11.116 0 0 1-2.128-2.841c.39-1.23.844-2.46.844-3.415 0-.826-.662-1.505-1.468-1.505-.805 0-1.468.68-1.468 1.505 0 1.027.557 2.301 1.143 3.5-.458 1.47-.978 3.044-1.643 4.374-1.36.547-2.572.954-3.302 1.557a.412.412 0 0 0-.032.037c-.028.03-.05.064-.075.096V4.976c0-.704.558-1.276 1.245-1.276m11.411 2.667l-2.511-2.644A2.317 2.317 0 0 0 14.157 3h-7.23C5.864 3 5 3.887 5 4.976v14.048C5 20.114 5.864 21 6.927 21h10.147C18.136 21 19 20.114 19 19.024V8.036a2.41 2.41 0 0 0-.662-1.669" fill="#000"/></g></svg>