<?xml version="1.0" encoding="UTF-8"?>
<svg width="24px" height="24px" viewBox="0 0 24 24" version="1.1" xmlns="http://www.w3.org/2000/svg" xmlns:xlink="http://www.w3.org/1999/xlink">
    <!-- Generator: Sketch 48.2 (47327) - http://www.bohemiancoding.com/sketch -->
    <title>icon_provider_interests</title>
    <desc>Created with Sketch.</desc>
    <defs></defs>
    <g id="Icons" stroke="none" stroke-width="1" fill="none" fill-rule="evenodd">
        <g id="icon_provider_interests">
            <rect id="Rectangle" fill="#FFFFFF" x="0" y="0" width="24" height="24"></rect>
            <g id="Group-22" transform="translate(3.000000, 5.000000)" fill="#000000">
                <path d="M13.257591,14.7938839 L1.67929254,14.7938839 C1.17018806,14.7938839 0.696546269,14.5651339 0.380337313,14.1668304 C0.0619791045,13.7653125 -0.0530059701,13.2483482 0.0654716418,12.7487946 C0.658934328,10.2459375 2.54463582,8.16950893 4.98618806,7.32950893 C5.1398597,7.27727679 5.30696418,7.35790179 5.35988955,7.51111607 C5.41281493,7.6640625 5.33141194,7.8309375 5.17800896,7.88370536 C2.92505373,8.65861607 1.18523284,10.5745982 0.637710448,12.8835268 C0.560874627,13.2079018 0.635292537,13.5429911 0.841620896,13.8033482 C1.04553134,14.0602232 1.35099403,14.2075446 1.67929254,14.2075446 L13.257591,14.2075446 C13.5861582,14.2075446 13.8908149,14.0602232 14.0947254,13.8036161 C14.3013224,13.5429911 14.3754716,13.2068304 14.2986358,12.8819196 C13.7508448,10.5751339 12.0859791,8.7178125 9.84484478,7.91397321 C9.69224776,7.8590625 9.61299403,7.69111607 9.6678,7.53897321 C9.72287463,7.3865625 9.89051642,7.3078125 10.0441881,7.36245536 C12.4725761,8.23352679 14.2768746,10.2464732 14.8703373,12.7469196 C14.9893522,13.2475446 14.8749045,13.7650446 14.5557403,14.1670982 C14.2398,14.5651339 13.7669642,14.7938839 13.257591,14.7938839" id="Fill-215"></path>
                <path d="M7.46833433,8.65671429 C5.09448358,8.65671429 3.16364776,6.731625 3.16364776,4.36510714 C3.16364776,1.99832143 5.09448358,0.0729642857 7.46833433,0.0729642857 C8.33099104,0.0729642857 9.16328955,0.326357143 9.87522985,0.806089286 C10.0098269,0.896625 10.0452896,1.07903571 9.95448358,1.21296429 C9.86367761,1.34689286 9.68072239,1.38278571 9.54612537,1.29198214 C8.93143881,0.877875 8.21278209,0.659303571 7.46833433,0.659303571 C5.4190209,0.659303571 3.75146866,2.321625 3.75146866,4.36510714 C3.75146866,6.40805357 5.4190209,8.07064286 7.46833433,8.07064286 C8.60260299,8.07064286 9.66057313,7.56385714 10.3706328,6.68019643 C10.4721851,6.55430357 10.6567522,6.53367857 10.7835582,6.63492857 C10.9106328,6.73617857 10.9310507,6.92073214 10.8292299,7.04689286 C10.0068716,8.07010714 8.78206567,8.65671429 7.46833433,8.65671429" id="Fill-217"></path>
                <path d="M4.82034627,4.65792857 C4.65807761,4.65792857 4.52643582,4.52694643 4.52643582,4.36489286 C4.52643582,2.74757143 5.84607761,1.43185714 7.46822687,1.43185714 C7.63076418,1.43185714 7.76213731,1.56310714 7.76213731,1.72489286 C7.76213731,1.88667857 7.63076418,2.01819643 7.46822687,2.01819643 C6.17034627,2.01819643 5.11452537,3.070875 5.11452537,4.36489286 C5.11452537,4.52694643 4.98288358,4.65792857 4.82034627,4.65792857" id="Fill-219"></path>
                <path d="M4.99663881,10.4286429 C4.83437015,10.4286429 4.70272836,10.2976607 4.70272836,10.1356071 L4.70272836,7.98203571 C4.70272836,7.82025 4.83437015,7.689 4.99663881,7.689 C5.15890746,7.689 5.29081791,7.82025 5.29081791,7.98203571 L5.29081791,10.1356071 C5.29081791,10.2976607 5.15890746,10.4286429 4.99663881,10.4286429" id="Fill-221"></path>
                <path d="M9.87235522,11.9345625 C9.71008657,11.9345625 9.57844478,11.8033125 9.57844478,11.6412589 L9.57844478,7.9820625 C9.57844478,7.82027679 9.71008657,7.68902679 9.87235522,7.68902679 C10.0348925,7.68902679 10.1665343,7.82027679 10.1665343,7.9820625 L10.1665343,11.6412589 C10.1665343,11.8033125 10.0348925,11.9345625 9.87235522,11.9345625" id="Fill-223"></path>
                <path d="M10.599609,11.975625 C10.599609,12.3760714 10.273997,12.7009821 9.87235522,12.7009821 C9.47071343,12.7009821 9.14483284,12.3760714 9.14483284,11.975625 C9.14483284,11.5751786 9.47071343,11.2505357 9.87235522,11.2505357 C10.273997,11.2505357 10.599609,11.5751786 10.599609,11.975625" id="Fill-225"></path>
                <path d="M5.99203881,13.2516161 L5.61538209,13.2516161 C5.45284478,13.2516161 5.32147164,13.1203661 5.32147164,12.9585804 C5.32147164,12.7967946 5.45284478,12.6655446 5.61538209,12.6655446 L5.99203881,12.6655446 C6.02212836,12.6655446 6.04657612,12.6411696 6.04657612,12.6109018 L6.04657612,11.6613482 C6.04657612,11.0838482 5.57535224,10.6142946 4.99666567,10.6142946 C4.4179791,10.6142946 3.94675522,11.0838482 3.94675522,11.6613482 L3.94675522,12.6109018 C3.94675522,12.6411696 3.97147164,12.6655446 4.00156119,12.6655446 L4.37794925,12.6655446 C4.54048657,12.6655446 4.67212836,12.7967946 4.67212836,12.9585804 C4.67212836,13.1203661 4.54048657,13.2516161 4.37794925,13.2516161 L4.00156119,13.2516161 C3.64693433,13.2516161 3.35866567,12.9644732 3.35866567,12.6109018 L3.35866567,11.6613482 C3.35866567,10.7608125 4.09371045,10.0282232 4.99666567,10.0282232 C5.89988955,10.0282232 6.63466567,10.7608125 6.63466567,11.6613482 L6.63466567,12.6109018 C6.63466567,12.9644732 6.34612836,13.2516161 5.99203881,13.2516161" id="Fill-227"></path>
                <path d="M10.2514567,2.07091071 L10.2544119,2.07091071 L10.2514567,2.07091071 Z M11.5168299,1.89198214 C11.1305015,1.89198214 10.7492776,2.0235 10.4462328,2.29055357 C10.099397,2.59617857 9.90032239,3.01457143 9.88688955,3.46939286 C9.8729194,3.92448214 10.0448597,4.35358929 10.3707403,4.67796429 L13.2335463,7.52796429 C13.3998448,7.69376786 13.6714567,7.69403571 13.8380239,7.52823214 L16.6516657,4.73341071 C16.9810388,4.406625 17.1672179,3.94992857 17.1621134,3.48064286 C17.1572776,3.03760714 16.9853373,2.63260714 16.6782627,2.34010714 C16.0238149,1.71680357 15.0093672,1.72805357 14.3678149,2.36501786 L13.539009,3.18814286 L12.7518448,2.406 C12.4085015,2.06528571 11.9598448,1.89198214 11.5168299,1.89198214 Z M13.5360537,8.23832143 C13.275994,8.23832143 13.0156657,8.13975 12.8176657,7.94260714 L9.95512836,5.092875 C9.51318806,4.65305357 9.28026269,4.07019643 9.29906866,3.45144643 C9.31760597,2.8335 9.5868,2.265375 10.0566806,1.85153571 C10.9397552,1.07314286 12.305606,1.13528571 13.1669194,1.99055357 L13.539009,2.36073214 L13.9527403,1.94957143 C14.8229194,1.08653571 16.1981731,1.07180357 17.084203,1.91608929 C17.5070687,2.31867857 17.7437552,2.87207143 17.7499343,3.47421429 C17.7566507,4.10046429 17.507606,4.71064286 17.067009,5.14885714 L14.2533672,7.94341071 C14.0553672,8.14001786 13.7953075,8.23832143 13.5360537,8.23832143 Z" id="Fill-229"></path>
            </g>
        </g>
    </g>
</svg>