<svg width="24" height="24" xmlns="http://www.w3.org/2000/svg"><g fill="none" fill-rule="evenodd"><path fill="#FFF" d="M0 0h24v24H0z"/><g fill="#000"><path d="M13.689 13.95a4.526 4.526 0 0 1-1.145.146c-2.422 0-4.393-1.916-4.393-4.27 0-2.355 1.97-4.271 4.393-4.271a.396.396 0 0 0 .401-.39c0-.216-.18-.39-.401-.39-2.865 0-5.195 2.265-5.195 5.05a4.94 4.94 0 0 0 1.253 3.28l-5.313 5.167a.382.382 0 0 0 0 .551.406.406 0 0 0 .568 0l5.312-5.165a5.255 5.255 0 0 0 3.375 1.218c.459 0 .913-.058 1.353-.173a.39.39 0 0 0 .284-.478.402.402 0 0 0-.492-.275m3.434-3.901c-1.293 0-2.342-1.02-2.342-2.278s1.049-2.278 2.342-2.278c1.294 0 2.343 1.02 2.343 2.278s-1.049 2.278-2.343 2.278m0-5.81c-2.364 0-4.075 2.195-3.437 4.408l2.316 8.031c.327 1.138 1.988 1.132 2.308-.008l2.258-8.047c.619-2.207-1.09-4.383-3.445-4.383"/><path d="M18.153 7.378h-.617v-.6c0-.216-.18-.39-.402-.39a.396.396 0 0 0-.401.39v.6h-.618a.396.396 0 0 0-.401.39c0 .216.18.39.401.39h.618v.6c0 .216.18.39.401.39a.396.396 0 0 0 .402-.39v-.6h.617a.396.396 0 0 0 .402-.39c0-.215-.18-.39-.402-.39"/></g></g></svg>