<?xml version="1.0" encoding="UTF-8"?>
<svg width="24px" height="24px" viewBox="0 0 24 24" version="1.1" xmlns="http://www.w3.org/2000/svg" xmlns:xlink="http://www.w3.org/1999/xlink">
    <!-- Generator: Sketch 48.2 (47327) - http://www.bohemiancoding.com/sketch -->
    <title>icon_clinic_locations</title>
    <desc>Created with Sketch.</desc>
    <defs></defs>
    <g id="Icons" stroke="none" stroke-width="1" fill="none" fill-rule="evenodd">
        <g id="icon_clinic_locations">
            <rect id="Rectangle" fill="#FFFFFF" x="0" y="0" width="24" height="24"></rect>
            <g id="Group-9" transform="translate(7.000000, 3.000000)" fill="#000000">
                <path d="M5.09075,7.9587 C3.39575,7.9587 2.022,6.60992727 2.022,4.94574545 C2.022,3.28156364 3.39575,1.93279091 5.09075,1.93279091 C6.78533333,1.93279091 8.15908333,3.28156364 8.15908333,4.94574545 C8.15908333,6.60992727 6.78533333,7.9587 5.09075,7.9587 M5.09075,0.274745455 C1.99366667,0.274745455 -0.247583333,3.17683636 0.58825,6.10429091 L3.62158333,16.7283818 C4.05075,18.2326091 6.22616667,18.2252455 6.6445,16.7177455 L9.60158333,6.0732 C10.4128333,3.1527 8.17366667,0.274745455 5.09075,0.274745455" id="Fill-57"></path>
                <path d="M6.27441667,4.44068182 L5.56441667,4.44068182 L5.56441667,3.744 C5.56441667,3.49363636 5.35816667,3.29072727 5.10275,3.29072727 C4.84816667,3.29072727 4.6415,3.49363636 4.6415,3.744 L4.6415,4.44068182 L3.93191667,4.44068182 C3.67691667,4.44068182 3.47066667,4.64318182 3.47066667,4.89354545 C3.47066667,5.14390909 3.67691667,5.34640909 3.93191667,5.34640909 L4.6415,5.34640909 L4.6415,6.04390909 C4.6415,6.29427273 4.84816667,6.49677273 5.10275,6.49677273 C5.35816667,6.49677273 5.56441667,6.29427273 5.56441667,6.04390909 L5.56441667,5.34640909 L6.27441667,5.34640909 C6.52941667,5.34640909 6.73566667,5.14390909 6.73566667,4.89354545 C6.73566667,4.64318182 6.52941667,4.44068182 6.27441667,4.44068182" id="Fill-59"></path>
            </g>
        </g>
    </g>
</svg>