<svg width="18" height="17" xmlns="http://www.w3.org/2000/svg"><g fill="none" fill-rule="evenodd"><path d="M-3-4h24v24H-3z"/><g fill="#000"><path d="M17.144 14.266c0 1.097-.878 1.99-1.957 1.99H2.812c-1.079 0-1.956-.893-1.956-1.99V6.384c0-1.097.877-1.99 1.956-1.99h1.677c.03.009.059.02.091.02s.062-.011.092-.02h8.655c.03.009.06.02.092.02s.061-.011.09-.02h1.678c1.08 0 1.957.893 1.957 1.99v7.882zM4.936 2.749c0-.946.757-1.715 1.687-1.715h4.753c.93 0 1.687.77 1.687 1.715v.922H4.936v-.922zm10.251.922h-1.412v-.922c0-1.345-1.076-2.44-2.399-2.44H6.623C5.3.31 4.224 1.405 4.224 2.75v.922H2.812C1.34 3.67.144 4.888.144 6.384v7.882c0 1.496 1.196 2.714 2.668 2.714h12.375c1.472 0 2.669-1.218 2.669-2.714V6.384c0-1.496-1.197-2.713-2.669-2.713z"/><path d="M9.355 11.144V9.516a.907.907 0 0 1 0 1.628zM8.15 12.73c0-.328.207-.605.494-.711v1.421a.757.757 0 0 1-.494-.71zm3.52-5.504a.701.701 0 0 0-.934 0L9.356 8.38v-.756a.896.896 0 0 0 .524-.818A.888.888 0 0 0 9 5.91a.888.888 0 0 0-.881.896c0 .365.216.679.525.818v.757L7.263 7.225a.7.7 0 0 0-.934 0L4.904 8.421c-.215.18-.246.506-.165.734.076.216.249.35.451.35h1.612a.359.359 0 0 0 .356-.362.36.36 0 0 0-.356-.362H5.598l1.213-.997 1.361 1.139a1.63 1.63 0 0 0-.807 1.407c0 .2.16.362.356.362a.359.359 0 0 0 .356-.362c0-.383.235-.71.567-.843v1.785a1.475 1.475 0 0 0-1.205 1.457c0 .729.521 1.333 1.205 1.455v.557c0 .2.159.362.356.362a.359.359 0 0 0 .355-.362v-.575c.261-.066.582-.216.862-.553a.367.367 0 0 0-.042-.51.353.353 0 0 0-.502.042.97.97 0 0 1-.318.254v-1.49a1.633 1.633 0 1 0 .453-2.963l1.41-1.162 1.188.997h-1.209a.359.359 0 0 0-.356.362c0 .2.16.362.356.362h1.612c.202 0 .375-.134.451-.35.08-.228.05-.554-.164-.734L11.67 7.225z"/></g></g></svg>