<svg width="24" height="24" xmlns="http://www.w3.org/2000/svg"><g fill="none" fill-rule="evenodd"><path fill="#FFF" d="M0 0h24v24H0z"/><g fill="#000"><path d="M12.272 14.477a2.864 2.864 0 0 1-2.86-2.86 2.864 2.864 0 0 1 2.86-2.86 2.864 2.864 0 0 1 2.86 2.86 2.864 2.864 0 0 1-2.86 2.86m0-7.313a4.459 4.459 0 0 0-4.454 4.453 4.459 4.459 0 0 0 4.454 4.453 4.459 4.459 0 0 0 4.454-4.453 4.459 4.459 0 0 0-4.454-4.453m4.621-1.12a1.012 1.012 0 1 0 0 2.023 1.012 1.012 0 0 0 0-2.023"/><path d="M19.334 15.26c0 1.065-.327 1.947-.946 2.552-.614.6-1.5.916-2.561.916h-7.11c-1.035 0-1.912-.32-2.533-.923-.637-.619-.975-1.512-.975-2.585V8.071c0-1.056.324-1.936.934-2.543.608-.605 1.484-.925 2.534-.925h7.19c1.043 0 1.92.328 2.534.947.61.615.933 1.487.933 2.521v7.19zm.198-10.833c-.92-.927-2.187-1.417-3.665-1.417h-7.19c-3.026 0-5.06 2.034-5.06 5.061v7.149c0 1.514.503 2.803 1.457 3.729.925.898 2.186 1.372 3.644 1.372h7.109c1.486 0 2.756-.473 3.674-1.369.934-.912 1.427-2.188 1.427-3.692V8.071c0-1.464-.483-2.724-1.396-3.644z"/></g></g></svg>