<svg width="24" height="24" xmlns="http://www.w3.org/2000/svg"><g fill="none" fill-rule="evenodd"><path fill="#FFF" d="M0 0h24v24H0z"/><g fill="#000"><path d="M8.22 9.505a2.326 2.326 0 0 1 2.313-2.333.29.29 0 0 0 .29-.291.29.29 0 0 0-.29-.292c-1.594 0-2.89 1.308-2.89 2.916 0 .16.129.291.289.291a.29.29 0 0 0 .288-.291"/><path d="M19.604 17.16H17.61a7.566 7.566 0 0 0-.731-1.568h2.215a.29.29 0 0 0 .289-.292.29.29 0 0 0-.29-.291H16.48a7.465 7.465 0 0 0-.585-.685h3.199a.29.29 0 0 0 .289-.29.29.29 0 0 0-.29-.292h-3.83a7.426 7.426 0 0 0-.98-.684h4.81a.29.29 0 0 0 .29-.292.29.29 0 0 0-.29-.291h-5.529c.201-.21.38-.44.536-.687.006 0 .01.003.015.003h4.979a.29.29 0 0 0 .289-.292.29.29 0 0 0-.29-.291H14.41c.095-.22.17-.448.227-.685h4.449l.01-.002c.018.001.035.006.053.006h1.043v6.04a.59.59 0 0 1-.587.593zm-2.56 1.728c-.2.256-.5.402-.823.402H4.845a1.04 1.04 0 0 1-.823-.402 1.072 1.072 0 0 1-.2-.914 6.997 6.997 0 0 1 3.994-4.787v1.975c-.75.139-1.32.8-1.32 1.596v.945c0 .35.283.636.63.636h.371a.29.29 0 0 0 .288-.29.29.29 0 0 0-.288-.292h-.37a.054.054 0 0 1-.054-.054v-.945c0-.573.463-1.04 1.032-1.04.568 0 1.031.467 1.031 1.04v.945c0 .03-.024.054-.053.054h-.37a.29.29 0 0 0-.29.291c0 .161.13.291.29.291h.37a.635.635 0 0 0 .631-.636v-.945c0-.795-.57-1.457-1.32-1.596V13.18a4.168 4.168 0 0 0 4.212.041v3.193a.72.72 0 0 0-.425.658c0 .398.32.721.714.721a.718.718 0 0 0 .715-.72.72.72 0 0 0-.426-.66V13.16a6.91 6.91 0 0 1 4.06 4.813c.076.323.003.657-.2.916zM6.881 9.505c0-2.032 1.639-3.684 3.652-3.684 2.014 0 3.652 1.652 3.652 3.684 0 2.031-1.638 3.684-3.652 3.684-2.013 0-3.652-1.653-3.652-3.684zm11.102-1.167V9.35c0 .216.062.416.163.59H14.74a4.29 4.29 0 0 0-.143-1.603h3.385zm2.6 1.493l-1.812-1.876a.658.658 0 0 0-.47-.2h-3.914c-.664-1.482-2.14-2.517-3.854-2.517-2.332 0-4.23 1.914-4.23 4.267a4.27 4.27 0 0 0 1.351 3.117A7.584 7.584 0 0 0 3.26 17.84a1.657 1.657 0 0 0 .309 1.41c.31.396.775.623 1.276.623h11.376c.5 0 .965-.227 1.276-.623.314-.4.427-.914.31-1.412l-.026-.095h1.823c.642 0 1.165-.527 1.165-1.175v-6.275a.661.661 0 0 0-.186-.462z"/></g></g></svg>