<svg width="24" height="24" xmlns="http://www.w3.org/2000/svg"><g fill="none" fill-rule="evenodd"><path fill="#FFF" d="M0 0h24v24H0z"/><path d="M12.454 3C7.499 3 5 6.553 5 9.516c0 1.794.679 3.389 2.136 3.983.238.099.453.004.522-.261.048-.182.162-.643.213-.837.069-.26.043-.352-.15-.581-.42-.495-.689-1.136-.689-2.046 0-2.634 1.973-4.994 5.135-4.994 2.801 0 4.34 1.711 4.34 3.996 0 3.008-1.331 5.546-3.307 5.546-1.091 0-1.907-.902-1.645-2.009.313-1.321.92-2.747.92-3.701 0-.853-.458-1.565-1.407-1.565-1.115 0-2.011 1.153-2.011 2.699 0 .984.333 1.65.333 1.65L8.048 17.08c-.399 1.687-.06 3.754-.031 3.963.017.124.175.153.248.06.102-.134 1.431-1.775 1.882-3.414.128-.463.734-2.867.734-2.867.363.693 1.422 1.3 2.548 1.3 3.353 0 5.628-3.056 5.628-7.146C19.057 5.882 16.436 3 12.454 3" fill="#000"/></g></svg>