<?xml version="1.0" encoding="UTF-8"?>
<svg width="24px" height="24px" viewBox="0 0 24 24" version="1.1" xmlns="http://www.w3.org/2000/svg" xmlns:xlink="http://www.w3.org/1999/xlink">
    <!-- Generator: Sketch 48.2 (47327) - http://www.bohemiancoding.com/sketch -->
    <title>icon_provider_interests_alt</title>
    <desc>Created with Sketch.</desc>
    <defs></defs>
    <g id="Icons" stroke="none" stroke-width="1" fill="none" fill-rule="evenodd">
        <g id="icon_provider_interests_alt">
            <rect id="Rectangle" fill="#FFFFFF" x="0" y="0" width="24" height="24"></rect>
            <g id="Group-23" transform="translate(3.000000, 5.000000)" fill="#000000">
                <path d="M12.3461014,13.807625 L1.71944384,13.807625 C1.25218356,13.807625 0.817717808,13.594125 0.52749863,13.222375 C0.235060274,12.847625 0.129772603,12.365125 0.238265753,11.898875 C0.782950685,9.562875 2.51390959,7.624875 4.75453973,6.840875 C4.89533425,6.792125 5.04919726,6.867375 5.0977726,7.010375 C5.14610137,7.153125 5.07163562,7.308875 4.93059452,7.358125 C2.86306027,8.081375 1.26599178,9.869625 0.763471233,12.024625 C0.692950685,12.327375 0.76149863,12.640125 0.950621918,12.883125 C1.1377726,13.122875 1.41837534,13.260375 1.71944384,13.260375 L12.3461014,13.260375 C12.647663,13.260375 12.9272795,13.122875 13.1144301,12.883375 C13.3042932,12.640125 13.3721014,12.326375 13.3015808,12.023125 C13.1731151,11.474625 12.9746219,10.943875 12.7107863,10.446125 C12.6402658,10.312875 12.6895808,10.146875 12.8207589,10.075625 C12.9529233,10.003875 13.1159096,10.054375 13.1861836,10.187375 C13.472211,10.726875 13.6874712,11.302375 13.8265397,11.897125 C13.9357726,12.364375 13.8304849,12.847375 13.5378,13.222625 C13.2478274,13.594125 12.8136082,13.807625 12.3461014,13.807625" id="Fill-203"></path>
                <path d="M4.60257534,4.3474 C4.45364384,4.3474 4.33257534,4.22515 4.33257534,4.0739 C4.33257534,2.5644 5.544,1.3364 7.03257534,1.3364 C7.182,1.3364 7.30257534,1.4589 7.30257534,1.6099 C7.30257534,1.7609 7.182,1.88365 7.03257534,1.88365 C5.84136986,1.88365 4.87232877,2.86615 4.87232877,4.0739 C4.87232877,4.22515 4.75150685,4.3474 4.60257534,4.3474" id="Fill-205"></path>
                <path d="M4.76440274,9.7334 C4.61522466,9.7334 4.49440274,9.61115 4.49440274,9.4599 L4.49440274,7.4499 C4.49440274,7.2989 4.61522466,7.1764 4.76440274,7.1764 C4.91333425,7.1764 5.03415616,7.2989 5.03415616,7.4499 L5.03415616,9.4599 C5.03415616,9.61115 4.91333425,9.7334 4.76440274,9.7334" id="Fill-207"></path>
                <path d="M9.23935068,11.138925 C9.0901726,11.138925 8.96935068,11.016425 8.96935068,10.865175 L8.96935068,7.591675 C8.38792603,7.904925 7.7051589,8.079675 7.03274795,8.079675 C4.85425479,8.079675 3.08187123,6.282675 3.08187123,4.073925 C3.08187123,1.864925 4.85425479,0.068175 7.03274795,0.068175 C8.78392603,0.068175 10.3454877,1.258425 10.8297616,2.962675 C10.8711863,3.107925 10.788337,3.259425 10.6453233,3.301175 C10.5008301,3.343425 10.3523918,3.259175 10.3112137,3.114175 C9.89302192,1.642925 8.54499452,0.615175 7.03274795,0.615175 C5.15187123,0.615175 3.62162466,2.166675 3.62162466,4.073925 C3.62162466,5.980925 5.15187123,7.532425 7.03274795,7.532425 C7.76754247,7.532425 8.51441918,7.294175 9.08104932,6.878425 C9.16340548,6.818175 9.27189863,6.809925 9.36214521,6.856425 C9.45214521,6.903175 9.50910411,6.997425 9.50910411,7.100175 L9.50910411,10.865175 C9.50910411,11.016425 9.38828219,11.138925 9.23935068,11.138925" id="Fill-209"></path>
                <path d="M9.90683014,11.17725 C9.90683014,11.551 9.60798082,11.85425 9.23910411,11.85425 C8.87047397,11.85425 8.57162466,11.551 8.57162466,11.17725 C8.57162466,10.8035 8.87047397,10.5005 9.23910411,10.5005 C9.60798082,10.5005 9.90683014,10.8035 9.90683014,11.17725" id="Fill-211"></path>
                <path d="M5.67796438,12.368175 L5.33226575,12.368175 C5.18308767,12.368175 5.06226575,12.245675 5.06226575,12.094675 C5.06226575,11.943675 5.18308767,11.821175 5.33226575,11.821175 L5.67796438,11.821175 C5.70558082,11.821175 5.72801918,11.798425 5.72801918,11.770175 L5.72801918,10.883925 C5.72801918,10.344925 5.29552603,9.906675 4.76440274,9.906675 C4.23327945,9.906675 3.8007863,10.344925 3.8007863,10.883925 L3.8007863,11.770175 C3.8007863,11.798425 3.82347123,11.821175 3.85108767,11.821175 L4.19653973,11.821175 C4.34571781,11.821175 4.46629315,11.943675 4.46629315,12.094675 C4.46629315,12.245675 4.34571781,12.368175 4.19653973,12.368175 L3.85108767,12.368175 C3.52560822,12.368175 3.26103288,12.100175 3.26103288,11.770175 L3.26103288,10.883925 C3.26103288,10.043425 3.93541644,9.359675 4.76440274,9.359675 C5.59314247,9.359675 6.2677726,10.043425 6.2677726,10.883925 L6.2677726,11.770175 C6.2677726,12.100175 6.00295068,12.368175 5.67796438,12.368175" id="Fill-213"></path>
                <path d="M12.2004247,8.998775 C12.7059041,8.998775 13.2108904,9.079775 13.6914658,9.242275 L13.8655479,9.301025 C13.9316301,9.323275 14.0006712,9.323275 14.0660137,9.301025 L14.2400959,9.242275 C15.1987808,8.918525 16.2546164,8.918275 17.2133014,9.242275 L17.2177397,4.375025 L17.0426712,4.313275 C16.1937123,4.026275 15.2591918,4.026275 14.4109726,4.313275 L14.2368904,4.372025 C14.0623151,4.431025 13.8694932,4.431025 13.6951644,4.372025 L13.520589,4.313275 C12.6718767,4.026275 11.7376027,4.026025 10.8893836,4.313275 L10.7162877,4.371525 L10.7138219,9.238775 C11.1941507,9.078775 11.6976575,8.998775 12.2004247,8.998775 M13.9659041,9.864525 C13.8741781,9.864525 13.7822055,9.849525 13.6951644,9.820275 L13.520589,9.761275 C12.6718767,9.474525 11.7376027,9.474025 10.8893836,9.761275 C10.7241781,9.816525 10.5412192,9.788775 10.3996849,9.685525 C10.2583973,9.582275 10.1740685,9.415275 10.1740685,9.238775 L10.1740685,4.375025 C10.1740685,4.137525 10.3237397,3.927525 10.5459041,3.852525 L10.7185068,3.794275 C11.6771918,3.470275 12.7327808,3.470025 13.6914658,3.794275 L13.8655479,3.853025 C13.9316301,3.875275 14.0006712,3.875275 14.0660137,3.853025 L14.2400959,3.794275 C15.1987808,3.470525 16.2546164,3.470275 17.2133014,3.794275 L17.3861507,3.852525 C17.6080685,3.927525 17.7572466,4.137525 17.7572466,4.375025 L17.7572466,9.238775 C17.7572466,9.415525 17.6729178,9.582525 17.5318767,9.685775 C17.390589,9.788525 17.2081233,9.817275 17.0426712,9.761275 C16.1937123,9.474525 15.2591918,9.474525 14.4109726,9.761275 L14.2368904,9.820275 C14.1496027,9.849525 14.0576301,9.864525 13.9659041,9.864525" id="Fill-231"></path>
                <path d="M13.9659288,9.6587 C13.8167507,9.6587 13.6959288,9.5362 13.6959288,9.3852 L13.6959288,4.4102 C13.6959288,4.25895 13.8167507,4.13645 13.9659288,4.13645 C14.1148603,4.13645 14.2356822,4.25895 14.2356822,4.4102 L14.2356822,9.3852 C14.2356822,9.5362 14.1148603,9.6587 13.9659288,9.6587" id="Fill-233"></path>
            </g>
        </g>
    </g>
</svg>