<svg width="18" height="13" xmlns="http://www.w3.org/2000/svg"><g fill="none" fill-rule="evenodd"><path d="M-3-6h24v24H-3z"/><g fill="#000"><path d="M8.861 8.598a4.14 4.14 0 0 1-1.044-.09 3.964 3.964 0 0 1-2.498-1.702 3.734 3.734 0 0 1-.524-2.912 3.845 3.845 0 0 1 1.758-2.418A4.076 4.076 0 0 1 9.56.969a.364.364 0 0 0 .436-.267.353.353 0 0 0-.276-.421 4.816 4.816 0 0 0-3.559.6A4.544 4.544 0 0 0 4.084 3.74 4.417 4.417 0 0 0 5.11 7.71L.276 12.388a.345.345 0 0 0 0 .499c.071.07.165.103.258.103a.369.369 0 0 0 .258-.103l4.83-4.676c.578.48 1.271.818 2.035.984a4.897 4.897 0 0 0 1.235.107.358.358 0 0 0 .35-.367.36.36 0 0 0-.38-.338"/><path d="M13.406 6.6c0 .612-.422 1.124-.996 1.295V5.307c.574.17.996.683.996 1.294m-2.704 3.234c0-.566.423-1.037.978-1.136v2.273c-.555-.1-.978-.57-.978-1.137m7.057-5.704L15.74 2.52a.892.892 0 0 0-1.145-.002l-2.184 1.74v-1.44c.41-.144.705-.522.705-.97 0-.571-.479-1.035-1.07-1.035-.591 0-1.07.464-1.07 1.036 0 .447.295.825.705.97v1.439l-2.184-1.74a.893.893 0 0 0-1.146.002L6.33 4.13c-.253.203-.287.577-.19.84.088.236.283.382.509.382h2.283A.359.359 0 0 0 9.297 5a.359.359 0 0 0-.365-.353H6.831l1.983-1.584c.081-.065.14-.064.219 0l2.085 1.66c-.735.327-1.249 1.044-1.249 1.878 0 .195.163.353.364.353a.359.359 0 0 0 .365-.353c0-.642.463-1.178 1.082-1.32v2.703c-.959.106-1.707.895-1.707 1.851s.748 1.747 1.707 1.852v.862c0 .195.163.353.365.353a.359.359 0 0 0 .365-.353v-.884c.361-.068.838-.25 1.252-.724a.346.346 0 0 0-.042-.498.374.374 0 0 0-.514.042c-.231.264-.485.39-.696.454V8.627c.981-.185 1.725-1.023 1.725-2.026 0-.813-.489-1.515-1.195-1.852l2.117-1.686c.08-.064.138-.065.218 0l1.984 1.584h-2.1a.359.359 0 0 0-.365.353c0 .195.163.353.364.353h2.284c.226 0 .42-.146.507-.381.098-.264.064-.638-.19-.84"/></g></g></svg>