<svg width="32" height="32" xmlns="http://www.w3.org/2000/svg"><g fill="none" fill-rule="evenodd"><path d="M4 4h24v24H4z"/><path d="M23.816 18.45c-.428.703-2.066.849-3.847.534-.428-.34-.38-.727-.024-1.042a28.455 28.455 0 0 1 2.66-1.115c.546-.097 1.068 0 1.21.436v1.188zm-3.657-5.113c.499 0 .926.412.926.945h-1.852c0-.533.427-.945.926-.945zm-1.544.945H10.4c.404-1.235.736-2.423 1.14-3.635.831-1.647 9.095-1.647 9.926 0 .403 1.212.736 2.4 1.14 3.635h-.903c0-.872-.688-1.575-1.543-1.575s-1.544.703-1.544 1.575zm-4.321 6.47h4.44v-1.89h-4.44v1.89zm-1.259-1.768c-1.78.315-3.42.17-3.847-.533v-1.188c.143-.436.665-.533 1.211-.436a25.72 25.72 0 0 1 2.636 1.115c.38.315.427.702 0 1.042zm12.063-4.895h-1.045l-1.71-4.799c-2.042-1.72-9.64-1.72-11.682 0l-1.711 4.8H7.906c-.594.193-1.259 1.599-.689 2.035h1.069l-.214.8c0 2.108.024 4.216.024 6.3 0 .437.332.776.736.776h2.541c.403 0 .76-.34.76-.776v-.969c2.92.024 5.817.024 8.738 0v.97c0 .436.357.775.76.775h2.54c.405 0 .737-.34.737-.776 0-2.084.024-4.192.024-6.3l-.214-.8h1.069c.57-.436-.12-1.842-.689-2.035z" fill="#23B775"/><path stroke="#23B774" stroke-width="1.5" d="M.75.75h30.5v30.5H.75z"/></g></svg>