<svg width="32" height="32" xmlns="http://www.w3.org/2000/svg"><g fill="none" fill-rule="evenodd"><path d="M4 4h24v24H4z"/><path d="M8.5 23.5h15v-15h-15v15zM23.5 7h-15C7.675 7 7 7.675 7 8.5v15c0 .825.675 1.5 1.5 1.5h15c.825 0 1.5-.675 1.5-1.5v-15c0-.825-.675-1.5-1.5-1.5z" fill="#23B775"/><path d="M16.2 16.286h-2.8v-2.858h2.8c.773 0 1.4.64 1.4 1.429 0 .79-.627 1.429-1.4 1.429m0-4.286H12v10h1.4v-4.286h2.8c1.546 0 2.8-1.279 2.8-2.857C19 13.279 17.746 12 16.2 12" fill="#23B775"/><path stroke="#23B774" stroke-width="1.5" d="M.75.75h30.5v30.5H.75z"/></g></svg>