<svg width="24" height="24" xmlns="http://www.w3.org/2000/svg"><g fill="none" fill-rule="evenodd"><path fill="#FFF" d="M0 0h24v24H0z"/><g fill="#000"><path d="M7.956 8.436c.573 0 1.037-.451 1.037-1.009 0-.557-.464-1.008-1.037-1.008s-1.037.451-1.037 1.008c0 .558.464 1.01 1.037 1.01m7.82 1.45H7.175a.349.349 0 0 0-.354.344c0 .19.158.344.354.344h8.601a.348.348 0 0 0 .354-.344.348.348 0 0 0-.354-.344m0 1.795H7.175a.349.349 0 0 0-.354.343c0 .19.158.344.354.344h8.601a.349.349 0 0 0 .354-.344.348.348 0 0 0-.354-.343m0 1.795H7.175a.349.349 0 0 0-.354.343c0 .19.158.344.354.344h8.601a.348.348 0 0 0 .354-.344.348.348 0 0 0-.354-.343m0 1.794H7.175a.348.348 0 0 0-.354.344c0 .19.158.343.354.343h8.601a.348.348 0 0 0 .354-.343.348.348 0 0 0-.354-.344m0 1.795H7.175a.349.349 0 0 0-.354.343c0 .19.158.344.354.344h8.601a.348.348 0 0 0 .354-.344.348.348 0 0 0-.354-.343"/><path d="M16.732 20.098H6.22c-.711 0-1.29-.562-1.29-1.254V5.042c0-.691.579-1.254 1.29-1.254h7.663v2.015c0 1.07.896 1.941 1.996 1.941h2.144v11.1c0 .692-.578 1.254-1.29 1.254m1.7-13.3l-3.396-3.39a1.064 1.064 0 0 0-.746-.307H6.22c-1.1 0-1.996.87-1.996 1.941v13.802c0 1.07.895 1.941 1.996 1.941h10.513c1.101 0 1.997-.87 1.997-1.941V7.504a.99.99 0 0 0-.296-.706"/></g></g></svg>