<svg width="24" height="24" xmlns="http://www.w3.org/2000/svg"><g fill="none" fill-rule="evenodd"><path fill="#FFF" d="M0 0h24v24H0z"/><g fill="#000"><path d="M14.7 14.742a5.276 5.276 0 0 1-5.27-5.27 5.276 5.276 0 0 1 5.27-5.27 5.276 5.276 0 0 1 5.27 5.27 5.276 5.276 0 0 1-5.27 5.27m0-11.537a6.274 6.274 0 0 0-6.267 6.267c0 1.548.568 2.965 1.502 4.06l-6.382 6.382a.498.498 0 1 0 .705.705l6.382-6.382a6.235 6.235 0 0 0 4.06 1.501 6.273 6.273 0 0 0 6.267-6.266A6.273 6.273 0 0 0 14.7 3.205"/><path d="M18.377 9.066a.498.498 0 0 0-.498.498 3.162 3.162 0 0 1-3.159 3.16.499.499 0 1 0 0 .996 4.16 4.16 0 0 0 4.155-4.156.498.498 0 0 0-.498-.498"/></g></g></svg>