<svg width="24" height="24" xmlns="http://www.w3.org/2000/svg"><g fill="none" fill-rule="evenodd"><path fill="#FFF" d="M0 0h24v24H0z"/><g fill="#000"><path d="M22.74 16.512c0 1.207-1.002 2.19-2.233 2.19H3.318c-1.232 0-2.233-.983-2.233-2.19V7.387c0-1.208 1.001-2.19 2.233-2.19h17.189c1.231 0 2.233.982 2.233 2.19v9.125zM20.507 4.155H3.318C1.5 4.155.021 5.605.021 7.387v9.125c0 1.782 1.48 3.232 3.297 3.232h17.189c1.818 0 3.296-1.45 3.296-3.232V7.387c0-1.782-1.478-3.232-3.296-3.232z"/><path d="M10.842 13.788l3.459-1.838-3.459-1.839z"/><path d="M11.912 15.117c-1.78 0-3.23-1.421-3.23-3.167 0-1.746 1.45-3.167 3.23-3.167 1.781 0 3.23 1.42 3.23 3.167 0 1.746-1.449 3.167-3.23 3.167m0-7.376c-2.367 0-4.292 1.888-4.292 4.209 0 2.32 1.925 4.21 4.292 4.21 2.368 0 4.293-1.89 4.293-4.21 0-2.321-1.925-4.21-4.293-4.21"/></g></g></svg>