<svg width="24" height="24" xmlns="http://www.w3.org/2000/svg"><g fill="none" fill-rule="evenodd"><path fill="#FFF" d="M0 0h24v24H0z"/><g fill="#000"><path d="M15.21 12.232a.591.591 0 0 0-.588.594.59.59 0 0 0 .588.594.591.591 0 0 0 .588-.594.591.591 0 0 0-.588-.594"/><path d="M20.067 13.733c0 .933-.751 1.692-1.675 1.692h-.894c-1.1 0-2.174.39-3.023 1.097l-2.937 2.45a.192.192 0 0 1-.21.026.193.193 0 0 1-.115-.18V17.53a2.097 2.097 0 0 0-2.084-2.106H5.5a1.685 1.685 0 0 1-1.675-1.692V6.68c0-.933.75-1.692 1.675-1.692h12.891c.924 0 1.675.76 1.675 1.692v7.052zm-1.675-9.549H5.501c-1.364 0-2.473 1.12-2.473 2.497v7.052c0 1.377 1.11 2.497 2.473 2.497h3.628c.71 0 1.287.583 1.287 1.3v1.288a.998.998 0 0 0 .998 1.006.983.983 0 0 0 .631-.231l2.938-2.45a3.937 3.937 0 0 1 2.515-.913h.894c1.364 0 2.472-1.12 2.472-2.497V6.68c0-1.377-1.108-2.497-2.472-2.497z"/><path d="M8.589 11.241l1.178-2.825 1.179 2.825H8.589zm1.556-3.993a.396.396 0 0 0-.378-.243.396.396 0 0 0-.378.243l-2.338 5.603a.405.405 0 0 0 .368.56.399.399 0 0 0 .367-.247l.467-1.117h3.029l.466 1.117a.399.399 0 1 0 .735-.313l-2.338-5.603zm5.341-.243a1.782 1.782 0 0 0-1.824.807.405.405 0 0 0 .122.556c.185.12.432.065.55-.123a.989.989 0 0 1 1.015-.446.994.994 0 0 1 .787.777 1.004 1.004 0 0 1-.636 1.145 1.107 1.107 0 0 0-.731 1.038v.691a.4.4 0 0 0 .398.403.4.4 0 0 0 .4-.403v-.69c0-.125.08-.237.201-.28a1.804 1.804 0 0 0 1.15-2.057 1.785 1.785 0 0 0-1.432-1.418"/></g></g></svg>