<?xml version="1.0" encoding="UTF-8"?>
<svg width="24px" height="24px" viewBox="0 0 24 24" version="1.1" xmlns="http://www.w3.org/2000/svg" xmlns:xlink="http://www.w3.org/1999/xlink">
    <!-- Generator: Sketch 48.2 (47327) - http://www.bohemiancoding.com/sketch -->
    <title>icon_5_star_rating</title>
    <desc>Created with Sketch.</desc>
    <defs></defs>
    <g id="Icons" stroke="none" stroke-width="1" fill="none" fill-rule="evenodd">
        <g id="icon_5_star_rating">
            <rect id="Rectangle" fill="#FFFFFF" x="0" y="0" width="24" height="24"></rect>
            <g id="Group-16" transform="translate(3.000000, 3.000000)" fill="#000000">
                <path d="M9.14513143,16.3318114 C5.13061714,16.3318114 1.87570286,13.0774114 1.87570286,9.06238286 C1.87570286,5.04786857 5.13061714,1.79346857 9.14513143,1.79346857 C13.16016,1.79346857 16.41456,5.04786857 16.41456,9.06238286 C16.41456,13.0774114 13.16016,16.3318114 9.14513143,16.3318114 M17.7810171,9.03564 C17.7799886,8.86541143 17.6833029,8.70032571 17.5814743,8.52444 C17.4914743,8.36758286 17.3968457,8.20609714 17.3762743,8.03689714 C17.3546743,7.86306857 17.4066171,7.67946857 17.4575314,7.50306857 C17.5130743,7.31072571 17.5639886,7.12918286 17.5243886,6.96975429 C17.4842743,6.80621143 17.3510743,6.66786857 17.2106743,6.52232571 C17.0846743,6.39169714 16.95456,6.25644 16.8928457,6.09701143 C16.8311314,5.93449714 16.8373029,5.74524 16.8445029,5.56164 C16.8511886,5.36106857 16.85736,5.17129714 16.7807314,5.02575429 C16.7020457,4.87712571 16.5400457,4.77529714 16.3698171,4.66832571 C16.2145029,4.57164 16.0561029,4.47135429 15.9578743,4.32992571 C15.8586171,4.18746857 15.8195314,4.00232571 15.7814743,3.82335429 C15.7398171,3.62638286 15.70176,3.44072571 15.5906743,3.31678286 C15.4790743,3.19232571 15.2995886,3.13164 15.1087886,3.06889714 C14.9354743,3.01129714 14.7559886,2.95112571 14.62536,2.83695429 C14.4967886,2.72329714 14.4139886,2.55255429 14.3358171,2.38798286 C14.2489029,2.20644 14.1666171,2.03569714 14.0287886,1.94055429 C13.8914743,1.84592571 13.7022171,1.83101143 13.5026743,1.81455429 C13.3190743,1.80066857 13.13136,1.78472571 12.9775886,1.70501143 C12.82536,1.62581143 12.7055314,1.48026857 12.5898171,1.33935429 C12.4612457,1.18404 12.3398743,1.03695429 12.1825029,0.977297143 C12.04776,0.926382857 11.84976,0.947982857 11.6440457,0.98244 C11.4578743,1.01175429 11.2567886,1.03901143 11.1061029,1.00198286 C10.9399886,0.961868571 10.7893029,0.848725714 10.6442743,0.741754286 C10.48176,0.620897143 10.32696,0.506725714 10.1598171,0.486668571 C9.99678857,0.468154286 9.82398857,0.541697143 9.64090286,0.619868571 C9.47118857,0.692897143 9.29581714,0.767982857 9.11993143,0.768497143 C8.94250286,0.769011429 8.76713143,0.694954286 8.59741714,0.623468571 C8.41278857,0.545811429 8.24101714,0.472782857 8.07747429,0.492325714 C7.90981714,0.513925714 7.75656,0.629125714 7.59456,0.749982857 C7.44953143,0.859011429 7.29987429,0.97164 7.13478857,1.01329714 C6.98410286,1.05186857 6.78147429,1.02718286 6.59684571,0.99684 C6.39010286,0.96444 6.19210286,0.944382857 6.05736,0.995297143 C5.89998857,1.05649714 5.78016,1.20358286 5.65313143,1.36095429 C5.53741714,1.50289714 5.41964571,1.64792571 5.26741714,1.72815429 C5.11416,1.80941143 4.92541714,1.82586857 4.74284571,1.84181143 C4.54330286,1.85878286 4.35456,1.87524 4.21724571,1.97038286 C4.08096,2.06604 3.99970286,2.23781143 3.91278857,2.41986857 C3.83564571,2.58546857 3.75541714,2.75518286 3.62633143,2.87141143 C3.49673143,2.98712571 3.31776,3.04626857 3.14496,3.10541143 C2.95467429,3.17021143 2.77416,3.23192571 2.66358857,3.35638286 C2.55404571,3.48084 2.51547429,3.66752571 2.47587429,3.86449714 C2.43987429,4.04346857 2.40181714,4.22912571 2.30358857,4.37158286 C2.20587429,4.51404 2.04696,4.61484 1.89318857,4.71358286 C1.72296,4.82055429 1.56198857,4.92341143 1.48433143,5.07204 C1.40873143,5.21912571 1.41644571,5.40838286 1.42467429,5.60895429 C1.43238857,5.79204 1.44010286,5.98129714 1.37838857,6.14535429 C1.31821714,6.30478286 1.18861714,6.44055429 1.06313143,6.57272571 C0.924788571,6.71878286 0.792102857,6.85815429 0.751988571,7.02118286 C0.713931429,7.18164 0.766388571,7.36266857 0.821931429,7.55398286 C0.874388571,7.73038286 0.92736,7.91346857 0.90576,8.08781143 C0.88776,8.25598286 0.795702857,8.41952571 0.704674286,8.57689714 C0.604388571,8.75278286 0.509245714,8.91941143 0.509245714,9.08912571 C0.510274286,9.25986857 0.606445714,9.42495429 0.70776,9.60135429 C0.798788571,9.75769714 0.892902857,9.92021143 0.91296,10.0883829 C0.935074286,10.2622114 0.882617143,10.4452971 0.832217143,10.6222114 C0.777188571,10.81404 0.725245714,10.9960971 0.764845714,11.1550114 C0.805988571,11.3195829 0.93816,11.4563829 1.07907429,11.6029543 C1.20507429,11.7335829 1.33467429,11.86884 1.39638857,12.0287829 C1.45913143,12.1912971 1.45296,12.3805543 1.44524571,12.5641543 C1.43958857,12.7642114 1.43238857,12.9539829 1.51004571,13.10004 C1.58770286,13.2481543 1.74970286,13.3489543 1.91993143,13.45644 C2.07370286,13.55364 2.23416,13.6534114 2.33238857,13.7953543 C2.43113143,13.9378114 2.47021714,14.1229543 2.50878857,14.3019257 C2.54890286,14.4988971 2.58798857,14.68404 2.69907429,14.8090114 C2.81067429,14.9329543 2.99016,14.99364 3.18147429,15.0568971 C3.35478857,15.1139829 3.53376,15.1731257 3.66438857,15.2878114 C3.79398857,15.4024971 3.87576,15.5722114 3.95393143,15.7367829 C4.04084571,15.9183257 4.12313143,16.0906114 4.26147429,16.1842114 C4.39878857,16.2783257 4.58753143,16.2937543 4.78707429,16.3096971 C4.97016,16.3251257 5.15838857,16.3395257 5.31216,16.4202686 C5.46438857,16.4999829 5.58473143,16.6439829 5.69993143,16.7848971 C5.82850286,16.9417543 5.94884571,17.08884 6.10673143,17.1479829 C6.24198857,17.1988971 6.43844571,17.1767829 6.64570286,17.1433543 C6.83187429,17.1130114 7.03296,17.0867829 7.18416,17.1238114 C7.34976,17.1639257 7.49993143,17.2755257 7.64650286,17.3835257 C7.80850286,17.5048971 7.96227429,17.6185543 8.13044571,17.6386114 C8.29450286,17.6566114 8.46524571,17.5840971 8.64884571,17.5048971 C8.81907429,17.4323829 8.99444571,17.3572971 9.17084571,17.3562686 C9.34776,17.3562686 9.52261714,17.4298114 9.69284571,17.5012971 C9.87696,17.5794686 10.0492457,17.6524971 10.2127886,17.6319257 C10.3804457,17.6113543 10.5331886,17.4966686 10.6957029,17.3742686 C10.8397029,17.26524 10.9898743,17.1526114 11.1554743,17.1114686 C11.30616,17.0734114 11.5087886,17.0991257 11.6939314,17.1279257 C11.90016,17.1598114 12.09816,17.1803829 12.2329029,17.1289543 C12.3902743,17.0692971 12.5095886,16.9211829 12.6371314,16.7643257 C12.7523314,16.6223829 12.8711314,16.47684 13.02336,16.3960971 C13.1771314,16.31484 13.36536,16.2994114 13.5474171,16.2829543 C13.7479886,16.2659829 13.9362171,16.2490114 14.0725029,16.1548971 C14.2103314,16.0587257 14.2915886,15.88644 14.3764457,15.7043829 C14.4546171,15.5398114 14.5348457,15.3690686 14.6644457,15.2538686 C14.7930171,15.1381543 14.9725029,15.0779829 15.1458171,15.0193543 C15.3361029,14.95404 15.5161029,14.8943829 15.6266743,14.7688971 C15.7362171,14.6439257 15.7732457,14.4577543 15.8138743,14.2607829 C15.8503886,14.0818114 15.8879314,13.8951257 15.9866743,13.7526686 C16.0838743,13.61124 16.2427886,13.5099257 16.3970743,13.4111829 C16.5667886,13.3031829 16.7272457,13.2013543 16.8054171,13.0522114 C16.8815314,12.90564 16.8738171,12.7153543 16.8661029,12.5163257 C16.8578743,12.3322114 16.8506743,12.1429543 16.9118743,11.9799257 C16.97256,11.8204971 17.1016457,11.6842114 17.2266171,11.5525543 C17.3654743,11.4054686 17.49816,11.26764 17.5382743,11.1030686 C17.5763314,10.94364 17.5238743,10.7620971 17.4678171,10.5702686 C17.4158743,10.3938686 17.3623886,10.2118114 17.38296,10.0369543 C17.4025029,9.86826857 17.4950743,9.70575429 17.5850743,9.54838286 C17.6858743,9.37249714 17.7810171,9.20586857 17.7810171,9.03564" id="Fill-45"></path>
                <path d="M13.0082914,7.52621143 L10.9269771,7.22381143 C10.7588057,7.19964 10.6137771,7.09369714 10.5386914,6.94146857 L9.60783429,5.05558286 C9.41909143,4.67192571 8.87189143,4.67192571 8.68263429,5.05558286 L7.75177714,6.94146857 C7.67669143,7.09369714 7.53166286,7.19964 7.36349143,7.22381143 L5.28217714,7.52621143 C4.85892,7.58792571 4.68972,8.10735429 4.99623429,8.40615429 L6.50257714,9.87392571 C6.62394857,9.99272571 6.67897714,10.1634686 6.65069143,10.3311257 L6.29480571,12.4036971 C6.22280571,12.8254114 6.66509143,13.1463257 7.04309143,12.9478114 L8.90480571,11.9691257 C9.05549143,11.8899257 9.23497714,11.8899257 9.38514857,11.9691257 L11.2468629,12.9478114 C11.6258914,13.1463257 12.0676629,12.8254114 11.9951486,12.4036971 L11.6397771,10.3311257 C11.6109771,10.1634686 11.6670343,9.99272571 11.7884057,9.87392571 L13.2947486,8.40615429 C13.6002343,8.10735429 13.4315486,7.58792571 13.0082914,7.52621143" id="Fill-47"></path>
            </g>
        </g>
    </g>
</svg>