<svg width="32" height="32" xmlns="http://www.w3.org/2000/svg"><g fill="none" fill-rule="evenodd"><path d="M4 4h24v24H4z"/><g fill="#23B775"><path d="M17.51 20.87l-1.436-2.314-1.011 2.734-2 2.948c-.326.535-.707.874-1.246.728-.538-.145-.912-.723-.663-1.239l2.043-3.277.89-3.142c.054-.289-.133-.754-.133-.754-.175-.646-.056-1.03-.056-1.03l.53-2.941-1.316 1.105-.54 2.231c-.085.467-.347.815-.794.819-.448.004-.815-.38-.775-.786l.696-2.772c.086-.543.404-.723.404-.723l2.878-1.996a2.636 2.636 0 0 1 2.764.5l1.398 2.704 1.58 1.166c.338.353.381.848.05 1.149-.286.258-.832.083-1.105-.189l-1.371-1.01c-.27-.158-.893-1.41-.893-1.41l-.42 2.648a.66.66 0 0 0 .1.535l2.157 3.344.602 3.835c.141.629-.148 1.08-.648 1.206a.934.934 0 0 1-1.151-.678l-.534-3.392z"/><path d="M16.522 7.025c.904-.157 1.777.437 1.948 1.327a1.614 1.614 0 0 1-1.326 1.896 1.69 1.69 0 0 1-1.948-1.327 1.615 1.615 0 0 1 1.326-1.896"/></g><path stroke="#23B774" stroke-width="1.5" d="M.75.75h30.5v30.5H.75z"/></g></svg>