<svg width="24" height="24" xmlns="http://www.w3.org/2000/svg"><g fill="none" fill-rule="evenodd"><path fill="#FFF" d="M0 0h24v24H0z"/><g fill="#000"><path d="M16.258 19.794H4.679a1.65 1.65 0 0 1-1.299-.627 1.655 1.655 0 0 1-.315-1.418c.594-2.503 2.48-4.58 4.921-5.42a.293.293 0 1 1 .192.554 7.058 7.058 0 0 0-4.54 5 1.074 1.074 0 0 0 1.041 1.325h11.579c.328 0 .633-.148.837-.404.206-.261.28-.597.204-.922a6.979 6.979 0 0 0-4.454-4.968.293.293 0 1 1 .2-.552 7.562 7.562 0 0 1 4.825 5.385c.12.5.005 1.018-.314 1.42a1.648 1.648 0 0 1-1.298.627"/><path d="M10.468 13.657c-2.374 0-4.304-1.925-4.304-4.292s1.93-4.292 4.304-4.292a4.29 4.29 0 0 1 2.407.733c.135.09.17.273.08.407a.295.295 0 0 1-.409.079 3.705 3.705 0 0 0-2.078-.633 3.716 3.716 0 0 0-3.717 3.706 3.716 3.716 0 0 0 3.717 3.706 3.706 3.706 0 0 0 2.903-1.39.295.295 0 0 1 .413-.046.292.292 0 0 1 .045.412 4.291 4.291 0 0 1-3.36 1.61"/><path d="M7.82 9.658a.293.293 0 0 1-.294-.293 2.94 2.94 0 0 1 2.942-2.933.293.293 0 1 1 0 .586 2.353 2.353 0 0 0-2.353 2.347.293.293 0 0 1-.295.293m.177 5.771a.293.293 0 0 1-.294-.293v-2.154a.294.294 0 0 1 .588 0v2.154a.294.294 0 0 1-.294.293m4.875 1.506a.294.294 0 0 1-.294-.294v-3.659a.294.294 0 0 1 .589 0v3.66a.294.294 0 0 1-.295.293"/><path d="M13.6 16.976a.726.726 0 1 1-1.453-.002.726.726 0 0 1 1.453.002m-4.608 1.276h-.377a.293.293 0 1 1 0-.586h.377c.03 0 .055-.025.055-.055v-.95a1.05 1.05 0 0 0-2.1 0v.95c0 .03.024.055.055.055h.376a.294.294 0 1 1 0 .586h-.376a.642.642 0 0 1-.643-.641v-.95a1.638 1.638 0 0 1 3.276 0v.95c0 .353-.289.64-.643.64M13.251 7.07h.003-.003zm1.266-.178a1.623 1.623 0 0 0-1.63 1.577 1.62 1.62 0 0 0 .484 1.209l2.863 2.85a.43.43 0 0 0 .604 0l2.814-2.795c.329-.326.515-.783.51-1.252a1.581 1.581 0 0 0-.484-1.14 1.648 1.648 0 0 0-2.31.024l-.829.823-.787-.782a1.756 1.756 0 0 0-1.235-.514zm2.02 6.346c-.261 0-.521-.098-.72-.295l-2.862-2.85A2.2 2.2 0 0 1 12.3 8.45a2.202 2.202 0 0 1 .758-1.6c.883-.778 2.249-.716 3.11.14l.372.37.414-.411a2.235 2.235 0 0 1 3.131-.034c.423.403.66.956.666 1.558a2.338 2.338 0 0 1-.683 1.675l-2.814 2.794a1.016 1.016 0 0 1-.717.295z"/></g></g></svg>