<svg width="18" height="18" xmlns="http://www.w3.org/2000/svg"><g fill="none" fill-rule="evenodd"><path d="M16.759 16.746a1.257 1.257 0 0 1-.996.491H1.99c-.39 0-.753-.179-.996-.491a1.322 1.322 0 0 1-.242-1.117c.604-2.603 2.432-4.792 4.835-5.846v2.413a1.975 1.975 0 0 0-1.599 1.949v1.153c0 .43.343.778.764.778H5.2c.194 0 .35-.159.35-.356a.352.352 0 0 0-.35-.356h-.448a.066.066 0 0 1-.064-.066v-1.153c0-.7.56-1.271 1.248-1.271.689 0 1.25.57 1.25 1.27v1.154c0 .036-.03.066-.066.066h-.448c-.193 0-.35.16-.35.356 0 .197.157.356.35.356h.448a.772.772 0 0 0 .764-.778v-1.153c0-.972-.69-1.781-1.598-1.95V9.774a5.016 5.016 0 0 0 2.59.724c.912 0 1.768-.247 2.51-.674v3.9a.88.88 0 0 0-.515.804c0 .486.387.88.865.88a.873.873 0 0 0 .865-.88.88.88 0 0 0-.515-.804V9.748c2.442 1.04 4.301 3.244 4.914 5.88.092.394.004.802-.242 1.118M4.456 5.286c0-2.482 1.984-4.5 4.421-4.5 2.438 0 4.421 2.018 4.421 4.5a4.519 4.519 0 0 1-1.766 3.588.343.343 0 0 0-.15.114 4.34 4.34 0 0 1-2.505.797c-2.437 0-4.42-2.018-4.42-4.5M17.68 15.463c-.663-2.854-2.675-5.242-5.32-6.37a5.235 5.235 0 0 0 1.636-3.808c0-2.874-2.297-5.212-5.12-5.212s-5.12 2.338-5.12 5.212c0 1.503.632 2.855 1.635 3.807C2.748 10.22.734 12.615.072 15.466a2.041 2.041 0 0 0 .375 1.722c.376.484.939.76 1.544.76h13.772c.605 0 1.168-.276 1.544-.76a2.04 2.04 0 0 0 .374-1.725" fill="#000"/><path d="M-3-2h24v24H-3z"/><path d="M6.077 5.285c0-1.571 1.256-2.85 2.8-2.85.193 0 .35-.159.35-.355a.353.353 0 0 0-.35-.356c-1.93 0-3.499 1.597-3.499 3.561 0 .197.156.356.35.356.193 0 .35-.16.35-.356" fill="#000"/></g></svg>