<svg width="24" height="24" xmlns="http://www.w3.org/2000/svg"><g fill="none" fill-rule="evenodd"><path fill="#FFF" d="M0 0h24v24H0z"/><g fill="#000"><path d="M14.552 5.027a7.36 7.36 0 0 0-2.727.519.309.309 0 0 0-.176.407c.068.16.257.237.421.17a6.669 6.669 0 0 1 2.207-.458v1.06c0 .172.145.312.323.312.178 0 .323-.14.323-.313V5.67c3.326.182 5.99 2.775 6.153 6.001h-1.349a.317.317 0 0 0-.322.313c0 .173.144.312.322.312h1.35c-.164 3.227-2.828 5.82-6.154 6.001v-1.082a.318.318 0 0 0-.323-.313.318.318 0 0 0-.323.313v1.09a6.709 6.709 0 0 1-1.893-.345.324.324 0 0 0-.411.191.31.31 0 0 0 .198.398 7.38 7.38 0 0 0 2.381.391c3.963 0 7.186-3.12 7.186-6.956 0-3.836-3.223-6.957-7.186-6.957"/><path d="M14.59 8.303a.317.317 0 0 0-.323.313v2.615a.848.848 0 0 0-.549.786c0 .469.393.849.877.849a.877.877 0 0 0 .802-.508h1.555c.178 0 .323-.14.323-.312a.317.317 0 0 0-.323-.313h-1.534a.86.86 0 0 0-.505-.505V8.616a.317.317 0 0 0-.323-.313M3.022 16.37a.692.692 0 0 1-.139-.608c.373-1.528 1.48-2.819 2.94-3.476v1.267c-.592.141-1.034.657-1.034 1.273v.71c0 .316.265.573.591.573h.29c.178 0 .323-.14.323-.313a.317.317 0 0 0-.323-.312h-.236v-.658c0-.38.32-.69.712-.69.393 0 .712.31.712.69v.658h-.235a.318.318 0 0 0-.324.312c0 .173.145.313.324.313h.29a.583.583 0 0 0 .59-.573v-.71c0-.616-.442-1.132-1.034-1.273v-1.259a3.475 3.475 0 0 0 3.11.025v2.3a.536.536 0 0 0-.238.442c0 .3.25.542.56.542a.55.55 0 0 0 .56-.542.536.536 0 0 0-.238-.442v-2.356c1.488.65 2.614 1.95 2.992 3.497a.695.695 0 0 1-.138.61.732.732 0 0 1-.57.267H3.591a.732.732 0 0 1-.57-.267M8.05 6.693c1.526 0 2.766 1.201 2.766 2.678 0 .867-.43 1.637-1.092 2.126a.318.318 0 0 0-.122.088 2.814 2.814 0 0 1-1.552.463c-1.525 0-2.765-1.2-2.765-2.677s1.24-2.678 2.765-2.678m5.534 10.065a1.3 1.3 0 0 0 .26-1.141c-.425-1.74-1.693-3.202-3.367-3.93a3.238 3.238 0 0 0 .985-2.316c0-1.821-1.53-3.303-3.412-3.303-1.88 0-3.41 1.482-3.41 3.303 0 .902.376 1.72.984 2.317-1.674.727-2.944 2.192-3.368 3.93a1.3 1.3 0 0 0 .26 1.14c.262.32.654.503 1.076.503h8.916a1.38 1.38 0 0 0 1.076-.503"/><path d="M6.333 9.37c0-.915.77-1.66 1.716-1.66.179 0 .323-.14.323-.313a.317.317 0 0 0-.323-.313c-1.302 0-2.361 1.026-2.361 2.287 0 .172.144.312.323.312.178 0 .322-.14.322-.312"/></g></g></svg>