<?xml version="1.0" encoding="UTF-8"?>
<svg width="24px" height="24px" viewBox="0 0 24 24" version="1.1" xmlns="http://www.w3.org/2000/svg" xmlns:xlink="http://www.w3.org/1999/xlink">
    <!-- Generator: Sketch 48.2 (47327) - http://www.bohemiancoding.com/sketch -->
    <title>icon_driving_directions</title>
    <desc>Created with Sketch.</desc>
    <defs></defs>
    <g id="Icons" stroke="none" stroke-width="1" fill="none" fill-rule="evenodd">
        <g id="icon_driving_directions">
            <rect id="Rectangle" fill="#FFFFFF" x="0" y="0" width="24" height="24"></rect>
            <g id="Group-18" transform="translate(3.000000, 3.000000)" fill="#000000">
                <path d="M16.781472,9.7569 L9.861192,16.67718 C9.406872,17.1315 8.669232,17.13042 8.215632,16.67718 L1.294992,9.7569 C0.841392,9.3033 0.841392,8.56458 1.294992,8.11134 L8.215632,1.1907 C8.442432,0.96354 8.740512,0.8505 9.038592,0.8505 C9.336312,0.8505 9.634032,0.96354 9.861192,1.1907 L16.781472,8.11134 C17.235072,8.56458 17.235072,9.3033 16.781472,9.7569 M17.345232,7.54758 L10.424952,0.62694 C9.659952,-0.1377 8.416152,-0.13698 7.651872,0.62694 L0.731232,7.54758 C-0.033408,8.31222 -0.033408,9.55602 0.731232,10.3203 L7.651872,17.24094 C8.034192,17.62326 8.536392,17.81442 9.038592,17.81442 C9.540432,17.81442 10.042632,17.62326 10.424952,17.24094 L17.345232,10.3203 C18.109512,9.55602 18.109512,8.31222 17.345232,7.54758" id="Fill-99"></path>
                <path d="M12.845052,8.777808 C12.840732,8.763768 12.841092,8.748288 12.835692,8.734968 C12.829572,8.720928 12.816972,8.709768 12.809052,8.695728 C12.791052,8.664408 12.773052,8.632368 12.747132,8.606808 C12.745692,8.605728 12.745332,8.604288 12.744252,8.603208 L10.231812,6.210288 C10.073052,6.059448 9.821052,6.065208 9.668052,6.224328 C9.516132,6.383808 9.522612,6.636528 9.682092,6.788448 L11.472372,8.493408 L5.109732,8.493408 C4.889052,8.493408 4.710852,8.671608 4.710852,8.891568 C4.710852,9.112248 4.889052,9.290448 5.109732,9.290448 L11.560932,9.290448 L9.682092,11.080008 C9.522612,11.231208 9.516132,11.484288 9.668052,11.643408 C9.746892,11.725848 9.852012,11.767248 9.957132,11.767248 C10.055772,11.767248 10.154772,11.730528 10.231812,11.657448 L12.744252,9.264888 C12.837492,9.175968 12.871692,9.053568 12.859452,8.934768 C12.860892,8.920008 12.868092,8.907048 12.868092,8.891568 C12.868092,8.890128 12.867372,8.889048 12.867372,8.887608 C12.866652,8.849808 12.855852,8.813808 12.845052,8.777808" id="Fill-101"></path>
            </g>
        </g>
    </g>
</svg>