<svg width="16" height="19" xmlns="http://www.w3.org/2000/svg"><g fill="none" fill-rule="evenodd"><path d="M-4-3h24v24H-4z"/><g fill="#272727"><path d="M3.865 15.092l.758-1.324c.322.357.569.798.644 1.324H3.865zm-.796 2.962c-1.23 0-2.254-1.113-2.254-2.5 0-1.366 1.004-2.5 2.254-2.5.285 0 .57.062.815.168L2.691 15.28a.544.544 0 0 0-.02.483c.077.147.228.252.38.252h2.197c-.17 1.177-1.08 2.038-2.179 2.038zm4.074-2.311a1.36 1.36 0 0 1-.17-.673h-.815a3.582 3.582 0 0 0-1.061-2.143l.663-1.134 1.307 2.731c.095-.504.19-1.008.285-1.47l-.853-1.787h1.08c-.512-.252-1.63-.651-2.501-.903l.227.462-.909 1.597a2.74 2.74 0 0 0-1.288-.315C1.383 12.108 0 13.663 0 15.554 0 17.466 1.402 19 3.108 19c1.572 0 2.88-1.303 3.088-2.984h1.212c-.132-.042-.208-.147-.265-.273z"/><path d="M12.912 18.093c-1.231 0-2.254-1.069-2.254-2.399 0-.807.379-1.512.947-1.956l.91 2.158a.44.44 0 0 0 .397.262.52.52 0 0 0 .17-.04.445.445 0 0 0 .21-.605l-.91-2.138c.17-.04.34-.06.51-.06 1.232 0 2.255 1.068 2.255 2.4 0 1.31-1.004 2.378-2.235 2.378m0-5.705c-.303 0-.587.04-.871.14l-1.762-4.172a.44.44 0 0 0-.398-.263h-.398a.568.568 0 0 0-.322-.242c-.777-.221-1.572-.564-1.78-.725-.171-.343-.569-1.129-.91-1.835.095-.685 0-1.653-1.08-1.814-1.06-.141-1.25.383-1.666 1.673-.398 1.23-.474 3.185-.171 4.335.095.342.265.665.474.685.814.08 3.201.867 3.75 1.21 0 .584-.284 2.298-.606 3.71-.094.423.152.846.55.946.094.02.189.02.284.02.284-.04.53-.282.606-.604.91-4.133.606-4.657.454-4.899-.34-.564-1.59-1.068-2.69-1.41A28.11 28.11 0 0 1 6.34 7.73c0 .02.019.04.019.04.075.161.321.625 2.462 1.27a.45.45 0 0 0 .152.02c.094 0 .17-.02.265-.06h.36l.7 1.673h-.814c.057.182.095.464.076.928h.474l-.55.826c-.057.544-.17 1.25-.36 2.157l1.724-2.62.398.927c-.871.584-1.459 1.613-1.459 2.802 0 1.834 1.402 3.306 3.107 3.306C14.598 19 16 17.508 16 15.694c.019-1.815-1.383-3.306-3.088-3.306M4.21 1.698C4.227.744 4.994-.016 5.924 0c.93.016 1.672.802 1.656 1.756-.016.954-.782 1.714-1.713 1.698-.93-.016-1.67-.802-1.655-1.756"/></g></g></svg>