<svg width="15" height="18" xmlns="http://www.w3.org/2000/svg"><g fill="none" fill-rule="evenodd"><path d="M-4-3h24v24H-4z"/><g fill="#000"><path d="M13.976 15.855c0 .691-.579 1.254-1.29 1.254H2.173c-.711 0-1.29-.563-1.29-1.254V2.053C.883 1.361 1.462.8 2.173.8h7.49c.059 0 .115.011.173.017v1.998c0 1.07.895 1.94 1.996 1.94h2.113c.02.1.03.202.03.306v10.795zm.02-12.435l-2.6-2.598a2.466 2.466 0 0 0-1.731-.71H2.173C1.072.112.176.982.176 2.053v13.802c0 1.07.896 1.941 1.997 1.941h10.513c1.1 0 1.996-.87 1.996-1.941V5.06c0-.617-.243-1.2-.685-1.64z"/><path d="M11.962 13.216a.605.605 0 0 1-.472.222H3.37a.606.606 0 0 1-.473-.222.58.58 0 0 1-.115-.508c.36-1.484 1.485-2.722 2.949-3.266a3.209 3.209 0 0 0 1.698.485 3.21 3.21 0 0 0 1.7-.485c1.464.544 2.586 1.778 2.948 3.265a.582.582 0 0 1-.115.509m-4.533-8.76c1.357 0 2.46 1.073 2.46 2.391 0 .773-.38 1.46-.965 1.897a.345.345 0 0 0-.123.088 2.494 2.494 0 0 1-1.372.408c-1.356 0-2.46-1.074-2.46-2.393 0-1.318 1.104-2.391 2.46-2.391m2.31 4.492a3.02 3.02 0 0 0 .857-2.1c0-1.698-1.42-3.08-3.167-3.08-1.745 0-3.166 1.382-3.166 3.08 0 .812.327 1.55.857 2.1-1.504.684-2.642 2.02-3.026 3.602a1.25 1.25 0 0 0 .248 1.092c.25.307.624.483 1.027.483h8.12c.403 0 .778-.176 1.027-.483a1.25 1.25 0 0 0 .249-1.093c-.386-1.583-1.522-2.918-3.026-3.6"/><path d="M6.147 6.848c0-.688.576-1.247 1.282-1.247a.349.349 0 0 0 .354-.344.349.349 0 0 0-.354-.343c-1.096 0-1.989.867-1.989 1.934 0 .19.159.343.354.343a.348.348 0 0 0 .353-.343"/></g></g></svg>