<svg width="24" height="24" xmlns="http://www.w3.org/2000/svg"><g fill="none" fill-rule="evenodd"><path fill="#FFF" d="M0 0h24v24H0z"/><path d="M21 15.044c0-.717-.58-1.3-1.295-1.3a1.298 1.298 0 0 0-.676 2.405c-.543 2.212-2.532 3.86-4.903 3.86-2.787 0-5.055-2.275-5.055-5.072v-3.33a4.394 4.394 0 0 0 3.69-4.335V4.507c0-.831-.673-1.507-1.501-1.507h-1.09a.494.494 0 0 0 0 .99h1.09c.284 0 .514.232.514.517v2.765a3.403 3.403 0 0 1-3.393 3.405 3.403 3.403 0 0 1-3.394-3.405V4.507c0-.285.231-.517.515-.517h1.09a.494.494 0 0 0 0-.99h-1.09C4.674 3 4 3.676 4 4.507v2.765a4.392 4.392 0 0 0 4.084 4.38v3.285c0 3.343 2.71 6.063 6.042 6.063 2.862 0 5.261-2.01 5.881-4.695.57-.138.993-.648.993-1.26" fill="#000"/></g></svg>