<?xml version="1.0" encoding="UTF-8"?>
<svg width="24px" height="24px" viewBox="0 0 24 24" version="1.1" xmlns="http://www.w3.org/2000/svg" xmlns:xlink="http://www.w3.org/1999/xlink">
    <!-- Generator: Sketch 48.2 (47327) - http://www.bohemiancoding.com/sketch -->
    <title>icon_find_a_location</title>
    <desc>Created with Sketch.</desc>
    <defs></defs>
    <g id="Icons" stroke="none" stroke-width="1" fill="none" fill-rule="evenodd">
        <g id="icon_find_a_location">
            <rect id="Rectangle" fill="#FFFFFF" x="0" y="0" width="24" height="24"></rect>
            <g id="Group-17" transform="translate(3.000000, 4.000000)" fill="#000000">
                <path d="M10.6887536,9.94965625 C10.3171821,10.0468437 9.93211071,10.0959062 9.543825,10.0959062 C7.12186071,10.0959062 5.15118214,8.18028125 5.15118214,5.82559375 C5.15118214,3.47059375 7.12186071,1.55496875 9.543825,1.55496875 C9.76561071,1.55496875 9.94528929,1.38028125 9.94528929,1.16465625 C9.94528929,0.94903125 9.76561071,0.77434375 9.543825,0.77434375 C6.67925357,0.77434375 4.348575,3.04028125 4.348575,5.82559375 C4.348575,7.07778125 4.82268214,8.22246875 5.601825,9.10590625 L0.289253571,14.2715312 C0.132396429,14.4237187 0.132396429,14.6705937 0.289253571,14.8230937 C0.367682143,14.8993437 0.470217857,14.9374687 0.572753571,14.9374687 C0.675610714,14.9374687 0.778146429,14.8993437 0.856575,14.8230937 L6.16914643,9.65778125 C7.07814643,10.4155937 8.25586071,10.8762187 9.543825,10.8762187 C10.0025036,10.8762187 10.457325,10.8180937 10.8970393,10.7034062 C11.1111107,10.6471562 11.2383964,10.4330937 11.1805393,10.2249687 C11.123325,10.0171562 10.902825,9.89309375 10.6887536,9.94965625" id="Fill-75"></path>
                <path d="M14.1234107,6.04859375 C12.8296607,6.04859375 11.7805179,5.02890625 11.7805179,3.77078125 C11.7805179,2.51296875 12.8296607,1.49296875 14.1234107,1.49296875 C15.4171607,1.49296875 16.4663036,2.51296875 16.4663036,3.77078125 C16.4663036,5.02890625 15.4171607,6.04859375 14.1234107,6.04859375 M14.1234107,0.23984375 C11.7593036,0.23984375 10.0480179,2.43359375 10.686375,4.64703125 L13.0019464,12.6782812 C13.3294821,13.8157812 14.9903036,13.8098437 15.3098036,12.6704687 L17.5675179,4.62328125 C18.1869107,2.41578125 16.4772321,0.23984375 14.1234107,0.23984375" id="Fill-77"></path>
                <path d="M15.1533,3.37784375 L14.5355143,3.37784375 L14.5355143,2.77721875 C14.5355143,2.56159375 14.3561571,2.38721875 14.13405,2.38721875 C13.9125857,2.38721875 13.7329071,2.56159375 13.7329071,2.77721875 L13.7329071,3.37784375 L13.1151214,3.37784375 C12.8933357,3.37784375 12.7136571,3.55253125 12.7136571,3.76815625 C12.7136571,3.98378125 12.8933357,4.15846875 13.1151214,4.15846875 L13.7329071,4.15846875 L13.7329071,4.75846875 C13.7329071,4.97409375 13.9125857,5.14878125 14.13405,5.14878125 C14.3561571,5.14878125 14.5355143,4.97409375 14.5355143,4.75846875 L14.5355143,4.15846875 L15.1533,4.15846875 C15.3750857,4.15846875 15.5547643,3.98378125 15.5547643,3.76815625 C15.5547643,3.55253125 15.3750857,3.37784375 15.1533,3.37784375" id="Fill-79"></path>
            </g>
        </g>
    </g>
</svg>