<?xml version="1.0" encoding="UTF-8"?>
<svg width="18px" height="18px" viewBox="0 0 18 18" version="1.1" xmlns="http://www.w3.org/2000/svg" xmlns:xlink="http://www.w3.org/1999/xlink">
    <!-- Generator: Sketch 48.2 (47327) - http://www.bohemiancoding.com/sketch -->
    <title>icon_transit</title>
    <desc>Created with Sketch.</desc>
    <defs></defs>
    <g id="Icons" stroke="none" stroke-width="1" fill="none" fill-rule="evenodd">
        <g id="icon_transit" transform="translate(-3.000000, -3.000000)">
            <rect id="Rectangle" x="0" y="0" width="24" height="24"></rect>
            <path d="M18.8796134,14.1825873 C18.8796134,14.3625596 18.7217025,14.5200738 18.5412769,14.5200738 L17.1429012,14.5200738 C17.1429012,13.8226427 16.6013159,13.25996 15.9024365,13.25996 C15.2029403,13.25996 14.6391488,13.8226427 14.6391488,14.5200738 L12.2479696,14.5200738 L12.2479696,6.19520074 L18.5412769,6.19520074 C18.7217025,6.19520074 18.8796134,6.35240732 18.8796134,6.55514536 L18.8796134,14.1825873 Z M16.8042562,17.7826488 C16.375861,17.7826488 16.0600391,17.4451623 16.0600391,17.0399938 C16.0600391,16.6351331 16.375861,16.2976465 16.8042562,16.2976465 C17.2104452,16.2976465 17.5262671,16.6351331 17.5262671,17.0399938 C17.5262671,17.4451623 17.2104452,17.7826488 16.8042562,17.7826488 Z M15,14.5200738 C15,14.0250731 15.4058805,13.6426704 15.9024365,13.6426704 C16.3983757,13.6426704 16.78205,14.0250731 16.78205,14.5200738 L15,14.5200738 Z M11.7745451,14.5200738 L5.48123779,14.5200738 C5.2779891,14.5200738 5.12007813,14.3625596 5.12007813,14.1825873 L5.12007813,6.55514536 C5.12007813,6.35240732 5.2779891,6.19520074 5.48123779,6.19520074 L11.7745451,6.19520074 L11.7745451,14.5200738 Z M7.21764162,17.7826488 C6.81176108,17.7826488 6.47342449,17.4451623 6.47342449,17.0399938 C6.47342449,16.6351331 6.81176108,16.2976465 7.21764162,16.2976465 C7.62383057,16.2976465 7.96247558,16.6351331 7.96247558,17.0399938 C7.96247558,17.4451623 7.62383057,17.7826488 7.21764162,17.7826488 Z M8.93214763,4.01245962 C8.93214763,3.92262729 9,3.85494539 9.0900586,3.85494539 L14.9099414,3.85494539 C15,3.85494539 15.090367,3.92262729 15.090367,4.01245962 L15.090367,5.09260114 C15.090367,5.18243347 15,5.27257345 14.9099414,5.27257345 L9.0900586,5.27257345 C9,5.27257345 8.93214763,5.18243347 8.93214763,5.09260114 L8.93214763,4.01245962 Z M20.2782975,6.48746347 L20.2782975,3.67497308 C20.2782975,3.29257037 19.9849902,3 19.6016243,3 L4.39837566,3 C4.03752442,3 3.72170248,3.29257037 3.72170248,3.67497308 L3.72170248,6.48746347 C3.31551352,6.5102292 3,6.82495001 3,7.23011844 L3,9.03014921 C3,9.43501 3.31551352,9.77249654 3.72170248,9.79495462 L3.72170248,18.3001077 C3.72170248,18.6600523 4.03752442,18.9750808 4.39837566,18.9750808 L5.61632569,18.9750808 L5.61632569,20.0776804 C5.61632569,20.5951392 6.02220623,21 6.54127686,21 L8.02971111,21 C8.52626709,21 8.95466228,20.5951392 8.95466228,20.0776804 L8.95466228,18.9750808 L15.0678524,18.9750808 L15.0678524,20.0776804 C15.0678524,20.5951392 15.4737329,21 15.9924951,21 L17.4587231,21 C17.9774854,21 18.406189,20.5951392 18.406189,20.0776804 L18.406189,18.9750808 L19.6016243,18.9750808 C19.9849902,18.9750808 20.2782975,18.6600523 20.2782975,18.3001077 L20.2782975,9.79495462 C20.6844865,9.77249654 21,9.43501 21,9.03014921 L21,7.23011844 C21,6.82495001 20.6844865,6.5102292 20.2782975,6.48746347 Z" id="Fill-237" fill="#272727"></path>
        </g>
    </g>
</svg>