<svg width="10" height="18" xmlns="http://www.w3.org/2000/svg"><g fill="none" fill-rule="evenodd"><path d="M-7-3h24v24H-7z"/><g fill="#272727"><path d="M6.51 13.87l-1.436-2.314-1.011 2.734-2 2.948c-.326.535-.707.874-1.246.728-.538-.145-.912-.723-.663-1.239l2.043-3.277.89-3.142c.054-.289-.133-.754-.133-.754-.175-.646-.056-1.03-.056-1.03l.53-2.941-1.316 1.105-.54 2.231c-.085.467-.347.815-.794.819-.448.004-.815-.38-.775-.786L.699 6.18c.086-.543.404-.723.404-.723L3.98 3.46a2.636 2.636 0 0 1 2.764.5l1.398 2.704 1.58 1.166c.338.353.381.848.05 1.149-.286.258-.832.083-1.105-.189L7.296 7.78c-.27-.158-.893-1.41-.893-1.41l-.42 2.648a.66.66 0 0 0 .1.535l2.157 3.344.602 3.835c.141.629-.148 1.08-.648 1.206a.934.934 0 0 1-1.151-.678l-.534-3.392z"/><path d="M5.522.025C6.426-.132 7.3.462 7.47 1.352a1.614 1.614 0 0 1-1.326 1.896A1.69 1.69 0 0 1 4.196 1.92 1.615 1.615 0 0 1 5.522.025"/></g></g></svg>