<svg width="24" height="24" xmlns="http://www.w3.org/2000/svg"><g fill="none" fill-rule="evenodd"><path fill="#FFF" d="M0 0h24v24H0z"/><g fill="#000"><path d="M20.477 9.705a.586.586 0 1 0-1.135.294 7.63 7.63 0 0 1 .245 1.923c0 4.197-3.414 7.611-7.611 7.611-4.197 0-7.612-3.414-7.612-7.611 0-4.197 3.415-7.61 7.612-7.61 1.331 0 2.641.347 3.787 1.007a.587.587 0 0 0 .585-1.017 8.783 8.783 0 0 0-4.372-1.164c-4.844 0-8.784 3.94-8.784 8.784 0 4.843 3.94 8.784 8.784 8.784 4.843 0 8.783-3.94 8.783-8.784a8.79 8.79 0 0 0-.282-2.217"/><path d="M11.915 14.516c-.052.026-.17-.015-.232-.09l-2.77-3.87a.587.587 0 0 0-.954.683l2.793 3.9c.287.35.709.55 1.16.55h.011a1.5 1.5 0 0 0 1.172-.58l7.038-9.419a.586.586 0 1 0-.939-.702l-7.027 9.405a.32.32 0 0 1-.252.123"/></g></g></svg>