<svg width="24" height="24" xmlns="http://www.w3.org/2000/svg"><g fill="none" fill-rule="evenodd"><path fill="#FFF" d="M0 0h24v24H0z"/><path d="M19.707 18.753c-.369.349-.85.54-1.357.54h-5.29c.736-.79.803-2.036.139-2.959l-.974-1.353h6.914l.758 1.053c.61.847.526 2.042-.19 2.72zm-15.565.11c-.562-.541-.611-1.48-.113-2.14l.25-.33h7.938c.052 0 .1-.013.145-.035l.285.396c.475.66.41 1.592-.147 2.118a1.53 1.53 0 0 1-1.057.421H5.208c-.4 0-.778-.152-1.066-.43zm2.967-6.206V8.401h2.585v4.251l2.184 3.035H4.814l2.295-3.03zm5.82-1.651v-5.28c0-.007-.003-.013-.003-.02h3.353c0 .007-.004.013-.004.02V11l2.356 3.273h-6.915l-.615-.854 1.829-2.414zm7.52 4.607l-3.487-4.845V5.726c0-.007-.003-.013-.003-.02h.578c.19 0 .344-.158.344-.353A.348.348 0 0 0 17.537 5h-6.056a.348.348 0 0 0-.344.353c0 .195.153.353.344.353h.765c0 .007-.004.013-.004.02v5.037l-1.565 2.067-.296-.411V8.4h.403c.19 0 .343-.159.343-.354a.348.348 0 0 0-.343-.353H5.868a.348.348 0 0 0-.344.353.35.35 0 0 0 .344.354h.554v4.013L3.487 16.29c-.715.944-.634 2.301.185 3.09.416.4.961.621 1.536.621h6.235c.078 0 .155-.005.232-.013.02.004.04.013.062.013h6.613a2.64 2.64 0 0 0 1.822-.727c.987-.934 1.107-2.507.277-3.66z" fill="#000"/></g></svg>