<?xml version="1.0" encoding="UTF-8"?>
<svg width="24px" height="24px" viewBox="0 0 24 24" version="1.1" xmlns="http://www.w3.org/2000/svg" xmlns:xlink="http://www.w3.org/1999/xlink">
    <!-- Generator: Sketch 48.2 (47327) - http://www.bohemiancoding.com/sketch -->
    <title>icon_print</title>
    <desc>Created with Sketch.</desc>
    <defs></defs>
    <g id="Icons" stroke="none" stroke-width="1" fill="none" fill-rule="evenodd">
        <g id="icon_print">
            <rect id="Rectangle" fill="#FFFFFF" x="0" y="0" width="24" height="24"></rect>
            <g id="Group-20" transform="translate(4.000000, 3.000000)" fill="#000000">
                <path d="M3.95601064,5.43618621 C4.52888298,5.43618621 4.99324468,4.98463448 4.99324468,4.42725517 C4.99324468,3.87018621 4.52888298,3.41863448 3.95601064,3.41863448 C3.3831383,3.41863448 2.9187766,3.87018621 2.9187766,4.42725517 C2.9187766,4.98463448 3.3831383,5.43618621 3.95601064,5.43618621" id="Fill-125"></path>
                <path d="M11.7764043,6.88729655 L3.17470213,6.88729655 C2.97938298,6.88729655 2.82108511,7.04091724 2.82108511,7.23084828 C2.82108511,7.42108966 2.97938298,7.57471034 3.17470213,7.57471034 L11.7764043,7.57471034 C11.9717234,7.57471034 12.1297021,7.42108966 12.1297021,7.23084828 C12.1297021,7.04091724 11.9717234,6.88729655 11.7764043,6.88729655" id="Fill-127"></path>
                <path d="M11.7764043,8.68177241 L3.17470213,8.68177241 C2.97938298,8.68177241 2.82108511,8.8353931 2.82108511,9.02532414 C2.82108511,9.21525517 2.97938298,9.36918621 3.17470213,9.36918621 L11.7764043,9.36918621 C11.9717234,9.36918621 12.1297021,9.21525517 12.1297021,9.02532414 C12.1297021,8.8353931 11.9717234,8.68177241 11.7764043,8.68177241" id="Fill-129"></path>
                <path d="M11.7764043,10.4765586 L3.17470213,10.4765586 C2.97938298,10.4765586 2.82108511,10.6301793 2.82108511,10.8201103 C2.82108511,11.0100414 2.97938298,11.1636621 3.17470213,11.1636621 L11.7764043,11.1636621 C11.9717234,11.1636621 12.1297021,11.0100414 12.1297021,10.8201103 C12.1297021,10.6301793 11.9717234,10.4765586 11.7764043,10.4765586" id="Fill-131"></path>
                <path d="M11.7764043,12.2713448 L3.17470213,12.2713448 C2.97938298,12.2713448 2.82108511,12.4249655 2.82108511,12.6145862 C2.82108511,12.8048276 2.97938298,12.9584483 3.17470213,12.9584483 L11.7764043,12.9584483 C11.9717234,12.9584483 12.1297021,12.8048276 12.1297021,12.6145862 C12.1297021,12.4249655 11.9717234,12.2713448 11.7764043,12.2713448" id="Fill-133"></path>
                <path d="M11.7764043,14.0658207 L3.17470213,14.0658207 C2.97938298,14.0658207 2.82108511,14.2194414 2.82108511,14.4093724 C2.82108511,14.5996138 2.97938298,14.7532345 3.17470213,14.7532345 L11.7764043,14.7532345 C11.9717234,14.7532345 12.1297021,14.5996138 12.1297021,14.4093724 C12.1297021,14.2194414 11.9717234,14.0658207 11.7764043,14.0658207" id="Fill-135"></path>
                <path d="M12.7322872,17.0980759 L2.21888298,17.0980759 C1.50781915,17.0980759 0.929202128,16.535731 0.929202128,15.8439724 L0.929202128,2.04231724 C0.929202128,1.35086897 1.50781915,0.788213793 2.21888298,0.788213793 L9.88196809,0.788213793 L9.88196809,2.80266207 C9.88196809,3.87335172 10.7778191,4.74417931 11.8782447,4.74417931 L14.0216489,4.74417931 L14.0216489,15.8439724 C14.0216489,16.535731 13.4436702,17.0980759 12.7322872,17.0980759 M14.4327128,3.79793793 L11.0363298,0.40742069 C10.8410106,0.212834483 10.5694149,0.1008 10.2901596,0.1008 L2.21888298,0.1008 C1.1181383,0.1008 0.222606383,0.971937931 0.222606383,2.04231724 L0.222606383,15.8439724 C0.222606383,16.9143517 1.1181383,17.7854897 2.21888298,17.7854897 L12.7322872,17.7854897 C13.8330319,17.7854897 14.7285638,16.9143517 14.7285638,15.8439724 L14.7285638,4.50490345 C14.7285638,4.23893793 14.623883,3.98786897 14.4327128,3.79793793" id="Fill-137"></path>
            </g>
        </g>
    </g>
</svg>