<svg width="24" height="24" xmlns="http://www.w3.org/2000/svg"><g fill="none" fill-rule="evenodd"><path fill="#FFF" d="M0 0h24v24H0z"/><path d="M11.7 7.649zm-1.6-3.461l-1.543.773c-1.274.638-1.812 2.237-1.2 3.564l4.535 9.813c.613 1.327 2.15 1.887 3.423 1.249l1.544-.774-1.55-3.355-1.255.629c-.665.332-1.465.04-1.786-.652l-2.491-5.392c-.318-.687-.041-1.519.617-1.854l1.259-.642-1.552-3.36zM14.21 21c-1.367 0-2.68-.798-3.312-2.163L6.362 9.024c-.877-1.899-.107-4.186 1.716-5.099l1.644-.823a.978.978 0 0 1 1.326.484l1.647 3.565c.236.51.03 1.129-.458 1.378l-1.357.692a.248.248 0 0 0-.108.324l2.492 5.392a.23.23 0 0 0 .311.113l1.354-.678a.978.978 0 0 1 1.327.484l1.646 3.562c.237.515.029 1.134-.465 1.381l-1.643.824a3.53 3.53 0 0 1-1.585.377z" fill="#000"/></g></svg>