<svg width="24" height="24" xmlns="http://www.w3.org/2000/svg"><g fill="none" fill-rule="evenodd"><path fill="#FFF" d="M0 0h24v24H0z"/><path d="M21 6.775a7.208 7.208 0 0 1-2.121.596 3.776 3.776 0 0 0 1.624-2.095 7.259 7.259 0 0 1-2.346.92A3.643 3.643 0 0 0 15.462 5c-2.04 0-3.693 1.695-3.693 3.788 0 .296.033.584.096.861-3.07-.157-5.79-1.665-7.612-3.956-.318.56-.5 1.21-.5 1.904 0 1.313.653 2.473 1.643 3.152a3.618 3.618 0 0 1-1.673-.474v.048c0 1.835 1.273 3.365 2.962 3.714a3.65 3.65 0 0 1-1.667.064c.47 1.504 1.834 2.6 3.45 2.63A7.29 7.29 0 0 1 3 18.299 10.262 10.262 0 0 0 8.661 20c6.793 0 10.506-5.77 10.506-10.774 0-.164-.003-.328-.01-.49A7.603 7.603 0 0 0 21 6.776" fill="#000"/></g></svg>