<svg width="24" height="24" xmlns="http://www.w3.org/2000/svg"><g fill="none" fill-rule="evenodd"><path fill="#FFF" d="M0 0h24v24H0z"/><g fill="#000"><path d="M20.637 18.365a9.168 9.168 0 0 0-.43-1.355.343.343 0 0 0-.448-.19.352.352 0 0 0-.187.457c.164.404.297.824.396 1.25.09.387.003.788-.239 1.098a1.234 1.234 0 0 1-.978.483H5.217c-.384 0-.741-.176-.98-.483A1.3 1.3 0 0 1 4 18.528c.63-2.71 2.608-4.961 5.179-5.915a4.94 4.94 0 0 0 4.158.685.35.35 0 0 0 .239-.43.342.342 0 0 0-.423-.243 4.279 4.279 0 0 1-1.168.161c-2.396 0-4.345-1.983-4.345-4.42 0-2.438 1.949-4.422 4.345-4.422a4.28 4.28 0 0 1 2.302.671.34.34 0 0 0 .474-.11.353.353 0 0 0-.109-.482 4.953 4.953 0 0 0-2.667-.778c-2.775 0-5.032 2.297-5.032 5.12 0 1.477.62 2.806 1.607 3.74-2.599 1.109-4.578 3.462-5.23 6.262a2.006 2.006 0 0 0 .37 1.692 1.91 1.91 0 0 0 1.518.748H18.75a1.91 1.91 0 0 0 1.517-.747c.373-.48.507-1.097.369-1.695"/><path d="M8.545 8.365c0 .194.154.35.344.35.19 0 .343-.156.343-.35 0-1.543 1.235-2.8 2.752-2.8.19 0 .343-.155.343-.349a.347.347 0 0 0-.343-.35c-1.896 0-3.439 1.57-3.439 3.5m8.427-1.5c.982 0 1.778.81 1.778 1.81 0 .999-.796 1.808-1.778 1.808s-1.778-.81-1.778-1.809c0-.999.796-1.809 1.778-1.809m-3.253 2.726l2.191 7.955c.31 1.127 1.883 1.122 2.185-.007l2.137-7.972c.586-2.187-1.032-4.343-3.26-4.343-2.238 0-3.857 2.174-3.253 4.367"/></g></g></svg>