<svg width="18" height="18" xmlns="http://www.w3.org/2000/svg"><g fill="none" fill-rule="evenodd"><path d="M-3-3h24v24H-3z"/><path d="M16.868 2.009A4.904 4.904 0 0 0 12.913 0 5.68 5.68 0 0 0 8.96 1.722 5.001 5.001 0 0 0 5.287 0a4.904 4.904 0 0 0-3.953 2.009c-3.532 4.492.847 8.894 2.824 10.903l.565.574a47.498 47.498 0 0 0 3.389 3.73c.282.574.282.574.564.574a.982.982 0 0 0 .565-.286s1.13-1.435 3.104-3.441c1.695-1.435 5.366-4.878 5.648-8.321a5.83 5.83 0 0 0-1.125-3.733zm-8.19 14.92s-1.978-2.294-3.39-3.73a12.487 12.487 0 0 0-1.977-2.295h.565c.283 0 .283 0 .283-.286L5.57 7.177l1.412 5.451a.278.278 0 0 0 .283.287c.282 0 .282 0 .282-.287L8.96 8.324l.565 1.435a.278.278 0 0 0 .283.286h5.084c-.85 1.145-6.215 6.884-6.215 6.884zm7.059-7.747h-5.366l-.847-2.009a.278.278 0 0 0-.283-.286c-.283 0-.283 0-.283.286l-1.693 3.73-1.13-5.165a.982.982 0 0 0-.565-.286l-.283.286-1.694 4.305h-.847C1.05 7.749-.078 5.165 2.18 2.583 3.311 1.435 4.441.86 5.571.86c1.694 0 3.103 2.008 3.103 2.008S10.65.861 12.91.861c1.13 0 1.977.287 3.104 1.722 1.7 2.005 1.135 4.59-.277 6.599z" fill="#000" fill-rule="nonzero"/></g></svg>