<svg width="24" height="24" xmlns="http://www.w3.org/2000/svg"><g fill="none" fill-rule="evenodd"><path fill="#FFF" d="M0 0h24v24H0z"/><path d="M5.216 18.113c-.131 0-.255-.025-.375-.06l4.994-4.874.934.898c.34.33.785.495 1.231.495a1.76 1.76 0 0 0 1.23-.495l.93-.902 4.953 4.892a1.315 1.315 0 0 1-.33.046H5.216zm-1.105-.603a1.237 1.237 0 0 1-.2-.669V8.158c0-.197.05-.383.134-.55l5.142 4.947L4.11 17.51zM18.783 6.887c.167 0 .325.034.471.09l-6.667 6.472a.848.848 0 0 1-1.176 0L4.7 6.991c.158-.067.333-.105.516-.105h13.567zm-3.979 5.662l5.13-4.98c.096.177.155.376.155.59v8.682c0 .262-.081.505-.221.707l-5.064-5zM18.784 6H5.215C3.994 6 3 6.968 3 8.158v8.683C3 18.031 3.994 19 5.216 19h13.567C20.006 19 21 18.032 21 16.841V8.158C21 6.968 20.006 6 18.783 6z" fill="#000"/></g></svg>