<svg width="24" height="24" xmlns="http://www.w3.org/2000/svg"><g fill="none" fill-rule="evenodd"><path fill="#FFF" d="M0 0h24v24H0z"/><path d="M18.26 18.067h-2.72v-4.349c0-1.091-.392-1.837-1.376-1.837-.75 0-1.198.502-1.395.988-.072.175-.09.416-.09.66v4.538H9.962s.035-7.365 0-8.128h2.719v1.15c.361-.552 1.007-1.34 2.45-1.34 1.788 0 3.13 1.161 3.13 3.658v4.66zM7.097 8.83h-.018c-.913 0-1.502-.624-1.502-1.405 0-.796.608-1.403 1.538-1.403s1.502.607 1.52 1.403c0 .78-.59 1.405-1.538 1.405zm-1.36 9.237h2.719V9.94h-2.72v8.128zM19.67 3H4.33C3.594 3 3 3.577 3 4.289V19.71c0 .711.595 1.29 1.33 1.29h15.34c.735 0 1.33-.579 1.33-1.29V4.29C21 3.577 20.405 3 19.67 3z" fill="#000"/></g></svg>