<?xml version="1.0" encoding="UTF-8"?>
<svg width="24px" height="24px" viewBox="0 0 24 24" version="1.1" xmlns="http://www.w3.org/2000/svg" xmlns:xlink="http://www.w3.org/1999/xlink">
    <!-- Generator: Sketch 48.2 (47327) - http://www.bohemiancoding.com/sketch -->
    <title>icon_refer_patient</title>
    <desc>Created with Sketch.</desc>
    <defs></defs>
    <g id="Icons" stroke="none" stroke-width="1" fill="none" fill-rule="evenodd">
        <g id="icon_refer_patient">
            <rect id="Rectangle" fill="#FFFFFF" x="0" y="0" width="24" height="24"></rect>
            <g id="Group-12" transform="translate(3.000000, 4.000000)" fill="#000000">
                <path d="M5.5826,4.71734286 C5.5826,3.32077143 6.71917143,2.18448571 8.11574286,2.18448571 C8.29088571,2.18448571 8.43231429,2.04305714 8.43231429,1.8682 C8.43231429,1.69334286 8.29088571,1.55191429 8.11574286,1.55191429 C6.37031429,1.55191429 4.95002857,2.97191429 4.95002857,4.71734286 C4.95002857,4.8922 5.09145714,5.03362857 5.2666,5.03362857 C5.44117143,5.03362857 5.5826,4.8922 5.5826,4.71734286" id="Fill-115"></path>
                <path d="M15.4662286,13.9107143 C15.5490857,14.2615714 15.4693714,14.6238571 15.2468,14.9052857 C15.0276571,15.1824286 14.6990857,15.3415714 14.3456571,15.3415714 L1.88622857,15.3415714 C1.53251429,15.3415714 1.20394286,15.1824286 0.984514286,14.905 C0.762228571,14.6241429 0.682514286,14.2621429 0.765085714,13.9124286 C1.31222857,11.5984286 2.96594286,9.65214286 5.13965714,8.71585714 L5.13965714,10.8601429 C4.31822857,11.0098571 3.69337143,11.729 3.69337143,12.5927143 L3.69337143,13.6178571 C3.69337143,13.9995714 4.00365714,14.3095714 4.38508571,14.3095714 L4.79022857,14.3095714 C4.96508571,14.3095714 5.10651429,14.1681429 5.10651429,13.9932857 C5.10651429,13.8184286 4.96508571,13.677 4.79022857,13.677 L4.38508571,13.677 C4.35251429,13.677 4.32622857,13.6501429 4.32622857,13.6178571 L4.32622857,12.5927143 C4.32622857,11.9698571 4.83308571,11.463 5.45594286,11.463 C6.07908571,11.463 6.58594286,11.9698571 6.58594286,12.5927143 L6.58594286,13.6178571 C6.58594286,13.6501429 6.55965714,13.677 6.52737143,13.677 L6.12194286,13.677 C5.94708571,13.677 5.80537143,13.8184286 5.80537143,13.9932857 C5.80537143,14.1681429 5.94708571,14.3095714 6.12194286,14.3095714 L6.52737143,14.3095714 C6.90851429,14.3095714 7.2188,13.9995714 7.2188,13.6178571 L7.2188,12.5927143 C7.2188,11.729 6.59365714,11.0098571 5.77222857,10.8601429 L5.77222857,8.707 C6.4608,9.113 7.26022857,9.35014286 8.11565714,9.35014286 C8.94108571,9.35014286 9.71508571,9.13071429 10.3870857,8.75071429 L10.3870857,12.2172857 C10.1128,12.339 9.92051429,12.613 9.92051429,12.9324286 C9.92051429,13.3647143 10.2708,13.715 10.7030857,13.715 C11.1356571,13.715 11.4859429,13.3647143 11.4859429,12.9324286 C11.4859429,12.613 11.2939429,12.3392857 11.0196571,12.2175714 L11.0196571,8.68585714 C13.2539429,9.61557143 14.9062286,11.5452857 15.4662286,13.9107143 M4.11594286,4.71728571 C4.11594286,2.51185714 5.91051429,0.717571429 8.11565714,0.717571429 C10.3210857,0.717571429 12.1153714,2.51185714 12.1153714,4.71728571 C12.1153714,6.923 10.3210857,8.71757143 8.11565714,8.71757143 C5.91051429,8.71757143 4.11594286,6.923 4.11594286,4.71728571 M17.9490857,8.84242857 C17.9488,8.81271429 17.9402286,8.78414286 17.9316571,8.75528571 C17.9282286,8.74414286 17.9285143,8.73185714 17.9242286,8.72128571 C17.9193714,8.71014286 17.9093714,8.70128571 17.9030857,8.69042857 C17.8888,8.66528571 17.8745143,8.64014286 17.8536571,8.61985714 C17.8530857,8.619 17.8528,8.61785714 17.8516571,8.61671429 L16.2699429,7.11014286 C16.1436571,6.99071429 15.9436571,6.99442857 15.8225143,7.12128571 C15.7019429,7.24785714 15.7068,7.44814286 15.8333714,7.56871429 L16.8422286,8.52957143 L12.1950857,8.52957143 C12.1805143,8.52957143 12.1682286,8.53585714 12.1542286,8.53785714 C11.8693714,8.37642857 11.5733714,8.23157143 11.2668,8.10385714 C12.1756571,7.25728571 12.7482286,6.05442857 12.7482286,4.71728571 C12.7482286,2.163 10.6702286,0.085 8.11565714,0.085 C5.56137143,0.085 3.48337143,2.163 3.48337143,4.71728571 C3.48337143,6.05328571 4.05508571,7.25528571 4.96251429,8.10157143 C2.5708,9.10414286 0.748228571,11.2327143 0.149085714,13.7667143 C0.0216571429,14.3061429 0.145371429,14.8641429 0.488228571,15.2975714 C0.828514286,15.7275714 1.33794286,15.9744286 1.88622857,15.9744286 L14.3456571,15.9744286 C14.8936571,15.9744286 15.4030857,15.7275714 15.7430857,15.2975714 C16.0865143,14.8635714 16.2099429,14.305 16.0816571,13.765 C15.6413714,11.9047143 14.5779429,10.2924286 13.1028,9.16242857 L16.9099429,9.16242857 L15.8290857,10.1918571 C15.7022286,10.3124286 15.6973714,10.5127143 15.8176571,10.6392857 C15.8802286,10.7047143 15.9636571,10.7375714 16.0470857,10.7375714 C16.1256571,10.7375714 16.2039429,10.7084286 16.2650857,10.6501429 L17.8516571,9.13957143 C17.9250857,9.06928571 17.9528,8.97271429 17.9433714,8.879 C17.9445143,8.86757143 17.9496571,8.85757143 17.9496571,8.84585714 C17.9496571,8.84471429 17.9490857,8.84385714 17.9490857,8.84242857" id="Fill-117"></path>
            </g>
        </g>
    </g>
</svg>