<svg width="24" height="24" xmlns="http://www.w3.org/2000/svg"><g fill="none" fill-rule="evenodd"><path fill="#FFF" d="M0 0h24v24H0z"/><g fill="#000"><path d="M20.007 13.85c0 .933-.736 1.692-1.642 1.692h-.876c-1.078 0-2.132.39-2.964 1.097l-2.88 2.45a.184.184 0 0 1-.206.026.193.193 0 0 1-.112-.18v-1.287c0-1.162-.916-2.106-2.044-2.106H5.726c-.905 0-1.642-.76-1.642-1.692V6.798c0-.933.737-1.692 1.642-1.692h12.64c.905 0 1.641.76 1.641 1.692v7.052zm-1.642-9.549H5.726c-1.336 0-2.423 1.12-2.423 2.497v7.052c0 1.377 1.087 2.497 2.423 2.497h3.557c.697 0 1.263.583 1.263 1.3v1.288a1 1 0 0 0 .56.91.953.953 0 0 0 1.037-.134l2.88-2.45a3.814 3.814 0 0 1 2.466-.914h.876c1.337 0 2.424-1.12 2.424-2.497V6.798c0-1.377-1.087-2.497-2.424-2.497z"/><path d="M7.728 11.232l1.155-2.824 1.156 2.824H7.73zM9.254 7.24a.389.389 0 0 0-.37-.243.388.388 0 0 0-.37.243L6.22 12.842a.408.408 0 0 0 .208.528c.05.022.101.032.152.032a.39.39 0 0 0 .36-.246l.458-1.118h2.97l.457 1.118a.39.39 0 0 0 .512.214.407.407 0 0 0 .208-.528L9.254 7.24zm8.256 1.538h-1.6v-.792a.397.397 0 0 0-.391-.403c-.216 0-.39.18-.39.403v.792h-1.602c-.216 0-.39.18-.39.402 0 .223.174.403.39.403h1.537a8.834 8.834 0 0 1-1.576 3.163.41.41 0 0 0 .059.566.381.381 0 0 0 .55-.06 9.61 9.61 0 0 0 1.423-2.53c.33.873.781 1.689 1.348 2.433l.07.092a.386.386 0 0 0 .549.07c.17-.138.2-.39.067-.566l-.07-.092a8.855 8.855 0 0 1-1.51-3.076h1.538c.216 0 .39-.18.39-.403a.396.396 0 0 0-.39-.402"/></g></g></svg>