<?xml version="1.0" encoding="UTF-8"?>
<svg width="24px" height="24px" viewBox="0 0 24 24" version="1.1" xmlns="http://www.w3.org/2000/svg" xmlns:xlink="http://www.w3.org/1999/xlink">
    <!-- Generator: Sketch 48.2 (47327) - http://www.bohemiancoding.com/sketch -->
    <title>icon_parking</title>
    <desc>Created with Sketch.</desc>
    <defs></defs>
    <g id="Icons" stroke="none" stroke-width="1" fill="none" fill-rule="evenodd">
        <g id="icon_parking">
            <rect id="Rectangle" fill="#FFFFFF" x="0" y="0" width="24" height="24"></rect>
            <g id="Group-26" transform="translate(3.000000, 3.000000)" fill="#000000">
                <path d="M1.633875,16.34625 L16.3905,16.34625 L16.3905,1.58925 L1.633875,1.58925 L1.633875,16.34625 Z M16.3905,0.113625 L1.633875,0.113625 C0.822375,0.113625 0.15825,0.77775 0.15825,1.58925 L0.15825,16.34625 C0.15825,17.157 0.822375,17.8215 1.633875,17.8215 L16.3905,17.8215 C17.202,17.8215 17.8665,17.157 17.8665,16.34625 L17.8665,1.58925 C17.8665,0.77775 17.202,0.113625 16.3905,0.113625 Z" id="Fill-252"></path>
                <path d="M9.75,8.2298625 L6.79875,8.2298625 L6.79875,5.2782375 L9.75,5.2782375 C10.56525,5.2782375 11.226,5.9389875 11.226,6.7538625 C11.226,7.5691125 10.56525,8.2298625 9.75,8.2298625 M9.75,3.8026125 L5.32275,3.8026125 L5.32275,14.1327375 L6.79875,14.1327375 L6.79875,9.7054875 L9.75,9.7054875 C11.37975,9.7054875 12.701625,8.3839875 12.701625,6.7538625 C12.701625,5.1241125 11.37975,3.8026125 9.75,3.8026125" id="Fill-254"></path>
            </g>
        </g>
    </g>
</svg>