<?xml version="1.0" encoding="UTF-8"?>
<svg width="24px" height="24px" viewBox="0 0 24 24" version="1.1" xmlns="http://www.w3.org/2000/svg" xmlns:xlink="http://www.w3.org/1999/xlink">
    <!-- Generator: Sketch 48.2 (47327) - http://www.bohemiancoding.com/sketch -->
    <title>icon_provider_bio</title>
    <desc>Created with Sketch.</desc>
    <defs></defs>
    <g id="Icons" stroke="none" stroke-width="1" fill="none" fill-rule="evenodd">
        <g id="icon_provider_bio">
            <rect id="Rectangle" fill="#FFFFFF" x="0" y="0" width="24" height="24"></rect>
            <g id="Group-21" transform="translate(3.000000, 5.000000)" fill="#000000">
                <path d="M5.22044348,4.50478947 C5.22044348,3.21847368 6.25792174,2.17189474 7.53331304,2.17189474 C7.69296522,2.17189474 7.82209565,2.04163158 7.82209565,1.88057895 C7.82209565,1.71952632 7.69296522,1.58926316 7.53331304,1.58926316 C5.9394,1.58926316 4.64261739,2.89715789 4.64261739,4.50478947 C4.64261739,4.66584211 4.77174783,4.79610526 4.93166087,4.79610526 C5.09131304,4.79610526 5.22044348,4.66584211 5.22044348,4.50478947" id="Fill-139"></path>
                <path d="M16.6039304,12.1602632 L14.6101043,12.1602632 C14.4246261,11.6055263 14.1794087,11.0797368 13.878887,10.5915789 L16.0939304,10.5915789 C16.2535826,10.5915789 16.382713,10.4613158 16.382713,10.3002632 C16.382713,10.1392105 16.2535826,10.0086842 16.0939304,10.0086842 L13.4797565,10.0086842 C13.298713,9.76894737 13.1033217,9.54052632 12.894887,9.32447368 L16.0939304,9.32447368 C16.2535826,9.32447368 16.382713,9.19421053 16.382713,9.03315789 C16.382713,8.87210526 16.2535826,8.74184211 16.0939304,8.74184211 L12.2633217,8.74184211 C11.9568,8.48947368 11.6301913,8.25973684 11.2834957,8.05763158 L16.0939304,8.05763158 C16.2535826,8.05763158 16.382713,7.92736842 16.382713,7.76631579 C16.382713,7.605 16.2535826,7.47473684 16.0939304,7.47473684 L10.5640174,7.47473684 C10.7654087,7.26552632 10.9446261,7.03473684 11.1003652,6.78763158 C11.1058435,6.78789474 11.1100174,6.79078947 11.1152348,6.79078947 L16.0939304,6.79078947 C16.2535826,6.79078947 16.382713,6.66052632 16.382713,6.49921053 C16.382713,6.33815789 16.2535826,6.20789474 16.0939304,6.20789474 L11.4089739,6.20789474 C11.5039304,5.98894737 11.5782783,5.75973684 11.6359304,5.52342105 L16.0848,5.52342105 C16.088713,5.52342105 16.0918435,5.52131579 16.0957565,5.52131579 C16.1134957,5.52210526 16.1304522,5.52657895 16.1484522,5.52657895 L17.1911478,5.52657895 L17.1911478,11.5676316 C17.1911478,11.8944737 16.9276696,12.1602632 16.6039304,12.1602632 Z M14.0440174,13.8881579 C13.8439304,14.1436842 13.5441913,14.2902632 13.2212348,14.2902632 L1.84497391,14.2902632 C1.52227826,14.2902632 1.22201739,14.1436842 1.02193043,13.8878947 C0.818713043,13.6294737 0.745930435,13.2960526 0.821843478,12.9742105 C1.32114783,10.8423684 2.83106087,9.05 4.81575652,8.18736842 L4.81575652,10.1623684 C4.06575652,10.3005263 3.49549565,10.9626316 3.49549565,11.7584211 L3.49549565,12.7026316 C3.49549565,13.0539474 3.77853913,13.3394737 4.1268,13.3394737 L4.49697391,13.3394737 C4.65636522,13.3394737 4.78549565,13.2092105 4.78549565,13.0484211 C4.78549565,12.8873684 4.65636522,12.7571053 4.49697391,12.7571053 L4.1268,12.7571053 C4.09706087,12.7571053 4.07306087,12.7323684 4.07306087,12.7026316 L4.07306087,11.7584211 C4.07306087,11.1847368 4.53584348,10.7178947 5.1048,10.7178947 C5.67349565,10.7178947 6.13627826,11.1847368 6.13627826,11.7584211 L6.13627826,12.7026316 C6.13627826,12.7323684 6.11201739,12.7571053 6.08253913,12.7571053 L5.71236522,12.7571053 C5.55271304,12.7571053 5.42358261,12.8873684 5.42358261,13.0484211 C5.42358261,13.2092105 5.55271304,13.3394737 5.71236522,13.3394737 L6.08253913,13.3394737 C6.4308,13.3394737 6.71410435,13.0539474 6.71410435,12.7026316 L6.71410435,11.7584211 C6.71410435,10.9626316 6.14332174,10.3005263 5.39358261,10.1623684 L5.39358261,8.17921053 C6.02227826,8.55342105 6.75193043,8.77184211 7.53323478,8.77184211 C8.28662609,8.77184211 8.99306087,8.56973684 9.60636522,8.22 L9.60636522,11.4126316 C9.35593043,11.5247368 9.18062609,11.7768421 9.18062609,12.0710526 C9.18062609,12.4694737 9.50071304,12.7921053 9.89514783,12.7921053 C10.2898435,12.7921053 10.6096696,12.4694737 10.6096696,12.0710526 C10.6096696,11.7768421 10.4346261,11.5247368 10.1841913,11.4126316 L10.1841913,8.15947368 C12.2254957,9.01526316 13.7320174,10.7902632 14.2443652,12.9723684 C14.3200174,13.2952632 14.2472348,13.6292105 14.0440174,13.8881579 Z M3.88106087,4.50473684 C3.88106087,2.47342105 5.51958261,0.820789474 7.53323478,0.820789474 C9.54662609,0.820789474 11.1854087,2.47342105 11.1854087,4.50473684 C11.1854087,6.53631579 9.54662609,8.18894737 7.53323478,8.18894737 C5.51958261,8.18894737 3.88106087,6.53631579 3.88106087,4.50473684 Z M14.982887,3.33789474 L14.982887,4.35105263 C14.982887,4.56710526 15.0449739,4.76657895 15.1459304,4.94052632 L11.7408,4.94052632 C11.7554087,4.79736842 11.762713,4.65210526 11.762713,4.50473684 C11.762713,4.09973684 11.7032348,3.70947368 11.5981043,3.33789474 L14.982887,3.33789474 Z M17.5829739,4.83105263 L15.7709739,2.955 C15.6478435,2.82789474 15.476713,2.755 15.300887,2.755 L11.3868,2.755 C10.722887,1.27342105 9.24714783,0.237894737 7.53323478,0.237894737 C5.2008,0.237894737 3.30349565,2.15210526 3.30349565,4.50473684 C3.30349565,5.73526316 3.82549565,6.84236842 4.65401739,7.62184211 C2.47001739,8.54526316 0.806452174,10.5057895 0.259669565,12.8397368 C0.14253913,13.3365789 0.255495652,13.8502632 0.56853913,14.2497368 C0.879495652,14.6457895 1.34436522,14.8731579 1.84497391,14.8731579 L13.2212348,14.8731579 C13.7218435,14.8731579 14.1864522,14.6457895 14.4971478,14.2497368 C14.810713,13.85 14.9236696,13.3355263 14.8062783,12.8378947 C14.7989739,12.8057895 14.7888,12.775 14.7809739,12.7428947 L16.6039304,12.7428947 C17.2461913,12.7428947 17.7689739,12.2157895 17.7689739,11.5676316 L17.7689739,5.29289474 C17.7689739,5.11947368 17.7029739,4.95526316 17.5829739,4.83105263 Z" id="Fill-141"></path>
            </g>
        </g>
    </g>
</svg>