<svg class="uwm-icon-svg" aria-hidden="true" xmlns="http://www.w3.org/2000/svg" viewBox="0 0 18 15.57"><defs><style>.cls-1{fill:#474748;}</style></defs><title>Calendar</title><g id="Layer_2" data-name="Layer 2"><g id="Layer_1-2" data-name="Layer 1"><path class="cls-1" d="M5,0a.35.35,0,0,0-.35.35V2.51A1.4,1.4,0,0,0,5,5.27,1.41,1.41,0,0,0,6.42,3.86a1.4,1.4,0,0,0-1-1.35V.35A.35.35,0,0,0,5,0Zm8,0a.35.35,0,0,0-.35.35V2.53a1.4,1.4,0,1,0,.7,0V.39A.35.35,0,0,0,13,0ZM2.59,1.09A1.75,1.75,0,0,0,.84,2.83V13.62a1.75,1.75,0,0,0,1.75,1.75H15.47a1.75,1.75,0,0,0,1.75-1.75V2.83a1.75,1.75,0,0,0-1.75-1.74h-1a.35.35,0,0,0-.35.34.35.35,0,0,0,.35.35h1a1,1,0,0,1,1,1.05V6h-15V2.83a1,1,0,0,1,1-1h1A.35.35,0,0,0,4,1.43a.35.35,0,0,0-.35-.34Zm3.83,0a.35.35,0,1,0,0,.69h5.22a.35.35,0,1,0,0-.69ZM5,3.18a.69.69,0,0,1,.7.69.7.7,0,0,1-1.4,0A.69.69,0,0,1,5,3.18Zm8,0a.69.69,0,0,1,.7.69.7.7,0,0,1-.7.7.69.69,0,0,1-.69-.7A.68.68,0,0,1,13,3.18ZM1.54,6.66h15v7a1,1,0,0,1-1,1.06H2.59a1,1,0,0,1-1-1.06Z"/><path class="cls-1" d="M16.5.91H1.5A1.39,1.39,0,0,0,0,2.13V14.35a1.39,1.39,0,0,0,1.5,1.22h15A1.39,1.39,0,0,0,18,14.35V2.13A1.39,1.39,0,0,0,16.5.91Zm0,13.44H1.5V2.13h15Z"/></g></g></svg>