<?xml version="1.0" encoding="UTF-8"?>
<svg width="24px" height="24px" viewBox="0 0 24 24" version="1.1" xmlns="http://www.w3.org/2000/svg" xmlns:xlink="http://www.w3.org/1999/xlink">
    <!-- Generator: Sketch 48.2 (47327) - http://www.bohemiancoding.com/sketch -->
    <title>icon_languages</title>
    <desc>Created with Sketch.</desc>
    <defs></defs>
    <g id="Icons" stroke="none" stroke-width="1" fill="none" fill-rule="evenodd">
        <g id="icon_languages">
            <rect id="Rectangle" fill="#FFFFFF" x="0" y="0" width="24" height="24"></rect>
            <g id="Group-10" transform="translate(3.000000, 4.000000)" fill="#000000">
                <path d="M17.0073529,9.84996364 C17.0073529,10.7826909 16.2707647,11.5416 15.3654706,11.5416 L14.4891176,11.5416 C13.4105294,11.5416 12.3573529,11.9314182 11.5251176,12.6390545 L8.64511765,15.0888727 C8.55935294,15.1616 8.47252941,15.1317818 8.439,15.1154182 C8.40511765,15.0994182 8.32747059,15.0492364 8.32747059,14.9346909 L8.32747059,13.6477818 C8.32747059,12.4863273 7.41052941,11.5416 6.28323529,11.5416 L2.72629412,11.5416 C1.821,11.5416 1.08441176,10.7826909 1.08441176,9.84996364 L1.08441176,2.79796364 C1.08441176,1.86523636 1.821,1.10632727 2.72629412,1.10632727 L15.3654706,1.10632727 C16.2707647,1.10632727 17.0073529,1.86523636 17.0073529,2.79796364 L17.0073529,9.84996364 Z M15.3654706,0.301236364 L2.72629412,0.301236364 C1.39005882,0.301236364 0.302647059,1.42123636 0.302647059,2.79796364 L0.302647059,9.84996364 C0.302647059,11.2266909 1.39005882,12.3470545 2.72629412,12.3470545 L6.28323529,12.3470545 C6.97958824,12.3470545 7.54570588,12.9303273 7.54570588,13.6477818 L7.54570588,14.9346909 C7.54570588,15.3277818 7.76029412,15.6761455 8.10547059,15.8441455 C8.24029412,15.9096 8.38252941,15.9412364 8.52405882,15.9412364 C8.745,15.9412364 8.96276471,15.8626909 9.14276471,15.7099636 L12.0227647,13.2601455 C12.7152353,12.6714182 13.5908824,12.3470545 14.4891176,12.3470545 L15.3654706,12.3470545 C16.7017059,12.3470545 17.7891176,11.2266909 17.7891176,9.84996364 L17.7891176,2.79796364 C17.7891176,1.42123636 16.7017059,0.301236364 15.3654706,0.301236364 Z" id="Fill-61"></path>
                <path d="M4.72817647,7.23225455 L5.88335294,4.40752727 L7.03923529,7.23225455 L4.72817647,7.23225455 Z M6.25429412,3.23916364 C6.19005882,3.08207273 6.03970588,2.99189091 5.88335294,2.99589091 C5.72770588,2.99189091 5.57735294,3.08207273 5.51311765,3.23916364 L3.22076471,8.84243636 C3.13711765,9.04752727 3.23064706,9.28389091 3.429,9.37007273 C3.47876471,9.39152727 3.53029412,9.40170909 3.58111765,9.40170909 C3.73358824,9.40170909 3.87864706,9.30934545 3.94147059,9.15552727 L4.39852941,8.03770909 L7.36852941,8.03770909 L7.82594118,9.15552727 C7.88876471,9.30934545 8.03382353,9.40170909 8.18629412,9.40170909 C8.23676471,9.40170909 8.28864706,9.39152727 8.33841176,9.37007273 C8.53676471,9.28389091 8.63029412,9.04752727 8.54629412,8.84243636 L6.25429412,3.23916364 Z" id="Fill-63"></path>
                <path d="M14.5105765,4.77789091 L12.9089294,4.77789091 L12.9089294,3.98552727 C12.9089294,3.76298182 12.7342235,3.58298182 12.5178706,3.58298182 C12.3018706,3.58298182 12.1271647,3.76298182 12.1271647,3.98552727 L12.1271647,4.77789091 L10.5258706,4.77789091 C10.3098706,4.77789091 10.1351647,4.95789091 10.1351647,5.18043636 C10.1351647,5.40298182 10.3098706,5.58298182 10.5258706,5.58298182 L12.0632824,5.58298182 C11.7505765,6.74261818 11.2222235,7.80698182 10.4874,8.74625455 C10.3518706,8.91970909 10.3779882,9.1728 10.5459882,9.31243636 C10.6186941,9.3728 10.7051647,9.40152727 10.7909294,9.40152727 C10.9049294,9.40152727 11.0182235,9.35061818 11.0955176,9.25207273 C11.6986941,8.4808 12.1741059,7.63243636 12.5185765,6.72116364 C12.8492824,7.59498182 13.2999882,8.41098182 13.8671647,9.15534545 L13.9370471,9.24734545 C14.0139882,9.3488 14.1290471,9.40152727 14.2451647,9.40152727 C14.3291647,9.40152727 14.4145765,9.37389091 14.4858706,9.31643636 C14.6556353,9.17934545 14.6856353,8.92625455 14.5529294,8.75098182 L14.4826941,8.65861818 C13.7838706,7.74116364 13.2770471,6.70661818 12.9738706,5.58298182 L14.5105765,5.58298182 C14.7265765,5.58298182 14.9012824,5.40298182 14.9012824,5.18043636 C14.9012824,4.95789091 14.7265765,4.77789091 14.5105765,4.77789091" id="Fill-65"></path>
            </g>
        </g>
    </g>
</svg>