<?xml version="1.0" encoding="UTF-8"?>
<svg width="24px" height="24px" viewBox="0 0 24 24" version="1.1" xmlns="http://www.w3.org/2000/svg" xmlns:xlink="http://www.w3.org/1999/xlink">
    <!-- Generator: Sketch 48.2 (47327) - http://www.bohemiancoding.com/sketch -->
    <title>icon_youtube</title>
    <desc>Created with Sketch.</desc>
    <defs></defs>
    <g id="Icons" stroke="none" stroke-width="1" fill="none" fill-rule="evenodd">
        <g id="icon_youtube">
            <rect id="Rectangle" fill="#FFFFFF" x="0" y="0" width="24" height="24"></rect>
            <g id="Group-25" transform="translate(3.000000, 4.000000)" fill="#000000">
                <path d="M14.7552,13.071215 L13.0992,13.071215 L13.0992,13.880415 C13.0992,14.106515 13.1274857,14.263765 13.1840571,14.351315 C13.2414857,14.438865 13.3392,14.482215 13.4772,14.482215 C13.6212,14.482215 13.7206286,14.444815 13.7780571,14.370865 C13.8346286,14.296065 13.8646286,14.133715 13.8646286,13.880415 L13.8646286,13.685765 L14.7552,13.685765 L14.7552,13.905065 C14.7552,14.346215 14.6480571,14.677715 14.4286286,14.901265 C14.2134857,15.123115 13.8886286,15.233615 13.4574857,15.233615 C13.0692,15.233615 12.7632,15.115465 12.5412,14.879165 C12.3192,14.645415 12.2069143,14.319865 12.2069143,13.905065 L12.2069143,11.976415 C12.2069143,11.604965 12.3294857,11.299815 12.5754857,11.065215 C12.8197714,10.830615 13.1343429,10.714165 13.5226286,10.714165 C13.9186286,10.714165 14.2237714,10.822115 14.4363429,11.038865 C14.6489143,11.257315 14.7552,11.568415 14.7552,11.976415 L14.7552,13.071215 Z M11.7534857,14.228915 C11.7534857,14.532365 11.6849143,14.765265 11.5494857,14.928465 C11.4149143,15.090815 11.2169143,15.171565 10.9614857,15.171565 C10.7909143,15.171565 10.6400571,15.140965 10.5080571,15.077215 C10.3760571,15.016015 10.2509143,14.919965 10.1377714,14.787365 L10.1377714,15.115465 L9.26262857,15.115465 L9.26262857,9.293815 L10.1377714,9.293815 L10.1377714,11.168915 C10.2552,11.038865 10.3794857,10.938565 10.5089143,10.870565 C10.6409143,10.801715 10.7737714,10.768565 10.9083429,10.768565 C11.1826286,10.768565 11.3917714,10.858665 11.5357714,11.042265 C11.6814857,11.225015 11.7534857,11.493615 11.7534857,11.845515 L11.7534857,14.228915 Z M8.61205714,15.115465 L7.74634286,15.115465 L7.74634286,14.645415 C7.5852,14.819665 7.41977143,14.952265 7.24662857,15.041515 C7.07348571,15.135015 6.90634286,15.179215 6.74348571,15.179215 C6.54291429,15.179215 6.39377143,15.115465 6.29091429,14.987115 C6.19062857,14.858765 6.1392,14.668365 6.1392,14.411665 L6.1392,10.820415 L7.00491429,10.820415 L7.00491429,14.115865 C7.00491429,14.217865 7.02291429,14.290965 7.05891429,14.335165 C7.09577143,14.382765 7.15577143,14.404015 7.23634286,14.404015 C7.29891429,14.404015 7.38034286,14.374265 7.47805714,14.313915 C7.57577143,14.253565 7.66491429,14.177065 7.74634286,14.082715 L7.74634286,10.820415 L8.61205714,10.820415 L8.61205714,15.115465 Z M5.75862857,10.140415 L4.74977143,10.140415 L4.74977143,15.115465 L3.77348571,15.115465 L3.77348571,10.140415 L2.76462857,10.140415 L2.76462857,9.293815 L5.75862857,9.293815 L5.75862857,10.140415 Z M14.3386286,8.200715 L3.47691429,8.200715 C1.75062857,8.200715 0.350914286,9.589615 0.350914286,11.301515 L0.350914286,13.793715 C0.350914286,15.504765 1.75062857,16.893665 3.47691429,16.893665 L14.3386286,16.893665 C16.0649143,16.893665 17.4646286,15.504765 17.4646286,13.793715 L17.4646286,11.301515 C17.4646286,9.589615 16.0649143,8.200715 14.3386286,8.200715 Z" id="Fill-181"></path>
                <path d="M13.4853429,11.465055 C13.3464857,11.465055 13.2487714,11.504155 13.1887714,11.584055 C13.1279143,11.659705 13.0996286,11.788905 13.0996286,11.969105 L13.0996286,12.403455 L13.8642,12.403455 L13.8642,11.969105 C13.8642,11.788905 13.8333429,11.659705 13.7733429,11.584055 C13.7150571,11.504155 13.6173429,11.465055 13.4853429,11.465055" id="Fill-183"></path>
                <path d="M10.5,11.450945 C10.4382857,11.450945 10.3765714,11.464545 10.3165714,11.492595 C10.2557143,11.519795 10.1965714,11.564845 10.1382857,11.623495 L10.1382857,14.300145 C10.2077143,14.368995 10.2762857,14.421695 10.3431429,14.452295 C10.41,14.482045 10.4785714,14.499045 10.5522857,14.499045 C10.6585714,14.499045 10.7357143,14.468445 10.7854286,14.407245 C10.8351429,14.346045 10.8608571,14.248295 10.8608571,14.111445 L10.8608571,11.892945 C10.8608571,11.746745 10.8308571,11.637945 10.77,11.562295 C10.7065714,11.488345 10.6165714,11.450945 10.5,11.450945" id="Fill-185"></path>
                <polygon id="Fill-187" points="4.89925714 6.70871 5.9964 6.70871 5.9964 4.04736 7.27354286 0.29376 6.1584 0.29376 5.47954286 2.85821 5.41011429 2.85821 4.69782857 0.29376 3.59297143 0.29376 4.89925714 4.16721"></polygon>
                <path d="M8.35628571,3.022345 C8.35628571,2.919495 8.39314286,2.836195 8.466,2.771595 C8.54228571,2.707845 8.63828571,2.677245 8.75742857,2.677245 C8.886,2.677245 8.99057143,2.707845 9.07028571,2.771595 C9.14914286,2.836195 9.18857143,2.919495 9.18857143,3.022345 L9.18857143,5.600395 C9.18857143,5.727045 9.15,5.827345 9.07114286,5.899595 C8.994,5.972695 8.88942857,6.008395 8.75742857,6.008395 C8.628,6.008395 8.52857143,5.973545 8.46,5.901295 C8.39142857,5.829895 8.35628571,5.730445 8.35628571,5.600395 L8.35628571,3.022345 Z M8.76,6.827795 C9.20314286,6.827795 9.55114286,6.713045 9.804,6.481845 C10.056,6.250645 10.182,5.935295 10.182,5.529845 L10.182,3.085245 C10.182,2.724845 10.0525714,2.429045 9.79714286,2.199545 C9.53828571,1.972595 9.20828571,1.856995 8.80371429,1.856995 C8.36142857,1.856995 8.00828571,1.965795 7.746,2.183395 C7.48371429,2.400145 7.35342857,2.689995 7.35342857,3.058895 L7.35342857,5.511145 C7.35342857,5.913195 7.48114286,6.231945 7.73657143,6.470795 C7.992,6.708795 8.334,6.827795 8.76,6.827795 Z" id="Fill-189"></path>
                <path d="M11.6530286,6.77756 C11.8364571,6.77756 12.0241714,6.72486 12.2178857,6.62541 C12.4133143,6.52511 12.6010286,6.37721 12.7793143,6.18426 L12.7793143,6.70871 L13.7538857,6.70871 L13.7538857,1.97761 L12.7793143,1.97761 L12.7793143,5.56886 C12.6884571,5.67086 12.5881714,5.75586 12.4793143,5.82301 C12.3687429,5.88931 12.2778857,5.92246 12.2067429,5.92246 C12.1158857,5.92246 12.0481714,5.89781 12.0087429,5.84596 C11.9684571,5.79666 11.9461714,5.71591 11.9461714,5.60456 L11.9461714,1.97761 L10.9733143,1.97761 L10.9733143,5.93181 C10.9733143,6.21316 11.0298857,6.42396 11.1430286,6.56421 C11.2587429,6.70531 11.4267429,6.77756 11.6530286,6.77756" id="Fill-191"></path>
            </g>
        </g>
    </g>
</svg>