<?xml version="1.0" encoding="UTF-8"?>
<svg width="24px" height="24px" viewBox="0 0 24 24" version="1.1" xmlns="http://www.w3.org/2000/svg" xmlns:xlink="http://www.w3.org/1999/xlink">
    <!-- Generator: Sketch 48.2 (47327) - http://www.bohemiancoding.com/sketch -->
    <title>icon_instagram</title>
    <desc>Created with Sketch.</desc>
    <defs></defs>
    <g id="Icons" stroke="none" stroke-width="1" fill="none" fill-rule="evenodd">
        <g id="icon_instagram">
            <rect id="Rectangle" fill="#FFFFFF" x="0" y="0" width="24" height="24"></rect>
            <g id="Group-24" transform="translate(3.000000, 3.000000)" fill="#000000">
                <path d="M9.27205714,11.4768 C7.69491429,11.4768 6.41177143,10.1936571 6.41177143,8.61651429 C6.41177143,7.03937143 7.69491429,5.75622857 9.27205714,5.75622857 C10.8492,5.75622857 12.1323429,7.03937143 12.1323429,8.61651429 C12.1323429,10.1936571 10.8492,11.4768 9.27205714,11.4768 M9.27205714,4.16365714 C6.81634286,4.16365714 4.81834286,6.16165714 4.81834286,8.61651429 C4.81834286,11.0722286 6.81634286,13.0702286 9.27205714,13.0702286 C11.7277714,13.0702286 13.7257714,11.0722286 13.7257714,8.61651429 C13.7257714,6.16165714 11.7277714,4.16365714 9.27205714,4.16365714" id="Fill-195"></path>
                <path d="M13.8934286,3.04354286 C13.3354286,3.04354286 12.882,3.49611429 12.882,4.05497143 C12.882,4.61297143 13.3354286,5.06554286 13.8934286,5.06554286 C14.4522857,5.06554286 14.9048571,4.61297143 14.9048571,4.05497143 C14.9048571,3.49611429 14.4522857,3.04354286 13.8934286,3.04354286" id="Fill-197"></path>
                <path d="M16.3342286,12.2603143 C16.3342286,13.3248857 16.0068,14.2068857 15.3879429,14.8120286 C14.7742286,15.4111714 13.8879429,15.7283143 12.8268,15.7283143 L5.71765714,15.7283143 C4.68222857,15.7283143 3.80537143,15.4086 3.18394286,14.8051714 C2.54708571,14.1863143 2.20937143,13.2931714 2.20937143,12.2200286 L2.20937143,5.07145714 C2.20937143,4.0146 2.53251429,3.13517143 3.1428,2.52831429 C3.75051429,1.92317143 4.62737143,1.60345714 5.67737143,1.60345714 L12.8670857,1.60345714 C13.9102286,1.60345714 14.7870857,1.93088571 15.4008,2.54974286 C16.0119429,3.16517143 16.3342286,4.03688571 16.3342286,5.07145714 L16.3342286,12.2603143 Z M16.5322286,1.42688571 C15.6116571,0.500314286 14.3448,0.0100285714 12.8670857,0.0100285714 L5.67737143,0.0100285714 C2.6508,0.0100285714 0.6168,2.04402857 0.6168,5.07145714 L0.6168,12.2200286 C0.6168,13.7337429 1.11994286,15.0228857 2.07394286,15.9486 C2.9988,16.8468857 4.25965714,17.3208857 5.71765714,17.3208857 L12.8268,17.3208857 C14.3130857,17.3208857 15.5833714,16.8477429 16.5013714,15.9520286 C17.4348,15.0400286 17.9276571,13.7637429 17.9276571,12.2603143 L17.9276571,5.07145714 C17.9276571,3.60745714 17.4450857,2.34745714 16.5322286,1.42688571 Z" id="Fill-199"></path>
            </g>
        </g>
    </g>
</svg>