<?xml version="1.0" encoding="UTF-8"?>
<svg width="18px" height="18px" viewBox="0 0 18 18" version="1.1" xmlns="http://www.w3.org/2000/svg" xmlns:xlink="http://www.w3.org/1999/xlink">
    <!-- Generator: Sketch 48.2 (47327) - http://www.bohemiancoding.com/sketch -->
    <title>icon_heart</title>
    <desc>Created with Sketch.</desc>
    <defs></defs>
    <g id="Icons" stroke="none" stroke-width="1" fill="none" fill-rule="evenodd">
        <g id="icon_heart" transform="translate(-3.000000, -3.000000)">
            <rect id="Rectangle" x="0" y="0" width="24" height="24"></rect>
            <path d="M19.8684954,5.008556 C18.9455598,3.74702177 17.4765538,3.00099126 15.913455,3 C14.4204787,3.03198297 13.0001334,3.65053608 11.959764,4.7218122 C11.0337401,3.65500891 9.69976319,3.02956169 8.28741922,3 C6.72479607,3.00142114 5.25638284,3.74740513 4.33372819,5.008556 C0.801719228,9.50132538 5.18114046,13.9030114 7.15798598,15.9115674 L7.7227026,16.4857297 C8.78554824,17.7882844 9.91679844,19.0334929 11.111677,20.2160979 C11.3943727,20.7902602 11.3943727,20.7902602 11.6763936,20.7902602 C11.8911425,20.7596945 12.0897209,20.6588632 12.2411102,20.5035164 C12.2411102,20.5035164 13.3705435,19.0691227 15.3446902,17.0625908 C17.0395148,15.6281971 20.7105101,12.1845727 20.9932058,8.74162297 C21.0577673,7.40507479 20.6606504,6.0869899 19.8684954,5.008556 Z M11.6770683,19.9286794 C11.6770683,19.9286794 9.7002228,17.634729 8.28809391,16.1983112 C7.72465029,15.356293 7.06082127,14.5859794 6.31124839,13.9043608 L6.87596501,13.9043608 C7.15866067,13.9043608 7.15866067,13.9043608 7.15866067,13.617617 L8.57078956,10.1766914 L9.98291846,15.6281971 C9.98050573,15.7042546 10.0093788,15.7779759 10.0628027,15.8321648 C10.1162267,15.8863538 10.18953,15.916272 10.2656141,15.9149409 C10.5483098,15.9149409 10.5483098,15.9149409 10.5483098,15.6281971 L11.9604387,11.3243413 L12.5251553,12.758735 C12.5227426,12.8347925 12.5516156,12.9085137 12.6050396,12.9627027 C12.6584635,13.0168917 12.7317668,13.0468099 12.8078509,13.0454788 L17.8916499,13.0454788 C17.0428882,14.1904299 11.6770683,19.9286794 11.6770683,19.9286794 Z M18.7370381,12.1818739 L13.3712182,12.1818739 L12.5238059,10.1733179 C12.5262186,10.0972604 12.4973456,10.0235392 12.4439216,9.96935018 C12.3904977,9.91516122 12.3171943,9.88524296 12.2411102,9.88657411 C11.9584146,9.88657411 11.9584146,9.88657411 11.9584146,10.1733179 L10.2649394,13.9030114 L9.13483149,8.73824952 C8.98344212,8.58290275 8.78486379,8.48207146 8.57011487,8.45150571 L8.28741922,8.73824952 L6.59326936,13.04278 L5.74585708,13.04278 C4.05103253,10.7488296 2.9215993,8.16476191 5.18114046,5.5827183 C6.3110235,4.4348435 7.44068163,3.8609061 8.57011487,3.8609061 C10.2649394,3.8609061 11.6736949,5.8694621 11.6736949,5.8694621 C11.6736949,5.8694621 13.6505404,3.8609061 15.9100815,3.8609061 C17.0395148,3.8609061 17.8869271,4.1476499 19.0136615,5.5827183 C20.7145583,7.58790085 20.149167,10.1733179 18.7370381,12.1818739 Z" id="Path_1342" fill="#000000" fill-rule="nonzero"></path>
        </g>
    </g>
</svg>