<?xml version="1.0" encoding="UTF-8"?>
<svg width="24px" height="24px" viewBox="0 0 24 24" version="1.1" xmlns="http://www.w3.org/2000/svg" xmlns:xlink="http://www.w3.org/1999/xlink">
    <!-- Generator: Sketch 48.2 (47327) - http://www.bohemiancoding.com/sketch -->
    <title>icon_search</title>
    <desc>Created with Sketch.</desc>
    <defs></defs>
    <g id="Icons" stroke="none" stroke-width="1" fill="none" fill-rule="evenodd">
        <g id="icon_search">
            <rect id="Rectangle" fill="#FFFFFF" x="0" y="0" width="24" height="24"></rect>
            <g id="Group-14" transform="translate(3.000000, 3.000000)" fill="#000000">
                <path d="M11.7,11.741985 C8.7939,11.741985 6.43005,9.378135 6.43005,6.472035 C6.43005,3.565935 8.7939,1.202085 11.7,1.202085 C14.6061,1.202085 16.9704,3.565935 16.9704,6.472035 C16.9704,9.378135 14.6061,11.741985 11.7,11.741985 M11.7,0.205335 C8.24445,0.205335 5.4333,3.016485 5.4333,6.472035 C5.4333,8.020485 6.0012,9.437085 6.9354,10.532385 L0.55305,16.914285 C0.35865,17.108685 0.35865,17.423685 0.55305,17.618535 C0.65025,17.715735 0.77805,17.764785 0.9054,17.764785 C1.03275,17.764785 1.16055,17.715735 1.25775,17.618535 L7.6401,11.236635 C8.73495,12.170835 10.15155,12.738285 11.7,12.738285 C15.156,12.738285 17.9667,9.927135 17.9667,6.472035 C17.9667,3.016485 15.156,0.205335 11.7,0.205335" id="Fill-31"></path>
                <path d="M15.37713,6.066 C15.10173,6.066 14.87898,6.2892 14.87898,6.56415 C14.87898,8.30655 13.46193,9.72315 11.71998,9.72315 C11.44458,9.72315 11.22138,9.94635 11.22138,10.22175 C11.22138,10.49715 11.44458,10.7199 11.71998,10.7199 C14.01138,10.7199 15.87528,8.856 15.87528,6.56415 C15.87528,6.2892 15.65253,6.066 15.37713,6.066" id="Fill-33"></path>
            </g>
        </g>
    </g>
</svg>