<?xml version="1.0" encoding="UTF-8"?>
<svg width="24px" height="24px" viewBox="0 0 24 24" version="1.1" xmlns="http://www.w3.org/2000/svg" xmlns:xlink="http://www.w3.org/1999/xlink">
    <!-- Generator: Sketch 48.2 (47327) - http://www.bohemiancoding.com/sketch -->
    <title>icon_accepting_patients</title>
    <desc>Created with Sketch.</desc>
    <defs></defs>
    <g id="Icons" stroke="none" stroke-width="1" fill="none" fill-rule="evenodd">
        <g id="icon_accepting_patients">
            <rect id="Rectangle" fill="#FFFFFF" x="0" y="0" width="24" height="24"></rect>
            <g id="Group-13" transform="translate(3.000000, 3.000000)" fill="#000000">
                <path d="M17.4773118,6.70526471 C17.3963118,6.39132353 17.0754882,6.20179412 16.7626059,6.28491176 C16.4491941,6.36644118 16.2612529,6.68620588 16.3427824,6.99961765 C16.5047824,7.62485294 16.5868412,8.27126471 16.5868412,8.92191176 C16.5868412,13.1185588 13.1726647,16.5332647 8.97601765,16.5332647 C4.77937059,16.5332647 1.36413529,13.1185588 1.36413529,8.92191176 C1.36413529,4.72526471 4.77937059,1.31108824 8.97601765,1.31108824 C10.3074882,1.31108824 11.6172529,1.65944118 12.7634294,2.31908824 C13.0445471,2.4795 13.4024294,2.38367647 13.5644294,2.10308824 C13.7259,1.82197059 13.6290176,1.46355882 13.3484294,1.30208824 C12.0243706,0.540794118 10.5123706,0.138441176 8.97601765,0.138441176 C4.1319,0.138441176 0.192017647,4.07885294 0.192017647,8.92191176 C0.192017647,13.7655 4.1319,17.7059118 8.97601765,17.7059118 C13.8190765,17.7059118 17.7594882,13.7655 17.7594882,8.92191176 C17.7594882,8.17226471 17.6647235,7.42579412 17.4773118,6.70526471" id="Fill-35"></path>
                <path d="M8.91471176,11.5157647 C8.86335882,11.5422353 8.7453,11.5014706 8.68282941,11.4257647 L5.91347647,7.55682353 C5.72500588,7.29423529 5.35759412,7.23335294 5.09500588,7.42129412 C4.83188824,7.61029412 4.77100588,7.97611765 4.95947647,8.23976471 L7.75212353,12.1383529 C8.03853529,12.4882941 8.46100588,12.6884118 8.91259412,12.6884118 L8.92318235,12.6884118 C9.37794706,12.6847059 9.80147647,12.4787647 10.0953,12.1087059 L17.1333,2.69047059 C17.3275941,2.43105882 17.2741235,2.06364706 17.0147118,1.86988235 C16.7547706,1.67505882 16.3878882,1.73011765 16.1941235,1.98847059 L9.16671176,11.3934706 C9.08306471,11.4988235 8.97294706,11.5152353 8.91471176,11.5157647" id="Fill-37"></path>
            </g>
        </g>
    </g>
</svg>