<?xml version="1.0" encoding="UTF-8"?>
<svg width="18px" height="18px" viewBox="0 0 18 18" version="1.1" xmlns="http://www.w3.org/2000/svg" xmlns:xlink="http://www.w3.org/1999/xlink">
    <!-- Generator: Sketch 48.2 (47327) - http://www.bohemiancoding.com/sketch -->
    <title>icon_provider</title>
    <desc>Created with Sketch.</desc>
    <defs></defs>
    <g id="Icons" stroke="none" stroke-width="1" fill="none" fill-rule="evenodd">
        <g id="icon_provider" transform="translate(-3.000000, -2.000000)">
            <path d="M19.7587263,18.7463 C19.5162,19.0580857 19.1533579,19.2371214 18.7627263,19.2371214 L4.99146316,19.2371214 C4.60083158,19.2371214 4.23767368,19.0580857 3.99514737,18.7459786 C3.74946316,18.4303357 3.66104211,18.0230857 3.75262105,17.6293357 C4.35735789,15.0264071 6.18514737,12.8365143 8.58767368,11.7831929 L8.58767368,14.1955143 C7.67977895,14.3639429 6.98914737,15.1729786 6.98914737,16.1446571 L6.98914737,17.2979429 C6.98914737,17.7273714 7.33209474,18.0761214 7.75335789,18.0761214 L8.20146316,18.0761214 C8.39472632,18.0761214 8.55104211,17.9170143 8.55104211,17.7203 C8.55104211,17.5235857 8.39472632,17.3644786 8.20146316,17.3644786 L7.75335789,17.3644786 C7.71767368,17.3644786 7.68862105,17.3342643 7.68862105,17.2979429 L7.68862105,16.1446571 C7.68862105,15.4442643 8.24883158,14.8737286 8.93725263,14.8737286 C9.62567368,14.8737286 10.1862,15.4442643 10.1862,16.1446571 L10.1862,17.2979429 C10.1862,17.3342643 10.1571474,17.3644786 10.1211474,17.3644786 L9.67335789,17.3644786 C9.47977895,17.3644786 9.32346316,17.5235857 9.32346316,17.7203 C9.32346316,17.9170143 9.47977895,18.0761214 9.67335789,18.0761214 L10.1211474,18.0761214 C10.5424105,18.0761214 10.8853579,17.7273714 10.8853579,17.2979429 L10.8853579,16.1446571 C10.8853579,15.1729786 10.1947263,14.3639429 9.28683158,14.1955143 L9.28683158,11.7732286 C10.0478842,12.2299786 10.9314632,12.4970857 11.8772526,12.4970857 C12.7892526,12.4970857 13.6447263,12.2499071 14.3871474,11.8227286 L14.3871474,15.7226214 C14.0839895,15.85955 13.8717789,16.1674786 13.8717789,16.5268357 C13.8717789,17.0131571 14.2589368,17.40755 14.7367263,17.40755 C15.2145158,17.40755 15.6019895,17.0131571 15.6019895,16.5268357 C15.6019895,16.1674786 15.3897789,15.85955 15.0866211,15.7226214 L15.0866211,11.7478357 C17.5292526,12.7873357 19.3883053,14.9920143 20.0012526,17.6277286 C20.0928316,18.0221214 20.0047263,18.4296929 19.7587263,18.7463 M7.4562,7.28512143 C7.4562,4.80401429 9.43967368,2.78544286 11.8772526,2.78544286 C14.3145158,2.78544286 16.2979895,4.80401429 16.2979895,7.28512143 C16.2979895,8.75115714 15.6019895,10.0519786 14.5324105,10.8741929 C14.4733579,10.8976571 14.4222,10.9355857 14.3827263,10.9883 C13.6699895,11.4897286 12.8069368,11.7851214 11.8772526,11.7851214 C9.43967368,11.7851214 7.4562,9.76655 7.4562,7.28512143 M20.6814632,17.4634786 C20.0179895,14.6091929 18.0057789,12.2209786 15.3610421,11.0934071 C16.3649368,10.1413357 16.9971474,8.78876429 16.9971474,7.28512143 C16.9971474,4.41122857 14.7004105,2.07347857 11.8772526,2.07347857 C9.05377895,2.07347857 6.75704211,4.41122857 6.75704211,7.28512143 C6.75704211,8.78812143 7.38893684,10.1403714 8.39188421,11.0924429 C5.74841053,12.2200143 3.73398947,14.6146571 3.07177895,17.4657286 C2.93093684,18.0722643 3.06767368,18.7000143 3.44662105,19.1876214 C3.82272632,19.6716929 4.38577895,19.9487643 4.99146316,19.9487643 L18.7627263,19.9487643 C19.3684105,19.9487643 19.9314632,19.6716929 20.3072526,19.1876214 C20.6865158,18.6993714 20.8232526,18.0709786 20.6814632,17.4634786" id="Fill-105" fill="#000000"></path>
            <rect id="Rectangle" x="0" y="0" width="24" height="24"></rect>
            <path d="M9.07724211,7.28505714 C9.07724211,5.71391429 10.3334526,4.43559286 11.8770316,4.43559286 C12.0702947,4.43559286 12.2269263,4.27648571 12.2269263,4.07977143 C12.2269263,3.88305714 12.0702947,3.72362857 11.8770316,3.72362857 C9.94755789,3.72362857 8.37808421,5.32112857 8.37808421,7.28505714 C8.37808421,7.48177143 8.5344,7.64087857 8.72766316,7.64087857 C8.92092632,7.64087857 9.07724211,7.48177143 9.07724211,7.28505714" id="Fill-107" fill="#000000"></path>
        </g>
    </g>
</svg>