<?xml version="1.0" encoding="UTF-8"?>
<svg width="24px" height="24px" viewBox="0 0 24 24" version="1.1" xmlns="http://www.w3.org/2000/svg" xmlns:xlink="http://www.w3.org/1999/xlink">
    <!-- Generator: Sketch 48.2 (47327) - http://www.bohemiancoding.com/sketch -->
    <title>icon_media</title>
    <desc>Created with Sketch.</desc>
    <defs></defs>
    <g id="Icons" stroke="none" stroke-width="1" fill="none" fill-rule="evenodd">
        <g id="icon_media">
            <rect id="Rectangle" fill="#FFFFFF" x="0" y="0" width="24" height="24"></rect>
            <g id="Group-19" transform="translate(0.000000, 4.000000)" fill="#000000">
                <path d="M22.74024,12.5124235 C22.74024,13.7194824 21.73848,14.7016 20.5068,14.7016 L3.318,14.7016 C2.08632,14.7016 1.08456,13.7194824 1.08456,12.5124235 L1.08456,3.38677647 C1.08456,2.17924706 2.08632,1.19712941 3.318,1.19712941 L20.5068,1.19712941 C21.73848,1.19712941 22.74024,2.17924706 22.74024,3.38677647 L22.74024,12.5124235 Z M20.5068,0.155247059 L3.318,0.155247059 C1.50024,0.155247059 0.02136,1.60465882 0.02136,3.38677647 L0.02136,12.5124235 C0.02136,14.2940706 1.50024,15.7439529 3.318,15.7439529 L20.5068,15.7439529 C22.32456,15.7439529 23.80344,14.2940706 23.80344,12.5124235 L23.80344,3.38677647 C23.80344,1.60465882 22.32456,0.155247059 20.5068,0.155247059 Z" id="Fill-119"></path>
                <polygon id="Fill-121" points="10.841952 9.78814118 14.300832 7.94955294 10.841952 6.11143529"></polygon>
                <path d="M11.912352,11.1167059 C10.131552,11.1167059 8.682432,9.69552941 8.682432,7.94964706 C8.682432,6.20376471 10.131552,4.78258824 11.912352,4.78258824 C13.693152,4.78258824 15.142272,6.20376471 15.142272,7.94964706 C15.142272,9.69552941 13.693152,11.1167059 11.912352,11.1167059 M11.912352,3.74070588 C9.544992,3.74070588 7.619712,5.62870588 7.619712,7.94964706 C7.619712,10.2701176 9.544992,12.1590588 11.912352,12.1590588 C14.279712,12.1590588 16.205472,10.2701176 16.205472,7.94964706 C16.205472,5.62870588 14.279712,3.74070588 11.912352,3.74070588" id="Fill-123"></path>
            </g>
        </g>
    </g>
</svg>