<?xml version="1.0" encoding="UTF-8"?>
<svg width="24px" height="24px" viewBox="0 0 24 24" version="1.1" xmlns="http://www.w3.org/2000/svg" xmlns:xlink="http://www.w3.org/1999/xlink">
    <!-- Generator: Sketch 48.2 (47327) - http://www.bohemiancoding.com/sketch -->
    <title>icon_my_location</title>
    <desc>Created with Sketch.</desc>
    <defs></defs>
    <g id="Icons" stroke="none" stroke-width="1" fill="none" fill-rule="evenodd">
        <g id="icon_my_location">
            <rect id="Rectangle" fill="#FFFFFF" x="0" y="0" width="24" height="24"></rect>
            <g id="Group-8" transform="translate(3.000000, 3.000000)" fill="#000000">
                <path d="M17.6366172,15.3651474 C17.5295483,14.9040947 17.3846172,14.4484105 17.2077207,14.0104105 C17.1357207,13.8319895 16.9333759,13.7483053 16.7589621,13.8203053 C16.5833069,13.8942 16.4998241,14.0982 16.5718241,14.2769368 C16.7359966,14.6808316 16.8688241,15.1011474 16.9681345,15.5265158 C17.0581345,15.9139895 16.9709276,16.3150421 16.7294793,16.6254632 C16.4914448,16.9317789 16.1342379,17.1079895 15.7509621,17.1079895 L2.21651379,17.1079895 C1.83292759,17.1079895 1.47603103,16.9317789 1.23737586,16.6251474 C0.996237931,16.3150421 0.909341379,15.9149368 0.999341379,15.5284105 C1.62872069,12.8189368 3.60747931,10.5667263 6.17775517,9.61335789 C6.97968621,10.1637789 7.94516897,10.4858842 8.98358276,10.4858842 C9.4428931,10.4858842 9.89754828,10.4227263 10.3363759,10.2983053 C10.5188586,10.2468316 10.6256172,10.0538842 10.5747207,9.86788421 C10.5238241,9.68156842 10.3348241,9.57198947 10.1517207,9.62472632 C9.77341034,9.73209474 9.38020345,9.78641053 8.98358276,9.78641053 C6.58803103,9.78641053 4.63906552,7.80325263 4.63906552,5.36535789 C4.63906552,2.92777895 6.58803103,0.944305263 8.98358276,0.944305263 C9.80072069,0.944305263 10.5970655,1.17641053 11.2863414,1.61535789 C11.4474103,1.71830526 11.6596862,1.66872632 11.7599276,1.50451579 C11.8607897,1.34093684 11.8117552,1.12525263 11.6509966,1.02293684 C10.8527897,0.513884211 9.93013448,0.245147368 8.98358276,0.245147368 C6.2091,0.245147368 3.95165172,2.54188421 3.95165172,5.36535789 C3.95165172,6.84198947 4.57265172,8.17051579 5.55861724,9.10588421 C2.96041034,10.2139895 0.981031034,12.5669368 0.329927586,15.3673579 C0.191824138,15.9635684 0.326203448,16.5803053 0.698617241,17.0590421 C1.06792759,17.5346211 1.62158276,17.8068316 2.21651379,17.8068316 L15.7509621,17.8068316 C16.3458931,17.8068316 16.8989276,17.5346211 17.2682379,17.0596737 C17.6412724,16.5799895 17.7753414,15.9626211 17.6366172,15.3651474" id="Fill-89"></path>
                <path d="M5.54530345,5.36532632 C5.54530345,5.55858947 5.69892414,5.71490526 5.88885517,5.71490526 C6.07878621,5.71490526 6.2324069,5.55858947 6.2324069,5.36532632 C6.2324069,3.82174737 7.46664828,2.56585263 8.98361379,2.56585263 C9.17354483,2.56585263 9.32747586,2.40953684 9.32747586,2.21627368 C9.32747586,2.02301053 9.17354483,1.86637895 8.98361379,1.86637895 C7.08771724,1.86637895 5.54530345,3.43585263 5.54530345,5.36532632" id="Fill-91"></path>
                <path d="M13.9718793,3.86627368 C14.9538103,3.86627368 15.7498448,4.67595789 15.7498448,5.67543158 C15.7498448,6.67458947 14.9538103,7.48427368 13.9718793,7.48427368 C12.9902586,7.48427368 12.1939138,6.67458947 12.1939138,5.67543158 C12.1939138,4.67595789 12.9902586,3.86627368 13.9718793,3.86627368 M10.7188448,6.59153684 L12.9105,14.5472211 C13.2208448,15.6742737 14.7927414,15.6685895 15.0950172,14.5396421 L17.2317414,6.56816842 C17.8179828,4.38101053 16.1998448,2.22543158 13.9721897,2.22543158 C11.7342931,2.22543158 10.1146034,4.39901053 10.7188448,6.59153684" id="Fill-93"></path>
            </g>
        </g>
    </g>
</svg>