<?xml version="1.0" encoding="UTF-8"?>
<svg width="19px" height="16px" viewBox="0 0 19 16" version="1.1" xmlns="http://www.w3.org/2000/svg" xmlns:xlink="http://www.w3.org/1999/xlink">
    <!-- Generator: Sketch 48.2 (47327) - http://www.bohemiancoding.com/sketch -->
    <title>icon_drive</title>
    <desc>Created with Sketch.</desc>
    <defs></defs>
    <g id="Icons" stroke="none" stroke-width="1" fill="none" fill-rule="evenodd">
        <g id="icon_drive" transform="translate(-3.000000, -4.000000)">
            <rect id="Rectangle" x="0" y="0" width="24" height="24"></rect>
            <path d="M19.8156518,14.450505 C19.3880646,15.1533504 17.7495109,15.2987056 15.9688142,14.9837694 C15.541227,14.6443119 15.5887045,14.2566981 15.9450755,13.9417619 C16.847438,13.505401 17.7969885,13.1177872 18.6043959,12.8267814 C19.1506769,12.7298779 19.6732192,12.8267814 19.8156518,13.2631423 L19.8156518,14.450505 Z M16.1587243,9.33737098 C16.6575278,9.33737098 17.0848256,9.74921063 17.0848256,10.282475 L15.2326231,10.282475 C15.2326231,9.74921063 15.6602103,9.33737098 16.1587243,9.33737098 Z M14.6151258,10.282475 L6.39919788,10.282475 C6.80304635,9.04666063 7.13538902,7.85900253 7.53894799,6.647414 C8.37009418,4.99975996 16.6337891,4.99975996 17.4649353,6.647414 C17.8682047,7.85900253 18.2008369,9.04666063 18.6043959,10.282475 L17.7023229,10.282475 C17.7023229,9.41004856 17.0136093,8.70749857 16.1587243,8.70749857 C15.3038394,8.70749857 14.6151258,9.41004856 14.6151258,10.282475 Z M10.293513,16.7525528 L14.7338196,16.7525528 L14.7338196,14.8623447 L10.293513,14.8623447 L10.293513,16.7525528 Z M9.03506904,14.9837694 C7.25408284,15.2987056 5.61552921,15.1533504 5.18823149,14.450505 L5.18823149,13.2631423 C5.33066406,12.8267814 5.85320634,12.7298779 6.39919788,12.8267814 C7.20660531,13.1177872 8.15644532,13.505401 9.03506904,13.9417619 C9.41488924,14.2566981 9.46236676,14.6443119 9.03506904,14.9837694 Z M21.098124,10.0886681 L20.0530394,10.0886681 L18.3432695,5.2904703 C16.3011569,3.56984323 8.70243686,3.56984323 6.66061377,5.2904703 L4.95055436,10.0886681 L3.9060488,10.0886681 C3.31229024,10.282475 2.64731538,11.6878705 3.21733518,12.1242314 L4.28557951,12.1242314 L4.07193064,12.9239803 C4.07193064,15.0322211 4.09566941,17.140462 4.09566941,19.224477 C4.09566941,19.6608379 4.42830158,20 4.83186055,20 L7.37306615,20 C7.77633562,20 8.13270655,19.6608379 8.13270655,19.224477 L8.13270655,18.2551471 C11.0531534,18.2793729 13.9504404,18.2793729 16.8711767,18.2551471 L16.8711767,19.224477 C16.8711767,19.6608379 17.2275477,20 17.6311066,20 L20.1717332,20 C20.5755817,20 20.9079244,19.6608379 20.9079244,19.224477 C20.9079244,17.140462 20.9316631,15.0322211 20.9316631,12.9239803 L20.7180143,12.1242314 L21.7865481,12.1242314 C22.3562784,11.6878705 21.6675648,10.282475 21.098124,10.0886681 Z" id="Fill-265" fill="#272727"></path>
        </g>
    </g>
</svg>