<svg xmlns="http://www.w3.org/2000/svg" xmlns:xlink="http://www.w3.org/1999/xlink" viewBox="0 0 368.33 191"><defs><clipPath id="a" transform="translate(0.33)"><rect x="250.03" y="9.07" width="12.67" height="40.97" transform="translate(132.88 256.16) rotate(-67.99)" fill="none"/></clipPath></defs><title>UWMed_buildings-03</title><rect x="0.33" width="368" height="191" fill="#ccc"/><path d="M97,81.59V182.47L-.33,190V38ZM0,67,32.55,78.14V61.85L0,48Zm0,38,32.55,7V95.37L0,86Zm0,38,32.55,2.5V128.58L0,124Zm0,38,32.55-1V162.42L0,162Zm91.34-17.33L53.93,163v16l37.41-1.56Zm0-26L53.93,132v15.35l37.41,3.13Zm0-25.69L53.93,101.32v15.36l37.41,8.14Zm0-25.7L53.93,70.62v15L91.34,99.13Z" transform="translate(0.33)" fill="#666"/><path d="M134.42,78.65,152,80.21V187.05l-17.55-1.57h0l-37.91-3.13v-6.89l37.91,1.88V161l-37.91.63V147.88l37.91-3.44v-16L96.51,134.1V120l37.91-8.46V95.25l-37.91,11V92.43ZM367,71V182l-137,8-78-3,0-9.35,72.69,3.44V158.54L152,160.42V142.87l72.37-6.58V113.74L152,125V107.47l72.37-16.29V68.62L152,89.92V72.38l72.37-26.32V23.5L152,54.52V45.75L230.29,9.41Zm-85.64-9.27,40.41,14.41V59.85L281.36,42.93Zm0,39.47L321.77,110V93.37L281.36,81.78Zm0,38.85,40.41,3.45V126.58l-40.41-6.27Zm0,39.48L321.77,178V160.42l-40.41-.63ZM367,161l-23.92,0v16L367,176Zm0-27-23.92-4v15.35L367,147Zm0-28-23.92-6.68v15.36L367,120Zm0-27L343.08,68.62v15L367,92Z" transform="translate(0.33)" fill="gray"/><g clip-path="url(#a)"><g clip-path="url(#a)"><path d="M256.33,27.26l0,.06c-.15,0-.34-.06-.44.19,0,0-.05.13-.1.3L255,30.48c-.1.36-.12.49.13.7l0,.07L254,30.79l0-.06c.18,0,.35,0,.45-.23,0-.05,0-.05.09-.28l.81-2.7-2.71,2.74,0,0-.09-3.82-1.28,2.5a.91.91,0,0,0-.11.22c-.1.24,0,.36.16.48l0,.07-.93-.38,0-.07c.3.05.37,0,.57-.4l1.28-2.46.13-.27c.11-.26,0-.35-.16-.47l0-.07.8.33.08,3.48,2.47-2.45Z" transform="translate(0.33)" fill="#231f20"/><path d="M257.79,31.62a1,1,0,0,1-.29.2,1.15,1.15,0,0,1-1.07.08,1.3,1.3,0,0,1-.68-1.79,1.38,1.38,0,0,1,1.8-.86,1.16,1.16,0,0,1,.62,1.64l-1.93-.78a1.06,1.06,0,0,0-.1.28,1,1,0,0,0,.56,1.21,1.25,1.25,0,0,0,1-.07Zm0-1.15a.73.73,0,0,0-.36-1,.89.89,0,0,0-1.09.43Z" transform="translate(0.33)" fill="#231f20"/><path d="M261.91,29.46l-1.25,3.09c-.15.38-.12.48,0,.62v.06l-.53.19a.81.81,0,0,1-.11-.5,1.35,1.35,0,0,1-1,0,1.23,1.23,0,0,1-.64-1.7,1.42,1.42,0,0,1,1.85-.92,1.39,1.39,0,0,1,.63.47l.3-.73c.06-.17.13-.36-.18-.45v-.06Zm-1.38,2.2a1.3,1.3,0,0,0,.1-.43.71.71,0,0,0-.48-.66c-.55-.22-1,.13-1.3.74a1,1,0,0,0,.43,1.37.86.86,0,0,0,.34.07,1,1,0,0,0,.53-.15Z" transform="translate(0.33)" fill="#231f20"/><path d="M261.82,31.82c.08-.18.12-.3-.15-.41v-.06l.9-.12-.83,2.05c-.12.31-.16.42.11.62l0,.07-1-.41,0-.07c.3,0,.35-.08.48-.4ZM263,30.29a.31.31,0,0,1-.4.17.28.28,0,0,1-.16-.37.3.3,0,1,1,.56.2" transform="translate(0.33)" fill="#231f20"/><path d="M264.4,34.3a1.19,1.19,0,0,1-1.31.3,1.05,1.05,0,0,1-.65-.72,1.58,1.58,0,0,1,.07-1,1.76,1.76,0,0,1,.72-.85,1.19,1.19,0,0,1,1.06-.07,1.29,1.29,0,0,1,.68.61l-.29.46-.06,0a.78.78,0,0,0-.47-.83c-.57-.23-1,.3-1.17.72a1,1,0,0,0,.42,1.41,1.26,1.26,0,0,0,1-.11Z" transform="translate(0.33)" fill="#231f20"/><path d="M265.35,33.24c.07-.18.12-.29-.15-.4v-.06l.9-.13-.83,2.06c-.12.31-.16.41.11.62l0,.06-1-.4,0-.07c.3,0,.35-.09.47-.4Zm1.19-1.53a.29.29,0,0,1-.4.17.28.28,0,0,1-.16-.37.29.29,0,0,1,.4-.17.28.28,0,0,1,.16.37" transform="translate(0.33)" fill="#231f20"/><path d="M267.31,33.15l-.17.43a1.14,1.14,0,0,1,1,0,.93.93,0,0,1,.57.59,1.15,1.15,0,0,1-.13.77l-.39,1c-.14.34-.17.48.09.65l0,.06-1-.41,0-.06a.34.34,0,0,0,.31-.06c.05,0,.08-.07.18-.34l.42-1a.67.67,0,0,0,0-.59.73.73,0,0,0-.37-.31.82.82,0,0,0-.53,0,.61.61,0,0,0-.4.44l-.41,1c-.14.36-.14.45.09.63l0,.06-1-.41,0-.06c.3.07.38-.13.49-.4l.44-1.08c.13-.34.18-.47-.1-.59v-.06Z" transform="translate(0.33)" fill="#231f20"/><path d="M270.86,36.91c-.06,0-.14.11-.29.2a1.2,1.2,0,0,1-1.08.07,1.28,1.28,0,0,1-.67-1.78,1.37,1.37,0,0,1,1.8-.87,1.17,1.17,0,0,1,.62,1.64l-1.93-.78a1.2,1.2,0,0,0-.1.28,1,1,0,0,0,.56,1.22,1.29,1.29,0,0,0,1-.08Zm0-1.15a.74.74,0,0,0-.36-1,.9.9,0,0,0-1.08.43Z" transform="translate(0.33)" fill="#231f20"/><path d="M251.13,25.14c0-.06-.15-.09-.28-.13l-.19-.06-.18-.09c-.15-.09-.31-.17-.39-.14l0,0h0s0,.09.07.13a.26.26,0,0,1,.1.27c0,.07,0,.09,0,.11h0a15.5,15.5,0,0,1-1.84,2.11c0-.53.23-2.77.23-2.79l.05-.17h0c.06-.12.11-.1.17-.09s.08,0,.11,0v-.05c0-.06-.19-.11-.42-.18l-.21-.07-.21-.1a.8.8,0,0,0-.4-.15l0,.05h0c0,.06,0,.09.07.12a.42.42,0,0,1,.2.29c0,.06,0,.17,0,.4v.54l-1.41,1.48c0-.29.06-1.94.09-2.84l0-.07v0l0-.06c.06-.12.12-.11.18-.1s.08,0,.11,0v0c0-.06-.19-.11-.42-.18l-.21-.07-.21-.1a1,1,0,0,0-.31-.14l-.07,0-.19-.05-.2-.1c-.14-.08-.25-.14-.32-.12l0,0c0,.08.05.13.11.16l0,0c.15.08.35.19-.08,1.25l-.52,1.29a1.12,1.12,0,0,1-1.6.62,1.22,1.22,0,0,1-.77-.65,2,2,0,0,1,.18-1.49l.64-1.6a.25.25,0,0,1,.3-.19c.05,0,.11,0,.13-.06l0-.06c0-.06-.17-.09-.32-.11l-.27-.07-.25-.14c-.17-.1-.33-.19-.41-.17a.12.12,0,0,0-.05.05c0,.07,0,.11.09.15s.27.2.1.63l-.75,1.86a1.29,1.29,0,0,0,0,1,2.06,2.06,0,0,0,1.19,1,1.45,1.45,0,0,0,2.08-.86l.81-2c.07-.16.14-.19.2-.2a.53.53,0,0,1,.16.45s0,2.2,0,2.77l-.06,1.1a.11.11,0,0,0,0,.06s.07,0,.07,0c.32-.41,1.7-1.85,1.94-2.1,0,.34-.07,2.4-.14,2.81a.09.09,0,0,0,0,.08s.07,0,.08,0l.24-.28.39-.44.36-.39,1.58-1.73c.31-.31.46-.26.55-.23a.08.08,0,0,0,.12,0,.11.11,0,0,0,0-.05" transform="translate(0.33)" fill="#231f20"/></g></g></svg>