<svg xmlns="http://www.w3.org/2000/svg" viewBox="0 0 24.571 20.452">
  <defs>
    <style>
      .cls-1 {
        fill: #4b2e83;
      }
    </style>
  </defs>
  <path id="Union_7" data-name="Union 7" class="cls-1" d="M-1431.393-1718.6a2.054,2.054,0,0,1,2.047-2.047,2.053,2.053,0,0,1,2.047,2.047,2.053,2.053,0,0,1-2.047,2.047A2.054,2.054,0,0,1-1431.393-1718.6Zm1.024,0a1.026,1.026,0,0,0,1.023,1.023,1.026,1.026,0,0,0,1.024-1.023,1.027,1.027,0,0,0-1.024-1.024A1.027,1.027,0,0,0-1430.369-1718.6Zm3.583.512v-1.024h15.357v1.024Zm-9.214,0v-1.024h4.1v1.024Zm.512-4.072a.484.484,0,0,1-.512-.512v-13.82a.484.484,0,0,1,.512-.512h23.547a.484.484,0,0,1,.512.512v13.82a.484.484,0,0,1-.512.512Zm.512-1.024h22.522v-12.8h-22.522Zm8.958-2.61a.538.538,0,0,1-.256-.461v-6.142a.54.54,0,0,1,.256-.461.465.465,0,0,1,.512,0l5.119,3.072a.537.537,0,0,1,.256.461.537.537,0,0,1-.256.46l-5.119,3.072a.382.382,0,0,1-.256.051A.462.462,0,0,1-1426.019-1725.79Zm.769-1.331,3.634-2.15-3.634-2.2Z" transform="translate(1436 1737)"/>
</svg>
