<svg xmlns="http://www.w3.org/2000/svg" viewBox="-700.016 -132 157.926 21"><defs><style>.a{fill:#fff;}</style></defs><g transform="translate(-700.016 -132)"><path class="a" d="M5.007,0V.344C4.292.458,3.376.687,3.376,2c0,.057,0,.658.087,1.517L4.807,16.971c.2,1.8.343,2.432,1.888,2.918v.344H.8v-.344c.857-.257,1.6-.6,1.6-1.859,0-.258,0-.258-.087-1.43L1.03,2.977-6.15,20.233h-.257L-13.789,3.206-15.019,16.8A8.482,8.482,0,0,0-15.1,18c0,1.287.715,1.6,1.6,1.887v.344h-4.892v-.344c1.4-.342,1.63-.773,1.831-2.861l1.258-13.423c.087-.858.115-1.173.115-1.43,0-1.373-.571-1.6-1.574-1.831V0h4.206l6.694,15.511L.8,0Z" transform="translate(69.586 0.252)"/><path class="a" d="M2.552,2.2a7.755,7.755,0,0,1-.944,1.43,5.7,5.7,0,0,1-4.72,2.29c-4.177,0-6.266-3.291-6.266-6.811s2.231-7.155,6.523-7.155c3.2,0,5.664,2.09,5.75,6.24H-7.2A6.88,6.88,0,0,0-7.146-.353,4.764,4.764,0,0,0-2.4,4.084a6.184,6.184,0,0,0,4.491-2.2ZM.464-2.985C.35-5.76-1.367-6.906-3-6.906c-1.859,0-3.518,1.316-4.09,3.921Z" transform="translate(86.602 15.056)"/><path class="a" d="M2.681,0V16.2c.028,1.974.343,2.375,1.345,2.718l.142.257-2.06,1.8a3.919,3.919,0,0,1-1.4-2.06c-1.544,1.345-2.688,2.06-4.605,2.06-3.805,0-5.95-2.919-5.95-6.5,0-3.949,2.431-7.5,6.637-7.5a7.029,7.029,0,0,1,3.689.972V4.121C.45,3.263.422,2.262-1.124,2.4l-.114-.257ZM.477,12.392A5.7,5.7,0,0,0,.163,10.3,3.424,3.424,0,0,0-3.184,8.184c-2.889,0-4.491,2.491-4.491,5.724,0,3.434,2.088,5.38,4.406,5.38a4.2,4.2,0,0,0,1.659-.342,4.953,4.953,0,0,0,2.088-1.6Z" transform="translate(101.034 0.022)"/><path class="a" d="M.337,2.238C.337,1.294.309.693-1.093.693L-1.237.435,2.6-1.768V8.992c0,1.632.028,2.175,1.6,2.6v.344H-1.065V11.6c1.4-.429,1.4-1.03,1.4-2.661ZM2.882-6.806A1.426,1.426,0,0,1,1.4-5.318a1.362,1.362,0,0,1-1.4-1.373A1.441,1.441,0,0,1,1.51-8.208a1.363,1.363,0,0,1,1.373,1.4" transform="translate(107.297 8.545)"/><path class="a" d="M2.369,2.2C.738,5.4-1.379,5.944-3.01,5.944a5.063,5.063,0,0,1-4.233-2.06A7.368,7.368,0,0,1-8.7-.7,8,8,0,0,1-7.015-5.817,5.572,5.572,0,0,1-2.38-8.051,6.423,6.423,0,0,1,1.8-6.591L1.34-3.958H1C.538-5.074-.206-6.82-2.58-6.82c-3,0-4.006,3.149-4.006,5.352,0,3.378,2.118,5.582,4.464,5.582a5.967,5.967,0,0,0,4.09-2.2Z" transform="translate(121.4 15.056)"/><path class="a" d="M.337,2.238C.337,1.294.309.693-1.093.693L-1.237.435,2.6-1.768V8.992c0,1.632.028,2.175,1.6,2.6v.344H-1.065V11.6c1.4-.429,1.4-1.03,1.4-2.661ZM2.884-6.806A1.427,1.427,0,0,1,1.4-5.318a1.362,1.362,0,0,1-1.4-1.373A1.441,1.441,0,0,1,1.51-8.208a1.364,1.364,0,0,1,1.374,1.4" transform="translate(125.777 8.545)"/><path class="a" d="M.839,0V2.232A5.6,5.6,0,0,1,5.244.2a4.418,4.418,0,0,1,3.633,1.63c.8,1.088.829,2.119.829,3.692v5.094c0,1.746.087,2.432,1.6,2.718v.344H6.017v-.344a1.639,1.639,0,0,0,1.287-.83c.142-.314.2-.458.2-1.831V5.237a3.193,3.193,0,0,0-.972-2.661A3.418,3.418,0,0,0,4.3,1.861a3.612,3.612,0,0,0-2.432.8A3.033,3.033,0,0,0,.839,5.381v5.294c0,1.861.172,2.29,1.574,2.661v.344H-2.909v-.344c1.487-.257,1.487-1.259,1.487-2.689V5.008c0-1.8-.028-2.489-1.516-2.517l-.142-.258Z" transform="translate(133.944 6.805)"/><path class="a" d="M2.552,2.2a7.755,7.755,0,0,1-.944,1.43,5.7,5.7,0,0,1-4.72,2.29c-4.178,0-6.266-3.291-6.266-6.811s2.231-7.155,6.523-7.155c3.2,0,5.664,2.09,5.75,6.24H-7.2A6.88,6.88,0,0,0-7.146-.353,4.764,4.764,0,0,0-2.4,4.084a6.184,6.184,0,0,0,4.491-2.2ZM.464-2.985C.35-5.76-1.367-6.906-3-6.906c-1.86,0-3.519,1.316-4.091,3.921Z" transform="translate(155.03 15.056)"/><path class="a" d="M10.127.039C9.908-.177,9.319-.114,8.64-.039l-.933.07L6.7-.049C5.866-.138,5-.231,4.691.028L4.562.271V.3c0,.3.26.4.534.5A1.235,1.235,0,0,1,6.058,1.8a3.152,3.152,0,0,1,.074.526.159.159,0,0,1,0,.041C6.108,3.7,3.894,9.716,1.669,15.192.725,12.815-2.325,2.32-2.359,2.212a7.457,7.457,0,0,1-.1-.84V1.346c.039-.653.314-.685.581-.718.191-.02.43-.05.444-.367l-.08-.2C-1.766-.175-2.567-.114-3.762,0L-4.823.087-5.96,0C-6.842-.1-7.675-.2-8,.077l-.142.275V.375c0,.3.253.36.52.419a2.024,2.024,0,0,1,1.416.929c.158.267.391.766.832,1.775,0,0,.919,2.207,1,2.4-.029.07-3.49,8.819-3.655,9.237-.514-1.311-3.261-8.828-4.754-12.929l-.073-.369c0-.014,0-.07,0-.14,0-.14,0-.33,0-.33.041-.654.326-.694.6-.732.195-.027.439-.06.454-.375l-.081-.2C-12.13-.175-12.933-.114-14.126,0l-1.062.083-1.127-.093a5.592,5.592,0,0,0-1.639-.051c-.121.014-.244.031-.374.05l-.949.093L-20.364,0c-.734-.084-1.369-.157-1.616.065l-.107.244c0,.4.443.468.765.517.02,0,.2.024.2.024.869.1,1.953.211,1.953,5.769v6.763c0,3.547-2.211,5.62-6.065,5.687a6.171,6.171,0,0,1-4.678-1.494c-1.679-1.644-1.911-4.363-1.911-7.059V2.143A1.222,1.222,0,0,1-30.842.749c.257-.085.525-.176.475-.481,0,0-.167-.261-.167-.261-.3-.2-.934-.081-1.668.064a8.605,8.605,0,0,1-1.354.192A9.935,9.935,0,0,1-34.916.1c-.941-.149-1.832-.289-2.158-.01a.367.367,0,0,0-.13.29c0,.369.322.449.664.535.674.168,1.6.4,1.6,2.632v9.756a6.2,6.2,0,0,0,1.929,4.557,9.86,9.86,0,0,0,7.2,2.377C-19.355,20.012-18,15.961-18,12.6V2.118c0-.846.243-1.121.509-1.242.478.15,1.06.507,1.528,1.716.039.1,3.968,9.914,4.875,12.522l1.748,5.063a.375.375,0,0,0,.265.221c.174.018.294-.183.307-.206C-8.076,17.8-4.486,8.785-3.856,7.247-3.29,8.774.183,18.166.626,20.134a.321.321,0,0,0,.294.279.331.331,0,0,0,.35-.243c0,.005.561-1.665.561-1.665L2.8,15.791c.009-.022.9-2.329.9-2.4-.006.032,3.977-10.652,3.977-10.652C8.5.75,9.258.71,9.708.689c.238-.011.482-.024.505-.4a.3.3,0,0,0-.087-.246" transform="translate(37.203 0.141)"/></g></svg>